<svg width="163" height="36" viewBox="0 0 163 36" fill="none" xmlns="http://www.w3.org/2000/svg">
<g opacity="0.5" clip-path="url(#clip0_896_3578)">
<path d="M99.9709 14.7807C100.331 14.7916 100.369 14.5317 100.489 14.3692C102.399 11.7431 105.013 10.5032 108.244 10.4491C109.379 10.4274 110.492 10.5573 111.578 10.9039C112.888 11.3208 114.023 12.0139 114.962 13.0102C116.642 14.7862 117.117 16.9141 116.621 19.237C116.206 21.1808 114.923 22.4857 113.084 23.2004C111.404 23.8556 109.674 23.8719 107.944 23.3521C106.831 23.0163 105.93 22.3666 105.237 21.4353C105.128 21.2891 105.035 21.1375 104.931 20.9859C104.828 20.8397 104.724 20.6772 104.506 20.7097C104.271 20.7476 104.113 20.8884 104.036 21.1104C103.845 21.6356 104.009 22.1067 104.282 22.5507C104.626 23.1246 105.133 23.5307 105.695 23.8773C107.131 24.7544 108.697 25.1389 110.378 25.0901C112.812 25.0143 114.918 24.1751 116.631 22.4316C116.806 22.2529 117.003 22.0255 117.221 21.9767C118.154 21.7764 118.672 21.8251 118.678 22.9081C118.7 25.1226 118.471 27.3047 117.794 29.4272C117.385 30.7105 116.784 31.9017 115.928 32.9521C114.574 34.6144 112.839 35.5457 110.678 35.6649C109.837 35.7136 109.002 35.6865 108.178 35.5241C106.236 35.1342 104.702 34.1055 103.551 32.5082C102.738 31.3765 102.186 30.1203 101.875 28.7721C101.166 25.6966 101.144 22.6157 101.892 19.5456C102.192 18.3111 102.71 17.1577 103.458 16.1127C104.544 14.5912 105.974 13.6328 107.895 13.4975C108.107 13.4812 108.331 13.4921 108.462 13.2592C108.626 12.9614 108.533 12.5824 108.238 12.4146C107.906 12.2142 107.54 12.2305 107.18 12.2684C105.832 12.4037 104.659 12.9181 103.654 13.8278C102.836 14.5696 102.214 15.4521 101.712 16.4214C100.91 17.9808 100.418 19.6322 100.151 21.3595C99.9764 22.4695 99.9163 23.5849 99.9218 24.7057C99.9327 27.4834 99.9272 30.2665 99.9218 33.0442C99.9218 33.3312 99.9327 33.6236 99.9 33.9105C99.8236 34.5928 99.5016 34.9447 98.8194 35.0855C98.5739 35.1342 98.3119 35.1451 98.0609 35.1451C95.3706 35.1505 92.6747 35.1505 89.9844 35.1451C89.657 35.1451 89.3295 35.1396 89.013 35.0368C88.4728 34.8635 88.1453 34.5116 88.1017 33.9484C88.0689 33.5532 88.0689 33.1579 88.0689 32.7572C88.0689 24.3429 88.0689 15.934 88.0635 7.51975C88.0635 6.9079 88.0089 6.29605 87.9652 5.6842C87.8834 4.56338 87.3213 3.71329 86.4154 3.06895C86.1808 2.9011 85.9297 2.74949 85.6896 2.58705C85.5095 2.46251 85.3567 2.30008 85.3349 2.06725C85.2803 1.46623 85.2749 0.96267 86.2408 0.973499C87.7306 0.989743 89.2258 0.978914 90.7156 0.978914C93.0076 0.978914 95.2996 0.978914 97.5916 0.978914C97.919 0.978914 98.2465 0.968085 98.5739 1.00057C99.507 1.09803 99.8618 1.47164 99.9163 2.38671C99.9327 2.67368 99.9218 2.96607 99.9218 3.25305C99.9218 6.7563 99.9218 10.2541 99.9218 13.7574C99.9163 14.1039 99.8781 14.4559 99.9709 14.7807Z" fill="black"/>
<path d="M149.892 27.3968C149.881 27.1856 149.843 26.969 149.783 26.7578C149.717 26.5413 149.565 26.3897 149.324 26.3463C148.451 26.1677 148.14 26.3897 147.987 27.2776C147.911 27.7379 147.846 28.2035 147.726 28.6584C147.6 29.1186 147.294 29.3406 146.967 29.2973C146.689 29.254 146.481 28.9887 146.443 28.5609C146.41 28.1656 146.416 27.7704 146.416 27.3697C146.416 19.3561 146.416 11.3425 146.41 3.32344C146.41 2.92818 146.421 2.5275 146.372 2.13223C146.29 1.48789 145.985 1.16843 145.341 1.04389C144.986 0.978919 144.62 0.973504 144.255 0.973504C140.544 0.968089 136.833 0.968089 133.122 0.968089C132.942 0.968089 132.757 0.962675 132.577 0.973504C131.971 1.01141 131.807 1.1955 131.796 1.76945C131.785 2.17555 131.954 2.44628 132.287 2.66286C132.653 2.89569 133.008 3.15018 133.341 3.43173C133.946 3.94071 134.29 4.61212 134.41 5.38641C134.454 5.67338 134.508 5.96035 134.508 6.24733C134.519 8.08829 134.525 9.92926 134.525 11.7702C134.525 11.8081 134.514 11.8406 134.508 11.8785C134.481 12.0897 134.312 12.1655 134.121 12.0247C133.477 11.5428 132.789 11.1475 132.025 10.8876C130.939 10.5195 129.826 10.422 128.691 10.4436C125.728 10.5086 123.469 11.7919 121.897 14.2826C121.198 15.398 120.718 16.6055 120.434 17.8779C119.703 21.2025 119.714 24.5379 120.407 27.8733C120.735 29.4435 121.319 30.9163 122.23 32.2483C124.178 35.0963 127.179 36.1793 130.738 35.4699C132.418 35.1342 133.706 34.165 134.71 32.8005C134.918 32.519 135.021 32.14 135.382 31.9884C135.42 32.0154 135.452 32.0317 135.474 32.0642C135.622 32.2699 135.769 32.4757 135.916 32.6814C137.013 34.2408 138.519 35.1884 140.391 35.5295C141.723 35.7732 143.076 35.7623 144.408 35.4808C147.125 34.9068 148.828 33.2608 149.554 30.613C149.843 29.5626 149.941 28.4905 149.892 27.3968ZM134.536 29.1998C134.508 29.7359 134.306 29.9633 133.859 30.0066C133.308 30.0553 132.953 29.7954 132.877 29.2377C132.839 28.9562 132.844 28.6638 132.844 28.3768C132.844 24.3429 132.839 20.3091 132.844 16.2752C132.844 15.9503 132.844 15.62 132.904 15.306C132.997 14.8078 133.482 14.5425 133.985 14.667C134.296 14.7428 134.503 14.9486 134.53 15.2626C134.558 15.5496 134.552 15.8366 134.552 16.1236C134.552 18.1757 134.552 20.2278 134.552 22.2854C134.552 24.3375 134.552 26.3897 134.552 28.4472C134.541 28.6963 134.552 28.9453 134.536 29.1998Z" fill="black"/>
<path d="M55.266 19.0366C54.3328 15.1381 51.8935 12.5716 48.0626 11.31C47.5824 11.153 47.0858 11.0176 46.5946 10.9039C44.3026 10.3787 41.9779 10.3516 39.6477 10.5357C38.1252 10.6548 36.6299 10.9689 35.1947 11.5266C31.8495 12.8315 29.6666 15.1814 28.7335 18.6305C27.9258 21.6194 27.9313 24.6353 28.7662 27.6188C29.6939 30.9271 31.8004 33.2283 35.0146 34.5278C35.4512 34.7011 35.9041 34.8473 36.3516 34.9826C38.1797 35.5349 40.0624 35.6757 42.3381 35.6865C42.7583 35.6649 43.5605 35.6595 44.3572 35.5837C45.9179 35.4429 47.4459 35.118 48.9084 34.5224C52.1445 33.2012 54.251 30.8621 55.1623 27.5051C55.9263 24.7003 55.9427 21.8576 55.266 19.0366ZM42.7801 31.7014C42.7801 32.0967 42.7637 32.4973 42.6873 32.8818C42.6109 33.2825 42.278 33.4882 41.8851 33.4611C41.5413 33.4395 41.2685 33.2391 41.203 32.8709C41.1375 32.4811 41.1102 32.0858 41.1102 31.6906C41.1048 28.3335 41.1048 24.9819 41.1048 21.6248C41.1048 19.2099 41.0993 16.7896 41.1102 14.3747C41.1102 14.0173 41.1266 13.6491 41.1921 13.2972C41.2685 12.8911 41.585 12.6474 41.9506 12.6528C42.3108 12.6528 42.6382 12.9019 42.7037 13.308C42.7692 13.6978 42.7801 14.0985 42.7801 14.4938C42.7855 17.3798 42.7801 20.2658 42.7801 23.1517C42.7855 26.0052 42.791 28.8533 42.7801 31.7014Z" fill="black"/>
<path d="M84.4012 18.2028C83.5063 15.2356 81.5854 13.1185 78.7477 11.819C77.8527 11.4075 76.9195 11.1205 75.9536 10.9039C73.6562 10.3895 71.3314 10.3516 69.0067 10.5411C67.3368 10.6765 65.6997 11.0284 64.1499 11.6944C61.1648 12.9777 59.1457 15.1327 58.218 18.2245C57.2466 21.4516 57.2521 24.7112 58.2234 27.9383C59.1184 30.9055 61.0339 33.0334 63.877 34.3167C64.4391 34.5711 65.023 34.7769 65.6124 34.961C67.4351 35.5241 69.3178 35.6866 71.2168 35.7082C72.0518 35.6703 72.8922 35.6595 73.7217 35.5837C75.3206 35.4375 76.8868 35.1072 78.3711 34.4845C81.438 33.1958 83.5008 30.9867 84.434 27.8083C85.3726 24.6137 85.3617 21.3866 84.4012 18.2028ZM72.0354 32.9738C71.8772 33.3204 71.6316 33.4828 71.2769 33.4666C70.9494 33.4503 70.7257 33.2879 70.6111 32.9955C70.5456 32.8331 70.4965 32.6544 70.4747 32.4757C70.4474 32.2266 70.4528 31.9721 70.4528 31.7177C70.4528 25.9565 70.4528 20.19 70.4528 14.4288C70.4528 14.1743 70.4474 13.9253 70.4692 13.6708C70.4856 13.4975 70.5292 13.3134 70.5947 13.151C70.7312 12.8044 71.0149 12.6258 71.3478 12.6474C71.6698 12.6637 71.8772 12.8369 72.0136 13.1185C72.1991 13.4921 72.1664 13.8928 72.1664 14.288C72.1664 16.7354 72.1664 19.1883 72.1664 21.6357C72.1664 22.1392 72.1664 22.6428 72.1664 23.1463C72.1664 26.0269 72.1664 28.9075 72.1664 31.7935C72.1718 32.1996 72.2046 32.5948 72.0354 32.9738Z" fill="black"/>
<path d="M13.7426 35.6865C11.6034 35.6973 9.53518 35.3346 7.60882 34.3924C3.44504 32.3511 1.18579 28.9995 0.781962 24.4241C0.645534 22.8702 0.721933 21.3216 1.12576 19.8055C1.8843 16.9736 3.46686 14.7103 5.88982 13.0318C8.06176 11.5266 10.4902 10.7306 13.1096 10.5194C15.036 10.3624 16.9623 10.422 18.8505 10.9039C19.8382 11.1584 20.7932 11.5049 21.6882 11.9976C22.4249 12.4037 23.0852 12.9019 23.6691 13.5137C25.2953 15.2139 25.721 17.2281 25.0771 19.4265C24.4331 21.6194 22.856 22.9189 20.6513 23.482C19.4726 23.7798 18.2775 23.7798 17.0878 23.4928C14.6267 22.8972 12.8204 20.9263 12.4711 18.4464C12.1273 16.0153 13.5953 13.9902 16.0237 13.557C16.2365 13.5191 16.4548 13.5137 16.6731 13.4921C16.9132 13.4704 17.0878 13.3621 17.1315 13.113C17.1806 12.8531 17.0442 12.577 16.7986 12.4958C16.5967 12.4308 16.3729 12.3875 16.1601 12.3821C15.3798 12.355 14.6321 12.5012 13.9554 12.8856C12.1873 13.8819 11.1669 15.3655 11.0359 17.4122C10.7739 21.5761 14.1574 25.1876 18.7577 25.1118C21.0115 25.0739 22.9542 24.3375 24.5695 22.7781C24.7496 22.6048 24.9406 22.4316 25.1153 22.2475C25.5245 21.8251 26.0266 21.8684 26.5396 21.9497C26.736 21.9822 26.8615 22.1338 26.8997 22.3179C26.9488 22.5615 26.987 22.816 26.987 23.0651C26.8834 29.6871 22.3703 34.2571 16.8914 35.3995C15.8491 35.6107 14.7958 35.6649 13.7426 35.6865Z" fill="black"/>
<path d="M157.292 26.7308C158.176 26.7091 159.033 26.8553 159.851 27.191C162.05 28.0899 163.131 30.1961 162.569 32.4757C162.263 33.7102 161.526 34.6307 160.408 35.1992C158.405 36.2118 156.326 36.2442 154.318 35.2588C152.315 34.2733 151.463 32.1725 152.08 30.0391C152.468 28.6963 153.384 27.8083 154.634 27.2506C155.48 26.8662 156.369 26.7091 157.292 26.7308Z" fill="black"/>
</g>
<defs>
<clipPath id="clip0_896_3578">
<rect width="162" height="35" fill="white" transform="translate(0.716797 0.973511)"/>
</clipPath>
</defs>
</svg>
