<svg width="136" height="41" viewBox="0 0 136 41" fill="none" xmlns="http://www.w3.org/2000/svg">
<g clip-path="url(#clip0_896_3169)">
<path d="M77.0488 36.3705C77.0696 36.3912 77.0904 36.412 77.0904 36.412C77.0904 36.3705 77.0904 36.3289 77.0904 36.2874C77.0696 36.3081 77.0696 36.3289 77.0488 36.3705ZM98.5524 22.0556C98.4693 22.9282 98.4692 23.8423 98.5316 24.7773C98.5524 25.0266 98.5524 25.2551 98.5524 25.5044C98.5524 24.3617 98.5524 23.1983 98.5524 22.0556ZM100.734 16.6537C100.838 16.5914 100.9 16.4875 100.983 16.3836C100.9 16.4667 100.817 16.5706 100.734 16.6537ZM101.004 16.3836C101.066 16.3213 101.149 16.2382 101.212 16.1758C101.129 16.2174 101.066 16.3005 101.004 16.3836ZM125.956 21.4946C126.123 21.4738 126.268 21.4323 126.434 21.4115C126.289 21.4323 126.123 21.4738 125.956 21.4946ZM127.12 21.7439C127.12 21.7647 127.12 21.7647 127.12 21.7439V21.7439Z" fill="black"/>
<path d="M19.1045 40.2148V40.0479L19.1253 40.027V40.0479C19.1461 40.0896 19.1461 40.1522 19.1045 40.2148Z" fill="black"/>
<path d="M19.1045 40.2148V40.0479L19.1253 40.027V40.0479C19.1461 40.0896 19.1461 40.1522 19.1045 40.2148Z" fill="black"/>
<path d="M73.7666 19.2724C73.7666 19.1889 73.7666 19.1264 73.7666 19.0429C73.7666 19.1264 73.7874 19.1889 73.7666 19.2724Z" fill="black"/>
<path d="M77.0904 36.2665C77.0904 36.3083 77.0904 36.35 77.0904 36.3917C77.0696 36.3708 77.0488 36.3708 77.0488 36.35C77.0696 36.3291 77.0696 36.3083 77.0904 36.2665Z" fill="black"/>
<path d="M73.7666 19.2724C73.7666 19.1889 73.7666 19.1264 73.7666 19.0429C73.7666 19.1264 73.7874 19.1889 73.7666 19.2724Z" fill="black"/>
<path d="M77.0904 36.2665C77.0904 36.3083 77.0904 36.35 77.0904 36.3917C77.0696 36.3708 77.0488 36.3708 77.0488 36.35C77.0696 36.3291 77.0696 36.3083 77.0904 36.2665Z" fill="black"/>
<path d="M134.807 35.8718C134.828 31.0724 134.828 26.2523 134.807 21.453C134.807 19.9363 134.787 18.4196 134.433 16.9238C133.852 14.3683 132.293 12.7477 129.779 11.9998C128.533 11.6258 127.266 11.4803 125.998 11.4803C123.671 11.5011 121.469 11.9998 119.641 13.5995C119.163 13.9112 118.83 14.3267 118.581 14.8461C118.228 15.2409 118.062 15.6979 118.186 16.2589C118.415 15.8849 118.643 15.4902 118.872 15.1162C119.267 14.7007 119.661 14.2644 120.077 13.8489C120.721 13.5164 121.344 13.184 121.988 12.8308C124.066 12.3737 126.144 12.1867 128.221 12.8308C129.177 13.3502 130.05 13.9735 130.548 14.95C131.379 16.5498 131.67 18.2742 131.545 20.061C130.507 20.3934 129.447 20.7258 128.408 21.079C127.764 21.1829 127.141 21.2868 126.497 21.4114C126.331 21.4322 126.185 21.4738 126.019 21.4945C125.977 21.4945 125.936 21.5153 125.915 21.5153C123.983 21.6608 122.071 21.9516 120.181 22.3672C117.729 22.9073 115.361 23.6345 113.387 25.2966C109.772 28.3715 109.689 34.0435 113.2 37.2222C115.153 38.9675 117.563 39.5908 120.077 39.757C124.959 40.0894 128.824 38.3857 131.213 33.9188C131.275 33.7942 131.317 33.5864 131.649 33.6695C131.649 34.5421 131.649 35.4355 131.649 36.3289C131.67 38.8428 133.041 40.0271 135.638 39.6739C134.807 38.5104 134.807 37.2015 134.807 35.8718ZM131.442 29.7843C130.673 36.2458 124.253 39.9647 118.165 37.6586C113.387 35.8302 112.286 29.0571 116.213 25.6498C118.207 23.9046 120.679 23.2398 123.173 22.6165C124.461 22.284 125.79 22.0555 127.099 21.7646V21.7439C127.099 21.7439 127.099 21.7439 127.12 21.7646C127.743 21.7646 128.325 21.5984 128.907 21.4322C129.011 21.4114 129.115 21.3699 129.219 21.3491C130.029 21.3076 130.694 20.9544 131.296 20.4765C131.379 20.4142 131.442 20.3519 131.525 20.2895C131.649 23.4475 131.836 26.6471 131.442 29.7843Z" fill="black"/>
<path d="M126.435 21.4114C126.269 21.4322 126.123 21.4738 125.957 21.4945C126.123 21.4738 126.289 21.4322 126.435 21.4114Z" fill="black"/>
<path d="M91.7169 12.623C91.7377 13.1424 91.426 13.1632 91.052 13.1632C90.0548 13.1632 89.0367 13.184 88.0395 13.1424C87.4993 13.1217 87.2292 13.2256 87.2292 13.8696C87.25 21.1621 87.2292 28.4546 87.25 35.7679C87.25 37.7001 88.5797 38.2818 90.4911 37.1807C90.2625 38.5935 89.5146 39.383 88.2472 39.6531C86.8137 39.9439 85.3801 39.3622 84.6529 38.1572C84.1958 37.3885 84.0712 36.5574 84.092 35.664C84.092 28.5377 84.0712 21.4114 84.1127 14.2851C84.1127 13.3502 83.8634 13.0593 82.9493 13.1632C82.3675 13.2256 81.765 13.2048 81.1833 13.1632C80.8509 13.1424 80.373 13.3502 80.3522 12.7061C80.3314 12.0413 80.8093 12.2491 81.1417 12.2283C81.8689 12.2075 82.5961 12.1867 83.3232 12.2283C83.905 12.2698 84.1335 12.1036 84.092 11.4803C84.0089 9.94289 84.1751 8.34311 83.2817 6.95109C83.0947 6.66022 83.1986 6.51479 83.4687 6.41091C84.5283 5.99538 85.5879 5.57985 86.6682 5.1851C87.3331 4.93579 87.2292 5.43442 87.2292 5.78762C87.2292 7.65749 87.25 9.52736 87.2084 11.3972C87.1876 12.0205 87.3538 12.2491 88.0187 12.2283C89.016 12.1867 90.034 12.2075 91.0313 12.2075C91.3429 12.2075 91.6961 12.1244 91.7169 12.623Z" fill="black"/>
<path d="M98.5525 25.5044C98.5525 25.2551 98.5318 25.0266 98.5318 24.7772C98.4904 23.8423 98.4904 22.9281 98.5525 22.0555C98.5525 23.1982 98.5525 24.3617 98.5525 25.5044Z" fill="black"/>
<path d="M113.304 19.1884C112.806 19.1468 112.785 18.9806 112.889 18.5235C113.595 15.8849 112.515 13.9735 109.835 13.2671C107.113 12.5607 104.724 13.371 102.542 15.0123C102.085 15.3655 101.649 15.781 101.213 16.155C101.129 16.2173 101.067 16.2797 101.005 16.3628C100.922 16.4459 100.839 16.5498 100.755 16.6329C99.3427 18.2327 98.7402 20.0402 98.5739 22.0347C98.4908 22.9073 98.4908 23.8215 98.5532 24.7564C98.5739 25.0057 98.5739 25.2343 98.5739 25.4836C98.7402 29.6804 98.4908 33.898 98.6778 38.1156C98.8856 38.6143 99.0726 39.1129 99.3011 39.6946H94.5226C95.499 38.178 95.3536 36.5158 95.3536 34.8745C95.3536 29.2441 95.3536 23.6137 95.3536 17.9626C95.3536 16.6537 95.3744 15.324 94.5641 14.1813C94.3563 13.8904 94.5018 13.745 94.7511 13.6619C95.9769 13.184 97.1819 12.7269 98.4908 12.2283V19.3961C99.1141 18.9598 99.1141 18.1703 99.4881 17.5886C99.7582 17.1731 99.9036 16.6537 100.319 16.342C102.979 12.2283 108.734 10.4831 113.138 12.4776C114.759 13.2048 115.985 14.3267 116.213 16.2173C116.421 17.9002 114.987 19.3338 113.304 19.1884Z" fill="black"/>
<path d="M101.003 16.3835C100.921 16.4874 100.858 16.5913 100.755 16.6536C100.817 16.5705 100.9 16.4667 101.003 16.3835Z" fill="black"/>
<path d="M132.979 5.93307C132.958 6.51481 132.501 6.32782 132.21 6.32782C128.616 6.3486 125.001 6.3486 121.407 6.32782C121.095 6.32782 120.617 6.49404 120.596 5.95385C120.576 5.30978 121.116 5.51755 121.427 5.51755C123.193 5.49677 124.959 5.49677 126.725 5.49677C128.554 5.49677 130.403 5.49677 132.231 5.49677C132.522 5.53832 132.979 5.35134 132.979 5.93307Z" fill="black"/>
<path d="M101.213 16.1758C101.15 16.2384 101.067 16.3218 101.005 16.3844C101.067 16.3009 101.13 16.2175 101.213 16.1758Z" fill="#2D2D2D"/>
<path d="M19.1253 40.027L19.1045 40.0479H19.1253C19.1461 40.027 19.1461 40.027 19.1253 40.027Z" fill="black"/>
<path d="M48.8142 35.2276C46.3418 31.4878 43.8486 27.7481 41.3762 24.0083C41.2516 23.6551 41.3347 23.3643 41.6255 23.0942C42.0619 22.6579 42.4566 22.18 42.8721 21.7229C44.8043 19.583 46.7365 17.4638 48.6687 15.3238C49.9984 14.1604 51.4112 13.1008 53.0318 12.3113C51.8683 12.1866 50.7464 12.2074 49.6244 12.1866C49.2712 12.1866 49.1258 12.332 49.1258 12.6645C49.1258 13.6409 48.6064 14.4304 48.1493 15.2407C45.6769 17.8378 43.2253 20.4556 40.8984 23.1773C40.2751 23.8421 39.631 24.5278 39.0077 25.1926C38.1767 26.0652 37.3664 26.9378 36.5353 27.7896C35.8705 28.4545 35.3926 29.3271 34.4993 29.7634C34.4785 29.7634 34.4577 29.7634 34.4369 29.7634C34.3954 29.7634 34.3538 29.7634 34.2915 29.7634V29.5556C34.2915 20.2271 34.2915 10.8777 34.333 1.54911C34.333 1.29979 34.2915 1.1128 34.2292 0.988147C34.1045 0.73883 33.8344 0.697278 33.4604 0.73883C33.4397 0.73883 33.4397 0.73883 33.4189 0.73883C32.3385 1.15436 31.2374 1.56988 30.0531 2.00619C31.0712 2.94112 31.175 4.08382 31.175 5.22652C31.1958 14.2227 31.175 23.1981 31.1958 32.1942C31.1958 32.8175 31.0088 33.1915 30.5102 33.5655C27.0821 36.0794 23.28 37.6376 19.0624 38.0947C11.209 38.9465 4.97606 34.168 3.72948 26.3769C3.52172 25.0264 3.52172 25.0264 4.93451 25.0264H24.2565C26.5627 25.0264 26.5835 25.0264 26.3134 22.6787C25.8563 18.6273 24.2773 15.2199 20.3713 13.4747C16.6316 11.7919 12.6841 11.6049 8.84046 13.1008C0.42604 16.3626 -1.75548 25.5458 2.08815 32.589C4.72675 37.4091 8.88202 40.0269 14.5124 39.9854C16.0291 39.9854 17.5458 40.0061 19.0832 40.0061L19.104 39.9854V40.0061C23.841 39.736 27.6431 37.513 31.1127 34.1888C31.1335 34.168 31.1543 34.1472 31.1958 34.1264C31.1958 34.168 31.1958 34.2095 31.1958 34.2511C31.1335 36.2041 31.4867 37.9701 30.344 39.6322H35.2264C35.0187 39.1959 34.7901 38.8427 34.707 38.4687C34.1668 35.9755 34.4785 33.4616 34.4785 30.9477C34.4785 30.8022 34.6239 30.636 34.707 30.4906C36.0159 29.3271 37.0755 27.9559 38.3013 26.7093C38.6545 26.3561 38.8415 25.8159 39.444 25.7536C41.7502 29.2855 44.0564 32.7967 46.3418 36.3495C46.9443 37.2637 47.6299 38.157 47.6299 39.3413C47.6299 39.5491 47.6922 39.6945 47.9 39.6945C49.3959 39.6945 50.871 39.6945 52.3669 39.6945C50.8295 38.3648 49.853 36.7858 48.8142 35.2276ZM3.7087 23.4682C3.99957 19.3752 7.09525 15.2407 10.8765 13.9318C16.59 11.9788 22.0127 15.1368 23.1554 21.0997C23.3008 21.8061 23.3216 22.5332 23.4255 23.2604C23.5501 24.0083 23.2385 24.1953 22.5113 24.1746C19.4987 24.133 16.4862 24.1538 13.4736 24.1538C10.461 24.1538 7.44845 24.133 4.43588 24.1538C3.91647 24.1953 3.66715 24.133 3.7087 23.4682Z" fill="black"/>
<path d="M77.0907 36.412C77.0699 36.3912 77.0491 36.3912 77.0491 36.3704C77.0699 36.3497 77.0907 36.3081 77.1115 36.2873V20.9128C77.1115 20.892 77.1115 20.8505 77.1115 20.8297C77.0907 20.4765 77.0699 20.1233 77.0491 19.7701C76.7375 15.5941 74.6599 13.2256 70.5669 12.4776C68.3438 12.0621 66.1 12.0621 63.8561 12.4568C60.989 12.9763 58.4751 14.1813 56.626 16.529C54.9846 18.6066 55.0054 18.5859 57.2077 20.0818C57.8933 20.5596 58.1011 20.4765 58.3504 19.687C59.2854 16.716 61.1552 14.5553 64.1678 13.5372C69.3203 11.8128 73.1432 14.0358 73.7665 19.0222C73.7665 19.1053 73.7872 19.1676 73.7665 19.2507C73.7457 20.061 73.1016 20.3103 72.416 20.5388C70.8162 21.0998 69.0918 21.0583 67.492 21.4946C66.2247 21.6608 64.9573 21.7854 63.6899 22.014C60.9475 22.5126 58.2673 23.1567 55.9819 24.8811C52.0136 27.8729 51.702 33.7734 55.3171 37.056C56.9168 38.4896 58.849 39.196 60.9475 39.4869C66.4532 40.2764 70.8993 38.6766 73.5379 33.6487C73.6003 33.5448 73.6626 33.3786 73.8911 33.5241C73.8911 34.5213 73.8703 35.5602 73.8911 36.5782C73.9742 38.822 75.5532 40.0063 77.8386 39.4869C77.2153 38.5727 77.0076 37.5339 77.0907 36.412ZM73.7872 29.6597C72.8523 36.4951 66.8687 39.5908 60.6566 37.6378C58.205 36.8691 56.7506 35.1031 56.2936 32.5476C55.8157 29.7843 56.3351 27.3119 58.6205 25.4421C60.5527 23.8631 62.8797 23.1774 65.2274 22.5957C66.8687 22.201 68.5101 21.8893 70.1722 21.5361V21.5153L70.1929 21.5361C71.4603 21.4946 72.5614 21.0375 73.7457 20.2895C73.7457 20.2895 73.7665 20.2895 73.7665 20.2688V29.6597H73.7872Z" fill="black"/>
</g>
<defs>
<clipPath id="clip0_896_3169">
<rect width="135.316" height="39.4543" fill="white" transform="translate(0.280273 0.759766)"/>
</clipPath>
</defs>
</svg>
