<svg width="177" height="47" viewBox="0 0 177 47" fill="none" xmlns="http://www.w3.org/2000/svg">
<path d="M47.1622 0.100952C40.4868 0.100952 33.811 0.100952 27.135 0.100952C20.428 0.100952 13.7207 0.100952 7.01307 0.100952C3.70788 0.100952 0.983401 2.82361 0.983401 6.12584V40.8187C0.981889 42.4225 1.61691 43.9614 2.74912 45.0976C3.88132 46.2339 5.41822 46.8748 7.02254 46.8795C20.405 46.8795 33.788 46.8795 47.1717 46.8795C48.7767 46.878 50.3156 46.2404 51.4511 45.1064C52.5865 43.9723 53.2258 42.4345 53.2288 40.83C53.2288 29.2651 53.2288 17.7005 53.2288 6.13626C53.2288 2.80846 50.5053 0.100952 47.1622 0.100952ZM48.6542 32.0152C43.8217 33.7375 38.9888 35.4592 34.1556 37.1802C33.1874 37.524 32.7876 37.3232 32.4996 36.344C29.7726 27.0879 27.0501 17.8309 24.3319 8.57292C24.2248 8.20926 24.0856 8.09184 23.6944 8.09373C19.8596 8.11141 16.0243 8.11141 12.1883 8.09373C11.8425 8.09373 11.7146 8.14581 11.7146 8.54072C11.7316 12.455 11.7316 16.3693 11.7146 20.2837C11.7146 20.6445 11.7885 20.7572 12.1731 20.7572C16.2143 20.7411 20.2546 20.7467 24.2987 20.7467C24.942 20.7467 25.1068 20.8954 25.1579 21.5299C25.166 21.6877 25.166 21.8457 25.1579 22.0034C25.139 22.7345 24.9941 22.8756 24.2627 22.8756C20.2376 22.8756 16.2106 22.8804 12.1873 22.8671C11.8273 22.8671 11.7136 22.9391 11.7136 23.3274C11.7294 27.2568 11.7294 31.1857 11.7136 35.1139C11.7136 35.504 11.833 35.5713 12.1873 35.5703C16.2443 35.559 20.3011 35.5564 24.3575 35.5627C25.0424 35.5627 25.1248 35.6347 25.2167 36.326C25.2338 36.4515 25.2404 36.5782 25.2366 36.7048C25.2157 37.5969 25.0718 37.738 24.1945 37.738H10.269C9.37378 37.738 9.07538 37.4445 9.07538 36.5448C9.07538 31.6374 9.07538 26.73 9.07538 21.8226V7.33707C9.07538 7.19502 9.07537 7.05296 9.08011 6.91091C9.118 6.25842 9.44862 5.92413 10.0947 5.92318C15.3365 5.91939 20.5783 5.91687 25.8201 5.9156C26.1725 5.9156 26.3279 6.06807 26.4198 6.38248C28.8986 14.8273 31.3799 23.2712 33.8638 31.7141C34.1035 32.5295 34.3545 33.343 34.5705 34.165C34.6652 34.5116 34.7723 34.5958 35.1389 34.4614C38.3465 33.288 41.5626 32.1365 44.7759 30.9792C45.9607 30.5524 47.1461 30.1272 48.3321 29.7036C48.8456 29.5199 49.0332 29.5966 49.2719 30.0824C49.3272 30.1956 49.3749 30.3123 49.4149 30.4318C49.7616 31.4641 49.6707 31.6563 48.6542 32.0181V32.0152Z" fill="black"/>
<path d="M63.8097 21.2308C63.8097 18.9835 63.8251 16.7361 63.7979 14.4888C63.7979 14.0086 63.9363 13.8974 64.3895 13.9057C66.6766 13.9281 68.9625 13.914 71.252 13.9199C71.4271 13.9199 71.6626 13.8217 71.7253 14.1174C71.8045 14.4604 71.9749 14.7975 71.9146 15.1476C71.8874 15.3097 71.6377 15.2304 71.4898 15.2304C69.5967 15.2304 67.7036 15.2517 65.8105 15.2221C65.3124 15.2139 65.1858 15.3641 65.1964 15.8479C65.2284 17.2069 65.2213 18.5683 65.1964 19.9262C65.1893 20.3047 65.2792 20.4312 65.6815 20.4253C67.2776 20.4005 68.8761 20.4466 70.4699 20.3993C71.0745 20.3816 70.9704 20.7187 70.9668 21.0652C70.9633 21.4118 71.0852 21.7548 70.477 21.7371C68.8821 21.6933 67.2824 21.7371 65.6886 21.7134C65.2899 21.7075 65.1905 21.8317 65.1964 22.2161C65.2161 23.693 65.2161 25.1708 65.1964 26.6493C65.1905 27.0562 65.297 27.1875 65.7194 27.1827C67.7308 27.1614 69.7422 27.1827 71.7537 27.1626C72.2269 27.1626 72.2802 27.2809 72.2056 27.7292C72.1015 28.3525 71.859 28.5418 71.2118 28.5288C68.927 28.4803 66.6399 28.498 64.3492 28.5193C63.9138 28.5193 63.7825 28.4188 63.7872 27.9658C63.8239 25.7231 63.8097 23.477 63.8097 21.2308Z" fill="#010101"/>
<path d="M168.38 24.8726C170.851 23.4426 173.297 21.9724 175.761 20.5317C176.097 20.3354 176.234 20.1852 175.96 19.822C175.685 19.4589 175.432 19.0899 175.082 18.793C173.189 17.1855 169.93 17.2553 167.983 18.9444C165.913 20.7411 165.437 23.9122 166.875 26.1938C168.852 29.333 173.016 29.4785 175.765 27.3932C175.827 27.3469 175.876 27.2849 175.907 27.2134C175.938 27.1419 175.949 27.0636 175.94 26.9863C175.94 26.5558 175.94 26.1252 175.94 25.58C175.065 26.2352 174.283 26.7888 173.369 27.1271C171.415 27.8521 169.346 27.2371 168.214 25.6202C167.965 25.2724 167.971 25.1092 168.38 24.8726ZM167.552 23.9347C167.022 22.2113 168.179 19.9995 170.018 19.2649C171.306 18.7504 172.59 18.7386 173.804 19.5311C174.159 19.7676 174.34 19.9344 173.804 20.2407C171.874 21.349 169.973 22.5035 168.061 23.6401C167.899 23.7348 167.73 23.8341 167.556 23.9347H167.552Z" fill="black"/>
<path d="M130.238 24.83C132.695 23.4201 135.118 21.9511 137.573 20.5329C137.983 20.2963 137.964 20.1189 137.735 19.7747C136.824 18.4014 135.512 17.7781 133.911 17.6456C131.478 17.4481 129.144 18.8343 128.265 21.0131C127.338 23.3148 127.995 26.0105 129.879 27.554C131.978 29.2821 135.207 29.1757 137.553 27.4015C137.61 27.3641 137.657 27.3125 137.688 27.2517C137.72 27.191 137.735 27.1232 137.732 27.0549C137.732 26.6054 137.732 26.156 137.732 25.5669C137.049 26.1422 136.293 26.6243 135.484 27.0005C133.472 27.8935 131.301 27.3553 130.079 25.6994C129.783 25.3126 129.736 25.1163 130.238 24.83ZM129.334 23.9607C128.763 20.8085 131.693 18.1826 134.673 19.0816C134.863 19.1349 135.047 19.2062 135.222 19.2945C135.517 19.4482 135.924 19.5996 135.948 19.919C135.967 20.1674 135.534 20.2632 135.292 20.4087C133.314 21.5879 131.345 22.7601 129.33 23.9607H129.334Z" fill="black"/>
<path d="M154.202 21.0534C154.199 20.6404 154.157 20.2286 154.077 19.8233C153.849 18.6263 153.117 17.9154 151.92 17.6942C150.604 17.4505 149.331 17.6587 148.076 18.0585C147.999 18.074 147.927 18.1094 147.868 18.1613C147.809 18.2132 147.764 18.2797 147.739 18.3542C147.611 18.7587 147.469 19.1585 147.33 19.5713C147.585 19.6352 147.745 19.4956 147.922 19.4282C148.96 19.0249 150.017 18.7351 151.146 18.8368C152.016 18.916 152.586 19.3241 152.779 20.0598C152.923 20.6739 152.957 21.3085 152.881 21.9346C150.369 20.4762 148.396 20.6548 147.011 22.4385C146.428 23.1951 146.138 24.1365 146.193 25.0898C146.249 26.0432 146.646 26.9446 147.313 27.6286C148.462 28.8185 150.835 29.4584 152.907 27.6286C152.907 27.974 152.907 28.2047 152.907 28.4353C152.907 28.5536 152.874 28.6778 153.009 28.7464C153.364 28.9238 154.208 28.4152 154.209 28.0249C154.209 25.7042 154.214 23.38 154.202 21.0534ZM150.24 27.5198C148.685 27.4938 147.543 26.3559 147.548 24.8372C147.553 23.3185 148.71 22.1877 150.269 22.183C151.796 22.183 152.888 23.2771 152.902 24.836C152.916 26.395 151.784 27.5482 150.24 27.5198Z" fill="black"/>
<path d="M104.052 27.0301C103.767 27.3389 103.605 27.5352 103.422 27.7091C102.172 28.8919 100.7 29.0859 99.141 28.5477C97.6561 28.0355 96.9947 26.8113 96.9379 25.347C96.8456 22.9672 96.9 20.5826 96.8799 18.2005C96.8799 17.9367 96.9828 17.8456 97.2159 17.8397C97.3356 17.8392 97.4547 17.8245 97.5709 17.7959C98.0631 17.654 98.2453 17.7604 98.2335 18.3388C98.1921 20.326 98.2181 22.3155 98.2169 24.3049C98.214 24.7775 98.2753 25.2482 98.3991 25.7042C98.8724 27.4252 100.545 28.1976 102.16 27.4122C103.462 26.7806 104.061 25.7018 104.054 24.2671C104.054 22.2977 104.069 20.3283 104.044 18.3601C104.033 17.5227 104.683 17.8551 105.047 17.7687C105.559 17.6504 105.347 18.1177 105.347 18.3246C105.361 21.5332 105.361 24.7426 105.347 27.9527C105.347 28.1491 105.476 28.4448 105.195 28.5205C104.851 28.6044 104.498 28.6441 104.144 28.6388C104.039 28.6388 104.048 28.4448 104.048 28.3277L104.052 27.0301Z" fill="black"/>
<path d="M157.504 19.3017C157.762 19.0344 157.918 18.8628 158.085 18.7032C158.669 18.1509 159.401 17.781 160.192 17.6387C160.984 17.4965 161.799 17.5881 162.539 17.9024C163.851 18.4832 164.499 19.5796 164.545 20.9387C164.628 23.3587 164.6 25.7823 164.577 28.2047C164.571 28.8801 163.938 28.5264 163.604 28.6293C163.191 28.7571 163.319 28.3644 163.318 28.1704C163.308 26.1998 163.311 24.2304 163.318 22.2563C163.325 21.7043 163.261 21.1536 163.126 20.6181C162.504 18.2525 159.657 18.2762 158.393 19.6719C157.817 20.2773 157.5 21.0835 157.508 21.9192C157.518 23.9679 157.508 26.0165 157.508 28.0699C157.508 28.2496 157.592 28.5051 157.299 28.543C156.953 28.582 156.607 28.7157 156.26 28.6033C156.209 28.5867 156.199 28.3892 156.199 28.2757C156.199 24.9267 156.196 21.5782 156.191 18.23C156.191 17.9935 156.252 17.8882 156.501 17.8362C157.514 17.6244 157.512 17.615 157.512 18.6334L157.504 19.3017Z" fill="#010101"/>
<path d="M81.5471 18.2087L81.2773 18.5635C80.2574 19.8918 79.2493 21.2308 78.201 22.5401C77.923 22.8891 77.8792 23.0996 78.1868 23.4722C79.3191 24.8372 80.3935 26.2494 81.5128 27.6251C81.7683 27.9385 81.8287 28.1313 81.4098 28.3052C81.2988 28.3476 81.196 28.4088 81.1057 28.4861C80.7614 28.8031 80.5615 28.6482 80.3177 28.3276C79.3653 27.0715 78.3856 25.8366 77.4166 24.5935C76.9504 23.995 76.9539 23.995 76.5185 24.5852C75.5814 25.8532 74.6254 27.1105 73.712 28.3915C73.2068 29.1012 72.9725 28.3205 72.6388 28.2105C72.1951 28.0651 72.5323 27.8131 72.6625 27.6381C73.7191 26.2187 74.7769 24.7898 75.8571 23.3799C76.0807 23.089 76.0784 22.9068 75.8453 22.63C74.8017 21.3703 73.7818 20.0917 72.7548 18.819C72.3052 18.2619 72.3064 18.2607 72.9193 17.9508C73.0102 17.9137 73.0977 17.8686 73.1807 17.816C73.4671 17.6019 73.6434 17.6871 73.8528 17.9627C74.7828 19.1869 75.7459 20.3851 76.6794 21.6057C76.9161 21.9121 77.0344 21.9736 77.2971 21.6057C78.2081 20.3673 79.1641 19.1632 80.0906 17.939C80.2539 17.7225 80.397 17.5901 80.6656 17.7557C80.9342 17.9213 81.3057 17.939 81.5471 18.2087Z" fill="black"/>
<path d="M110.36 17.5995C111.432 17.5727 112.483 17.8976 113.353 18.5244C113.663 18.7374 113.731 18.9313 113.439 19.2081C113.325 19.3172 113.227 19.4428 113.15 19.5807C112.978 19.8835 112.812 19.8646 112.559 19.6552C111.793 19.0366 110.932 18.709 109.926 18.8698C109.453 18.935 109.02 19.1695 108.706 19.5298C108.097 20.2336 108.193 21.1538 108.943 21.6932C109.416 22.0315 109.965 22.1853 110.52 22.3319C110.962 22.4394 111.396 22.5737 111.822 22.7341C113.195 23.2888 113.86 24.1984 113.863 25.4758C113.871 26.1407 113.677 26.7923 113.305 27.3438C112.934 27.8954 112.403 28.3206 111.784 28.563C110.208 29.2159 108.091 28.7605 106.913 27.5316C106.652 27.2595 106.537 27.0419 106.928 26.8006C107.026 26.7338 107.112 26.6501 107.181 26.5534C107.418 26.2352 107.618 26.221 107.919 26.5344C108.678 27.3198 109.627 27.638 110.715 27.4996C111.804 27.3612 112.468 26.5711 112.42 25.4699C112.419 25.2123 112.348 24.9599 112.215 24.7397C112.081 24.5194 111.89 24.3397 111.662 24.2197C111.263 24.005 110.837 23.8458 110.395 23.7466C109.786 23.5873 109.187 23.3898 108.603 23.1552C106.405 22.3023 106.509 19.4187 108.149 18.2974C108.794 17.8366 109.568 17.5923 110.36 17.5995Z" fill="black"/>
<path d="M87.7084 28.7735C84.4357 28.7735 81.9983 26.2589 82.106 22.9955C82.2125 19.7794 84.8888 17.4091 88.1403 17.6397C89.2852 17.7 90.3972 18.0439 91.3763 18.6404C91.6532 18.8119 91.7549 18.9621 91.4757 19.2069C91.4625 19.2215 91.4503 19.237 91.439 19.2531C90.9125 19.9249 90.9125 19.9249 90.1765 19.5322C87.4942 18.101 84.4274 19.227 83.6418 21.97C83.191 23.5408 83.5081 24.9743 84.6759 26.1666C85.8898 27.4062 87.3475 27.7587 89.0087 27.3116C89.546 27.1787 90.0548 26.9495 90.5102 26.635C90.858 26.3842 91.0308 26.4765 91.2651 26.7805C91.8259 27.5067 91.8448 27.5032 91.0497 27.9183C90.0014 28.466 88.9046 28.8208 87.7084 28.7735Z" fill="black"/>
<path d="M139.473 21.1905C139.473 19.0047 139.495 16.8141 139.458 14.6354C139.447 14.0594 139.595 13.8843 140.175 13.8216C140.754 13.7589 140.9 13.8394 140.896 14.4426C140.868 18.4582 140.896 22.4751 140.867 26.4907C140.867 27.0573 141.036 27.1685 141.557 27.1555C142.895 27.12 144.234 27.1555 145.579 27.1377C145.918 27.1377 146.067 27.1921 145.896 27.5541C145.801 27.7486 145.729 27.9539 145.682 28.1656C145.623 28.4637 145.446 28.5204 145.177 28.5204C143.424 28.5122 141.671 28.5051 139.919 28.5204C139.534 28.5204 139.469 28.3844 139.472 28.0402C139.479 25.7574 139.473 23.4734 139.473 21.1905Z" fill="#010101"/>
<path d="M122.696 28.8339C121.108 25.496 119.57 22.2657 118.033 19.0343C118.007 18.981 117.986 18.9255 117.96 18.8722C117.541 17.9958 117.664 17.8077 118.658 17.6894C119.004 17.648 118.989 17.9153 119.067 18.0821C120.132 20.3295 121.172 22.5768 122.223 24.8159C122.37 25.1293 122.522 25.4404 122.716 25.8437L125.387 20.1272C125.679 19.5027 126.026 18.8982 126.252 18.2513C126.453 17.674 126.744 17.648 127.263 17.7982C127.727 17.9331 127.855 18.0348 127.618 18.5221C126.051 21.7855 124.514 25.0642 122.966 28.3395C122.902 28.4755 122.819 28.6079 122.696 28.8339Z" fill="black"/>
<path d="M94.7986 21.032C94.7986 23.3362 94.7986 25.645 94.7986 27.9444C94.7986 28.1431 94.9169 28.4412 94.6566 28.5192C94.2987 28.6273 93.9247 28.6722 93.5515 28.6517C93.387 28.6411 93.4687 28.3442 93.4675 28.1786C93.4627 25.8556 93.4627 23.5317 93.4675 21.2071C93.4675 18.8415 93.4829 16.4759 93.4592 14.1173C93.4509 13.2704 94.1028 13.6347 94.4685 13.533C94.9689 13.3946 94.7997 13.8394 94.7997 14.0606C94.8033 16.3836 94.7986 18.7078 94.7986 21.032Z" fill="#010101"/>
<path d="M115.606 23.2617C115.606 21.646 115.606 20.0295 115.606 18.4122C115.606 17.8515 115.786 17.7475 116.671 17.7463C117.187 17.7463 116.962 18.1319 116.963 18.3377C116.978 21.5478 116.978 24.758 116.963 27.9681C116.963 28.1633 117.082 28.4578 116.798 28.5276C116.437 28.617 116.064 28.6532 115.693 28.6352C115.539 28.627 115.609 28.3632 115.609 28.2153C115.605 26.5634 115.604 24.9121 115.606 23.2617Z" fill="#020202"/>
<path d="M65.2477 33.4504C64.5177 33.4504 63.7876 33.4256 63.06 33.4599C62.647 33.4788 62.6033 33.2801 62.6305 32.9619C62.6541 32.6875 62.5228 32.3705 63.0328 32.3776C64.5504 32.4036 66.0684 32.4036 67.5869 32.3776C68.0885 32.3705 67.9679 32.6863 67.9927 32.969C68.0235 33.3026 67.9501 33.4776 67.5537 33.4634C66.7858 33.4339 66.0168 33.4504 65.2477 33.4504Z" fill="#040404"/>
<path d="M73.8623 32.387C74.6101 32.387 75.3579 32.4107 76.1104 32.3775C76.6002 32.3562 76.5115 32.6638 76.5269 32.9536C76.5446 33.2694 76.5103 33.4645 76.0997 33.4586C74.5864 33.4361 73.072 33.4338 71.5575 33.4586C71.0688 33.4657 71.1564 33.1736 71.141 32.8838C71.1244 32.5691 71.1564 32.361 71.5681 32.3763C72.3277 32.4071 73.0956 32.387 73.8623 32.387Z" fill="#040404"/>
<path d="M82.4261 32.387C83.1526 32.387 83.8803 32.4095 84.6044 32.3776C85.0161 32.3587 85.0587 32.5585 85.0303 32.8755C85.0067 33.1476 85.1404 33.4669 84.6328 33.4587C83.1223 33.4334 81.6109 33.4334 80.0988 33.4587C79.6255 33.4669 79.6752 33.2103 79.6622 32.9027C79.648 32.5538 79.6977 32.3563 80.1355 32.3752C80.8986 32.4119 81.6606 32.387 82.4261 32.387Z" fill="#040404"/>
<path d="M90.8371 33.4504C90.1095 33.4504 89.3794 33.4208 88.653 33.4611C88.2128 33.4859 88.169 33.2801 88.1868 32.9359C88.201 32.639 88.1323 32.3658 88.6163 32.3752C90.1308 32.406 91.6476 32.4024 93.1621 32.3752C93.6602 32.3681 93.5478 32.6769 93.5691 32.9572C93.5928 33.2789 93.5454 33.4717 93.1384 33.4563C92.3753 33.4339 91.6027 33.4504 90.8371 33.4504Z" fill="#040404"/>
<path d="M167.582 33.4505C166.834 33.4505 166.085 33.4268 165.334 33.4588C164.916 33.4765 164.894 33.2648 164.911 32.9549C164.929 32.6698 164.826 32.3635 165.323 32.3777C166.839 32.4037 168.356 32.4001 169.872 32.3777C170.285 32.3718 170.316 32.5693 170.3 32.8839C170.283 33.1713 170.375 33.4753 169.882 33.4588C169.119 33.4256 168.35 33.4505 167.582 33.4505Z" fill="#040404"/>
<path d="M124.973 32.3871C125.74 32.3871 126.511 32.4072 127.272 32.3788C127.715 32.3623 127.68 32.626 127.669 32.9099C127.66 33.1689 127.762 33.4635 127.295 33.4575C125.757 33.4374 124.23 33.4351 122.696 33.4575C122.251 33.4646 122.3 33.2151 122.296 32.9324C122.296 32.6201 122.262 32.354 122.732 32.3764C123.477 32.4131 124.226 32.3871 124.973 32.3871Z" fill="#040404"/>
<path d="M142.053 32.3871C142.801 32.3871 143.55 32.4119 144.295 32.3776C144.78 32.3563 144.708 32.652 144.718 32.9477C144.727 33.2434 144.734 33.467 144.304 33.4599C142.789 33.4346 141.274 33.4346 139.759 33.4599C139.335 33.467 139.326 33.2588 139.344 32.9536C139.359 32.6721 139.253 32.3551 139.752 32.3776C140.517 32.4119 141.287 32.3871 142.053 32.3871Z" fill="#040404"/>
<path d="M99.3698 33.4504C98.6232 33.4504 97.8755 33.4255 97.13 33.4587C96.6958 33.4788 96.7135 33.2386 96.7183 32.9441C96.723 32.6496 96.6698 32.3693 97.1454 32.3776C98.6583 32.402 100.172 32.402 101.685 32.3776C102.178 32.3705 102.079 32.6721 102.097 32.9571C102.118 33.2753 102.077 33.474 101.669 33.4587C100.903 33.4338 100.137 33.4504 99.3698 33.4504Z" fill="#040404"/>
<path d="M107.927 33.4503C107.178 33.4503 106.428 33.4267 105.679 33.4586C105.27 33.4764 105.225 33.2824 105.248 32.9618C105.27 32.6791 105.161 32.3704 105.658 32.3775C107.175 32.402 108.693 32.402 110.212 32.3775C110.73 32.3693 110.567 32.704 110.601 32.9689C110.637 33.293 110.58 33.4787 110.172 33.4598C109.426 33.4255 108.676 33.4503 107.927 33.4503Z" fill="#040404"/>
<path d="M116.468 32.387C117.195 32.387 117.925 32.4142 118.651 32.3764C119.113 32.3527 119.148 32.5704 119.146 32.9382C119.145 33.3061 119.1 33.4669 118.673 33.4598C117.199 33.4338 115.723 33.4303 114.248 33.4598C113.784 33.4705 113.768 33.267 113.756 32.9039C113.743 32.4935 113.865 32.3575 114.282 32.3764C115.011 32.4107 115.74 32.387 116.468 32.387Z" fill="#040404"/>
<path d="M133.512 32.3871C134.261 32.3871 135.012 32.419 135.76 32.3753C136.268 32.3457 136.172 32.6544 136.175 32.9395C136.179 33.2245 136.24 33.4694 135.784 33.4611C134.286 33.4315 132.788 33.4339 131.287 33.4611C130.854 33.4694 130.827 33.2778 130.821 32.9336C130.821 32.5551 130.871 32.354 131.325 32.3776C132.052 32.4143 132.783 32.3871 133.512 32.3871Z" fill="#040404"/>
<path d="M150.535 33.4504C149.789 33.4504 149.041 33.4279 148.294 33.4586C147.88 33.4752 147.855 33.2635 147.872 32.9524C147.886 32.6626 147.8 32.3693 148.288 32.3776C149.802 32.402 151.315 32.402 152.828 32.3776C153.31 32.3693 153.241 32.652 153.251 32.9489C153.26 33.2457 153.265 33.4788 152.834 33.4598C152.069 33.4255 151.298 33.4504 150.535 33.4504Z" fill="#040404"/>
<path d="M159.115 33.4505C158.366 33.4505 157.617 33.4256 156.867 33.4599C156.443 33.4788 156.394 33.2943 156.394 32.9383C156.394 32.5823 156.428 32.367 156.889 32.3765C158.366 32.4048 159.847 32.4084 161.322 32.3765C161.816 32.3658 161.734 32.6438 161.747 32.9359C161.762 33.2612 161.759 33.493 161.3 33.4646C160.575 33.4173 159.844 33.4493 159.115 33.4505Z" fill="#040404"/>
<path d="M174.873 33.4504C174.618 33.4338 174.363 33.4362 174.109 33.4575C173.555 33.5391 173.39 33.312 173.437 32.7786C173.465 32.471 173.556 32.374 173.857 32.3799C174.542 32.3965 175.23 32.406 175.914 32.3799C176.362 32.361 176.311 32.639 176.303 32.9146C176.295 33.1902 176.394 33.4918 175.93 33.4575C175.58 33.4338 175.225 33.4504 174.873 33.4504Z" fill="#060606"/>
<path d="M117.222 14.4888C117.231 14.5728 116.413 15.5959 116.322 15.616C116.231 15.6361 115.365 14.788 115.351 14.6532C115.34 14.5586 116.148 13.5343 116.246 13.5189C116.345 13.5035 117.205 14.3551 117.222 14.4888Z" fill="#040404"/>
</svg>
