<svg width="131" height="41" viewBox="0 0 131 41" fill="none" xmlns="http://www.w3.org/2000/svg">
<path d="M128.574 7.07056C128.148 7.10424 127.85 7.34567 127.626 7.68816C127.418 8.00257 127.238 8.32822 127.019 8.6314C126.042 10.0126 124.745 10.6358 123.044 10.2821C122.404 10.1473 121.764 10.0238 121.124 9.90029C120.753 9.788 120.388 9.67571 120.018 9.55781C119.63 9.43429 119.63 9.43429 119.675 9.01881C119.703 8.7437 119.81 8.47981 119.771 8.19908C119.776 8.12609 119.788 8.05311 119.799 7.98012C119.911 7.80606 119.894 7.60956 119.883 7.41305C119.889 7.37374 119.889 7.34006 119.894 7.30075C120.023 7.00318 120.04 6.7 119.922 6.3912C119.653 5.16722 118.171 4.36995 116.992 4.81912C116.436 5.02686 116.121 5.40303 116.054 6.01502C115.981 6.66069 115.841 7.30075 115.745 7.94081C115.711 8.1654 115.622 8.22154 115.414 8.15978C115.004 8.04749 114.594 7.91836 114.167 7.87905C113.235 7.6264 112.292 7.46358 111.332 7.41866C110.804 7.3962 110.265 7.34006 109.749 7.50288H109.743C108.609 7.57025 107.604 7.99135 106.717 8.66509C106.021 9.19286 105.381 9.79362 105.083 10.6583C105.01 10.7256 104.988 10.8099 104.96 10.9053C104.774 11.5903 104.965 12.1686 105.482 12.4661C105.959 12.7469 106.633 12.5897 107.093 12.0956C107.351 11.8205 107.537 11.5004 107.666 11.1467C107.935 10.4 108.34 9.74309 108.94 9.21532C109.227 9.0918 109.507 8.97389 109.794 8.85037C110.681 8.7437 111.568 8.83353 112.449 8.87845C112.635 8.98512 112.842 8.97389 113.045 8.97389C113.561 9.12549 114.083 9.24339 114.617 9.31077C114.735 9.42306 114.892 9.41183 115.038 9.45113C115.481 9.57465 115.476 9.57465 115.431 10.0407C115.307 11.2815 115.077 12.5111 115.06 13.7631C115.049 13.7912 115.038 13.8193 115.038 13.8473C114.925 14.2909 114.953 14.7457 114.953 15.2004C114.931 15.2903 114.914 15.3745 114.903 15.4643C114.903 15.4756 114.897 15.4924 114.897 15.5036C114.819 16.0482 114.847 16.5985 114.841 17.1431C114.69 18.2716 114.729 19.4057 114.729 20.5343L114.706 20.5623L114.729 20.5904C114.706 20.6971 114.673 20.8038 114.667 20.9161C114.639 22.1737 114.662 23.4314 114.751 24.689C114.718 24.8013 114.723 24.9136 114.757 25.0259C114.718 25.593 114.785 26.1544 114.864 26.7103C114.858 26.7833 114.858 26.8619 114.852 26.9405C114.824 26.9686 114.807 27.0022 114.813 27.0415C114.746 27.1033 114.729 27.1819 114.735 27.2717C114.617 27.4009 114.549 27.5581 114.516 27.7265C114.482 27.7546 114.465 27.7883 114.448 27.8276C114.431 27.8669 114.414 27.9062 114.398 27.9455C114.246 28.1645 114.094 28.3778 113.943 28.5968C113.881 28.6248 113.842 28.6642 113.831 28.7315C113.275 29.22 112.713 29.7028 112.051 30.0453C111.91 30.1183 111.77 30.2475 111.602 30.0846C111.602 29.9836 111.59 29.8937 111.506 29.8264C111.517 29.7927 111.506 29.7702 111.478 29.7478C111.416 29.686 111.383 29.6074 111.377 29.5232C111.355 29.3491 111.276 29.1919 111.158 29.0628C111.147 29.0291 111.13 28.9898 111.113 28.9561C111.091 28.9168 111.063 28.8831 111.04 28.8438C110.765 28.2487 110.389 27.7265 109.917 27.2717C109.743 27.0022 109.53 26.772 109.272 26.5811C109.255 26.5138 109.21 26.4689 109.148 26.4464C108.952 26.1713 108.727 25.9299 108.452 25.7277L108.435 25.7109C108.424 25.6547 108.396 25.6267 108.34 25.6154C108.199 25.4189 108.036 25.2505 107.829 25.1214C107.239 24.5038 106.633 23.903 105.981 23.3472C105.718 23.0159 105.409 22.7183 105.083 22.4544C104.858 22.1849 104.64 21.9211 104.415 21.6572C104.23 21.2978 104.028 20.9441 103.859 20.5736C103.477 19.7426 103.46 18.8555 103.5 17.9628C103.567 17.7663 103.623 17.5698 103.696 17.3789C103.96 16.6939 104.482 16.3065 105.201 16.3233C106.374 16.357 107.396 16.7444 108.014 17.8449C108.261 18.7151 108.003 19.4282 107.391 20.0739C106.93 20.5567 106.992 21.1968 107.469 21.7695C107.823 22.1737 108.272 22.2411 108.733 22.039C109.176 21.8425 109.457 21.4719 109.575 20.9947C109.85 20.3939 109.827 19.7538 109.777 19.1306C109.709 18.3502 109.547 17.5866 109.019 16.9522C108.985 16.8174 108.901 16.7164 108.783 16.6378C108.727 16.5648 108.682 16.4806 108.615 16.4188C106.402 14.2347 102.983 14.7962 101.327 16.6209C100.153 17.9123 99.9121 19.445 100.159 21.107C100.17 21.5786 100.299 22.0221 100.496 22.4488C100.541 22.7015 100.625 22.9373 100.794 23.1338C100.805 23.1675 100.822 23.2012 100.838 23.2349C100.979 23.6616 101.372 24.0321 101.136 24.5431C100.805 25.6323 100.468 26.7215 100.131 27.8051C100.047 27.8725 100.03 27.9623 100.036 28.0578C99.9121 28.2262 99.8447 28.4171 99.811 28.6192C99.4011 29.5176 98.9913 30.4215 98.5814 31.3198C98.093 32.0946 97.5989 32.8695 97.1104 33.6443C97.0486 33.6667 97.015 33.7116 97.0093 33.779V33.7846C96.6163 34.1608 96.2794 34.5987 95.8134 34.9075C95.5608 35.0704 95.3025 35.1995 94.9937 35.1377C94.8421 34.9693 94.7467 34.7616 94.6849 34.5482C94.6007 34.245 94.5277 33.9418 94.4491 33.633C94.4379 32.2687 94.4266 30.8987 94.4154 29.5288C94.4154 29.4558 94.4154 29.3772 94.421 29.3042C94.4659 28.5575 94.567 27.8107 94.5389 27.0584C94.6961 26.0871 94.7804 25.1101 94.8646 24.1332C94.9656 23.4875 95.0667 22.8475 95.1621 22.2018C95.3025 21.2249 95.5832 20.276 95.7685 19.3103C95.7966 19.2822 95.8022 19.2485 95.7854 19.2148C95.9089 19.0015 95.9706 18.7713 95.9931 18.5299H95.9875C95.9819 18.5243 95.9763 18.513 95.9706 18.4962C95.965 18.4737 95.9763 18.4569 96.0099 18.44C96.1615 18.1312 96.1559 17.8224 96.0043 17.5136C95.8752 16.9353 95.4822 16.5816 94.9881 16.3121C94.3986 15.8742 93.7585 15.7282 93.0511 15.964C92.6019 16.1156 92.2763 16.3907 92.1808 16.8792C92.1415 17.0757 92.0405 17.2666 92.0517 17.4743C91.8832 17.901 91.7766 18.3446 91.7204 18.7994C91.6418 18.8443 91.6418 18.9846 91.5127 18.9734C91.5015 18.9397 91.4958 18.9004 91.4846 18.8611C91.4958 18.7994 91.4678 18.7488 91.4116 18.7208C91.4229 18.6871 91.4116 18.659 91.3835 18.6365C91.3948 18.5804 91.3836 18.5355 91.3218 18.513C91.0635 17.8617 90.6817 17.3115 90.0473 16.9746C89.8564 16.8062 89.615 16.7725 89.3792 16.722C87.8071 16.4188 86.381 16.7894 85.0952 17.6989C83.6467 18.7208 82.7259 20.1412 82.0746 21.7582C82.069 21.7639 82.0634 21.7695 82.0578 21.7807C81.8949 22.0165 81.7995 22.2804 81.7434 22.5611L81.7153 22.5836L81.7265 22.6173C81.6367 22.6959 81.6254 22.7913 81.6311 22.9036L81.6086 22.9261L81.6198 22.9598C81.5356 23.0327 81.5188 23.1338 81.53 23.2405C81.5019 23.2629 81.4963 23.291 81.5075 23.3247C81.2044 24.122 81.0415 24.9585 80.9517 25.8063C80.9349 25.8681 80.918 25.9355 80.9012 26.0028C80.7945 26.5025 80.8057 27.0247 80.6148 27.5075C80.0365 28.9505 79.4302 30.3766 78.6946 31.7409C78.4813 32.0441 78.2736 32.3529 78.0602 32.6561C77.4258 33.5432 76.7127 34.3517 75.7695 34.93C74.9385 35.4409 74.057 35.643 73.0913 35.3904C72.5523 35.076 72.2154 34.5875 72.0021 34.0148C71.8337 33.5657 71.6877 33.1053 71.5305 32.6505C71.4968 32.2631 71.435 31.8869 71.3115 31.5163C71.3003 31.4546 71.289 31.3872 71.2834 31.3255C71.289 31.1289 71.2947 30.938 71.188 30.7584C71.2329 30.3148 71.0925 29.8657 71.2048 29.4221C71.3115 29.3884 71.4182 29.3604 71.5192 29.3154C73.1868 28.5631 74.3546 27.2886 75.2249 25.7165C75.281 25.6997 75.3091 25.6604 75.3035 25.5986C75.3203 25.5649 75.3371 25.5312 75.354 25.4919C75.5112 25.3291 75.6066 25.1382 75.6684 24.9249C75.747 24.8687 75.7807 24.7957 75.7751 24.7003C76.286 23.83 76.5443 22.8812 76.6622 21.8874C76.8699 21.0452 76.8475 20.1974 76.6902 19.3496C76.5836 18.7713 76.3534 18.2548 75.9323 17.8337C75.6179 17.3677 75.1462 17.1543 74.6185 17.0869C73.3889 16.9409 72.2491 17.1824 71.2329 17.9179C69.9865 18.8274 69.0937 20.0233 68.4986 21.4382C67.7294 23.0664 67.3308 24.7845 67.2353 26.5755C67.2241 26.6429 67.2129 26.7103 67.2073 26.7777C67.0894 27.5805 67.1062 28.3834 67.2578 29.1863C67.2971 29.7983 67.4206 30.3934 67.6003 30.9773C67.6059 31.2019 67.6733 31.4041 67.7912 31.5893C67.808 31.6455 67.8192 31.7072 67.8361 31.7634C68.0326 32.4034 68.2853 33.021 68.6895 33.5657C68.785 33.8295 68.9365 34.0485 69.1331 34.245C69.7731 35.2051 70.6265 35.8789 71.7158 36.2663C73.3608 37.0523 74.9722 36.9625 76.505 36.008C77.9142 35.1321 78.9305 33.8801 79.7165 32.4371C80.0814 31.9543 80.3116 31.3872 80.6148 30.8707C80.8563 30.7415 80.8956 30.9212 80.9292 31.084C81.0135 31.4995 81.0303 31.9206 81.1931 32.3192C81.3223 32.9144 81.5132 33.4927 81.8444 34.0092C82.1364 34.6942 82.5799 35.2556 83.1751 35.7048C83.5007 36.0922 83.9499 36.2719 84.4159 36.4066C85.7914 36.8053 86.9874 36.5807 87.9194 35.396C88.4528 34.7223 88.9356 34.0261 89.2556 33.2232C89.3792 33.0547 89.4746 32.8751 89.5083 32.6673C89.5644 32.6449 89.5813 32.6 89.5757 32.5438C89.9855 31.7353 90.2045 30.8538 90.6256 30.0285C90.7491 30.5731 90.7884 31.1233 90.9625 31.6511C90.9512 31.7746 90.9568 31.8925 91.0523 31.9936C91.0804 32.0104 91.0916 32.0385 91.0916 32.061C91.0916 32.061 91.0916 32.061 91.0916 32.0666C91.0916 32.0722 91.086 32.0834 91.0804 32.0946C91.0804 32.0946 91.0747 32.1003 91.0747 32.1059C91.0804 32.3529 91.1534 32.5775 91.2713 32.7908C91.3723 33.313 91.5744 33.7902 91.8552 34.2394C92.0517 34.7279 92.3436 35.1377 92.7535 35.4746C93.1634 35.9462 93.6687 36.255 94.275 36.3954C95.0555 36.6649 95.7798 36.5077 96.4535 36.0697C97.3518 35.4915 98.0143 34.6942 98.559 33.7902C99.0643 33.1277 99.491 32.4259 99.8166 31.6623C100.271 30.8763 100.648 30.0566 100.934 29.1919C100.962 29.1807 100.968 29.1582 100.956 29.1302C100.956 29.0684 101.001 29.0235 101.035 28.9729C101.063 28.9449 101.074 28.9112 101.063 28.8719C101.086 28.8326 101.108 28.7877 101.13 28.7484C101.316 28.3048 101.518 27.8669 101.63 27.4009C101.933 26.8282 101.978 26.1601 102.281 25.5649C102.416 25.6716 102.512 25.7502 102.607 25.8344C102.899 26.2499 103.253 26.6204 103.64 26.9461C103.893 27.2886 104.19 27.5918 104.527 27.85C104.92 28.288 105.336 28.6978 105.779 29.0796C105.965 29.3379 106.178 29.5681 106.425 29.7646C106.728 30.1745 107.037 30.5843 107.34 30.9886C107.335 31.0447 107.357 31.0896 107.413 31.1121C107.413 31.1514 107.424 31.1851 107.452 31.2132C107.363 31.3367 107.228 31.3142 107.104 31.3367C106.47 31.4658 105.807 31.4265 105.184 31.6399C105.173 31.6399 105.167 31.6455 105.156 31.6511C105.061 31.6623 104.965 31.6736 104.87 31.6848C104.746 31.6679 104.623 31.6792 104.522 31.769C104.449 31.7802 104.381 31.7858 104.308 31.7971C104.207 31.7858 104.117 31.7915 104.044 31.8701C103.067 31.9992 102.135 32.2799 101.333 32.847C99.9682 33.8071 99.2102 35.0816 99.5078 36.8221C99.491 36.9512 99.4966 37.0804 99.592 37.1814C99.5808 37.2151 99.5864 37.2432 99.6089 37.2657C99.6819 37.7317 99.884 38.1359 100.182 38.5009C100.372 38.8658 100.67 39.1185 101.024 39.315C101.159 39.4778 101.349 39.5508 101.529 39.6462C102.018 39.9157 102.562 40.0224 103.096 40.1572C103.494 40.1628 103.893 40.1684 104.297 40.174C104.348 40.1515 104.398 40.1235 104.454 40.1122C105.925 39.8989 107.233 39.27 108.429 38.4222C109.743 37.4902 110.793 36.3224 111.377 34.7896C111.388 34.7559 111.399 34.7223 111.411 34.683C111.489 34.6268 111.512 34.5482 111.501 34.4584C111.68 34.1047 111.781 33.7341 111.821 33.3411C111.916 33.0098 111.989 32.6729 111.944 32.3192C111.955 32.2294 111.983 32.1339 111.967 32.0441C111.894 31.6399 112.073 31.4153 112.449 31.3142C112.539 31.2918 112.618 31.2412 112.702 31.1963C113.567 30.7191 114.403 30.2082 114.982 29.3772C115.156 29.3716 115.178 29.4951 115.206 29.6242C115.279 30.0004 115.318 30.3822 115.459 30.7415C115.436 30.9044 115.492 31.0503 115.565 31.1963C115.594 31.5107 115.695 31.8027 115.807 32.089C115.796 32.1452 115.812 32.1901 115.863 32.2182C115.857 32.2575 115.869 32.2912 115.891 32.3192C115.885 32.4091 115.897 32.4877 115.964 32.5494C115.987 32.6168 116.003 32.6898 116.026 32.7572C116.312 33.7004 116.778 34.5482 117.407 35.3006C117.985 35.9911 118.698 36.4796 119.602 36.6593C120.254 36.7547 120.905 36.867 121.511 36.4796C121.854 36.3786 122.073 36.1203 122.297 35.8732C122.814 35.3062 123.224 34.6549 123.6 33.9867C124.779 31.8701 125.475 29.5569 126.267 27.283C126.278 27.2493 126.295 27.21 126.301 27.1763C126.368 26.7945 126.166 26.5194 125.778 26.4632C125.391 26.4127 125.194 26.5362 125.037 26.9742C124.723 27.85 124.42 28.7371 124.105 29.613C123.493 31.303 122.769 32.9368 121.814 34.464C121.657 34.7166 121.483 34.9637 121.259 35.1658C120.838 35.542 120.484 35.542 120.074 35.1546C119.793 34.8963 119.625 34.5594 119.484 34.2113C119.265 33.6723 119.142 33.1053 119.046 32.5326C118.923 31.8195 118.822 31.1009 118.715 30.3822C118.698 29.9162 118.738 29.4502 118.625 28.9898C118.62 28.9617 118.609 28.928 118.603 28.9C118.625 28.8775 118.625 28.855 118.603 28.8382C118.592 27.0079 118.58 25.1719 118.569 23.3415C118.603 23.19 118.609 23.044 118.58 22.8924V22.7745C118.58 22.7015 118.58 22.6285 118.58 22.5499C118.648 21.8032 118.721 21.0564 118.693 20.3041C118.704 20.0795 118.715 19.8605 118.726 19.6359C118.839 19.2317 118.822 18.8106 118.811 18.4007C118.878 17.9123 118.951 17.4294 118.917 16.9353C118.962 16.4918 119.052 16.0482 119.024 15.5935C119.08 15.032 119.187 14.4762 119.148 13.9035C119.265 12.8536 119.389 11.8092 119.507 10.7649C119.765 10.8099 120.018 10.8548 120.276 10.8941C121.405 11.3039 122.572 11.5117 123.757 11.6857C124.902 11.8542 126.031 11.7699 127.137 11.4275C128.479 11.0064 129.349 10.0575 129.899 8.81668C130.287 7.85098 129.624 6.98072 128.574 7.07056ZM71.1543 26.7159C71.1543 26.7103 71.1543 26.7047 71.1543 26.6991C71.2217 26.1657 71.2834 25.6323 71.3508 25.0989C71.3564 25.0371 71.3677 24.981 71.3733 24.9192C71.5024 24.2455 71.6203 23.5717 71.7719 22.9036C72.0246 21.7807 72.4063 20.7027 72.8948 19.6584C72.9117 19.6359 72.9285 19.6135 72.9453 19.5854C73.0969 19.3664 73.2373 19.1475 73.4057 18.9397C73.9616 18.266 74.3939 18.2211 75.0901 18.7488C75.1013 18.7713 75.1126 18.7881 75.1238 18.8106C75.455 19.49 75.528 20.2142 75.4663 20.961C75.4494 21.1856 75.4326 21.4045 75.4214 21.6291C75.3933 21.7414 75.3596 21.8537 75.3315 21.966C75.1013 22.825 74.8711 23.6896 74.4276 24.4757C74.377 24.5711 74.3434 24.6778 74.3041 24.7789C74.1356 24.9866 74.0065 25.2112 73.8942 25.4526C73.8886 25.4582 73.8886 25.4639 73.883 25.4751C73.8605 25.5088 73.8437 25.5368 73.8212 25.5705C73.4057 26.0871 73.0352 26.6429 72.5299 27.0865C72.1256 27.4346 71.7101 27.7658 71.1936 28.0129C71.0813 27.5581 71.2104 27.1314 71.1543 26.7159ZM90.2887 18.8611C90.2831 18.8611 90.2831 18.8611 90.2887 18.8611C90.2831 18.8611 90.2831 18.8555 90.2831 18.8555L90.2887 18.8611ZM90.4684 25.5761C90.4796 25.7053 90.4684 25.8288 90.3785 25.9299C90.3729 25.9635 90.3673 26.0028 90.3617 26.0365C90.3449 26.1039 90.328 26.1713 90.3056 26.233C90.0641 27.137 89.8171 28.0465 89.5701 28.9505C89.5364 29.0291 89.5027 29.1077 89.469 29.1863C89.2669 29.7141 89.149 30.2699 88.9524 30.7977C88.7784 31.2693 88.6156 31.7409 88.4471 32.2126C88.4078 32.2799 88.3685 32.3473 88.3348 32.4203C88.0766 32.9088 87.8632 33.4197 87.5488 33.8801C87.2625 34.2955 86.9761 34.711 86.555 34.9974C86.2182 35.2276 85.8588 35.3567 85.4658 35.1153C85.4097 35.0367 85.3591 34.9637 85.3142 34.8851C84.8426 34.1047 84.7022 33.2288 84.6461 32.3305C84.5787 32.1003 84.6292 31.8588 84.5731 31.6286C84.5675 31.5949 84.5562 31.5669 84.545 31.5332C84.5394 31.5388 84.5338 31.5444 84.5282 31.55C84.5282 31.5388 84.5338 31.5276 84.5338 31.5163C84.5394 31.2861 84.545 31.056 84.5506 30.8201C84.5619 30.2755 84.5843 29.7365 84.6461 29.1975C84.6461 29.1975 84.6461 29.1975 84.6461 29.1919C84.6348 29.0796 84.6236 28.9673 84.6124 28.855C84.6798 28.4452 84.7528 28.0353 84.7247 27.6198C84.7359 27.5188 84.7415 27.4233 84.7528 27.3223C84.7471 27.3167 84.7471 27.3054 84.7471 27.2998C84.7471 27.3054 84.7528 27.311 84.7528 27.3223C84.7808 27.2212 84.8033 27.1145 84.8257 27.0135C84.8931 26.6934 84.9268 26.3734 84.9437 26.0478C84.9493 25.9916 84.9605 25.9355 84.9661 25.8793C84.9661 25.8625 84.9717 25.8456 84.9717 25.8288C85.0784 25.694 85.0728 25.5368 85.0616 25.374C85.1795 25.0821 85.2412 24.7845 85.2749 24.4757C85.2861 24.4083 85.2974 24.3466 85.3086 24.2792C85.3704 24.223 85.3928 24.1557 85.3928 24.0827C85.3928 24.0658 85.3928 24.0434 85.3872 24.0265C85.6118 23.3135 85.842 22.6004 86.0666 21.893C86.0553 21.8818 86.0441 21.8649 86.0385 21.8593C86.0273 21.8425 86.0104 21.82 86.016 21.8088C86.0216 21.7695 86.0609 21.7751 86.0946 21.8144C86.1845 21.7526 86.2013 21.6628 86.1957 21.5673C86.2069 21.5393 86.2238 21.5112 86.235 21.4831C86.3754 21.1968 86.5213 20.9104 86.6673 20.6241C86.9986 19.956 87.3916 19.3271 87.8969 18.7713C87.9362 18.732 87.9699 18.6927 88.0092 18.6534C88.2619 18.4962 88.5201 18.3334 88.7728 18.1762C88.9805 18.1312 89.1602 18.1369 89.323 18.1874C89.615 18.2772 89.8227 18.513 89.9743 18.8443C90.0473 19.0071 90.1203 19.1699 90.1933 19.3384C90.255 19.4787 90.3112 19.6247 90.3729 19.7651C90.6087 20.7139 90.6593 21.6965 90.7996 22.6622C90.7996 22.6678 90.7996 22.679 90.8053 22.6846C90.8446 23.6616 90.6087 24.6104 90.4684 25.5761ZM104.235 22.112C104.23 22.1232 104.207 22.1232 104.196 22.1344C104.185 22.1232 104.162 22.1176 104.162 22.1063C104.157 22.0614 104.185 22.0502 104.218 22.0727C104.23 22.0783 104.235 22.1007 104.235 22.112ZM107.711 36.0922C107.694 36.1484 107.677 36.2045 107.66 36.2606C107.621 36.3224 107.57 36.3785 107.542 36.4459C106.751 38.2931 104.729 39.1465 102.826 38.7816C102.753 38.7704 102.68 38.7591 102.607 38.7535C102.478 38.6974 102.354 38.6356 102.236 38.5738C101.776 38.3268 101.372 38.0124 101.052 37.5801C101.041 37.5632 101.035 37.5464 101.029 37.5239C100.822 37.0635 100.681 36.5919 100.692 36.0754C100.687 36.0754 100.681 36.081 100.681 36.081C100.687 36.0641 100.692 36.0529 100.692 36.0361C100.721 35.9182 100.777 35.8059 100.788 35.6823C100.794 35.6543 100.794 35.6206 100.788 35.5869C101.248 34.3798 102.152 33.6779 103.371 33.3355C103.494 33.3018 103.612 33.2512 103.736 33.2063C103.82 33.1614 103.91 33.1614 103.994 33.1277C104.056 33.1165 104.117 33.1053 104.174 33.0996C104.185 33.0996 104.196 33.094 104.207 33.094C104.87 32.9817 105.532 32.8695 106.195 32.7572H106.223C106.728 32.7572 107.217 32.6224 107.716 32.5775C107.761 32.5719 107.806 32.5719 107.851 32.5663C107.902 32.8638 107.952 33.1558 108.003 33.4534C108.008 33.5544 108.014 33.6555 108.014 33.7566C108.031 34.5482 107.93 35.3286 107.711 36.0922Z" fill="black"/>
<path d="M71.5808 1.84337C71.5359 1.92197 71.4629 1.98373 71.4067 2.05672C70.7274 3.08419 69.7392 3.69056 68.5882 4.04428C67.2295 4.45975 65.8427 4.52713 64.4335 4.36431C64.0517 4.39238 63.6811 4.33062 63.3105 4.25202C62.9624 4.2857 62.6312 4.2071 62.2943 4.13972C61.2725 4.08358 60.2675 3.90953 59.2512 3.78601C58.3417 3.81969 57.4265 3.75793 56.5169 3.92637C54.4901 4.29693 52.598 4.98752 50.9585 6.27326C50.3241 6.77295 49.7963 7.37371 49.2741 7.98008C48.9485 8.52469 48.6397 9.07492 48.3702 9.65322C48.359 9.69252 48.3477 9.73182 48.3421 9.77113C48.3141 9.82166 48.2748 9.86657 48.2691 9.92833C48.0614 10.7593 47.9828 11.5959 48.0109 12.4493C48.0502 12.7132 48.0895 12.9827 48.1288 13.2465C48.2018 13.5048 48.2748 13.7687 48.3477 14.027C48.5723 14.4761 48.7969 14.9309 49.0215 15.3801C49.4426 16.1493 50.1893 16.2784 50.9585 16.3738C51.1943 16.4019 51.4414 16.3682 51.6659 16.4805C52.1825 16.4693 52.6148 16.6658 52.991 17.0139C53.3503 17.216 53.4682 17.5754 53.5356 17.9347C53.6423 18.513 53.137 19.0576 52.4688 19.0857C51.913 19.1081 51.4245 18.8836 50.9529 18.6253C50.6216 18.5355 50.3297 18.367 50.0602 18.1537C49.8805 18.0919 49.7345 17.9852 49.6166 17.8392L49.6054 17.8336C49.5436 17.8336 49.5043 17.7999 49.4875 17.7382C48.9204 17.3564 48.4713 16.8623 48.1175 16.284C47.7694 15.891 47.5224 15.4362 47.354 14.9421C47.1743 14.667 47.0676 14.3695 47.0171 14.0438C46.8543 13.6957 46.7757 13.3251 46.7813 12.9434C46.6297 12.5672 46.6746 12.1742 46.6858 11.7924C46.7027 11.0681 46.7813 10.3494 47.0452 9.66445C47.2248 8.90648 47.5449 8.21028 48.0165 7.59268C48.6004 6.56521 49.4707 5.80163 50.4027 5.10543C52.1488 3.80847 54.1364 3.07857 56.2587 2.70801C56.9212 2.59572 57.5725 2.40483 58.2574 2.48904C59.7565 2.37675 61.25 2.27008 62.7491 2.15778C62.8895 2.15217 63.0298 2.14094 63.1702 2.12971C63.187 2.1241 63.1983 2.11848 63.2151 2.10725C63.4228 2.02304 63.6418 2.03426 63.8608 2.04549C64.8321 1.91074 65.8034 1.78722 66.7803 1.71423C66.8926 1.70301 67.0049 1.69178 67.1116 1.68616C67.252 1.59071 67.4148 1.5851 67.5776 1.60194C68.3468 1.43912 69.116 1.28191 69.8852 1.11909C70.1828 0.967498 70.4916 0.827134 70.8284 0.787832C71.1148 0.754145 71.3955 0.74853 71.5864 1.01803C71.7885 1.28191 71.738 1.56826 71.5808 1.84337Z" fill="black"/>
<path d="M65.6689 22.7183C65.4724 23.0102 65.1299 23.0945 64.7762 22.9204C64.5404 22.8025 64.3271 22.6565 64.0969 22.5274C63.6028 22.2523 63.0638 22.1063 62.5136 21.9884C61.5479 21.9715 60.5878 21.9884 59.6389 22.2074C59.347 22.2747 59.2347 22.3983 59.2347 22.6846C59.2403 23.2404 59.229 23.7963 59.2178 24.3521C59.2122 24.5542 59.2403 24.762 59.1561 24.9585C59.1448 27.3054 59.1392 29.6523 59.128 31.9992C59.1617 32.2237 59.1841 32.4427 59.1504 32.6673C59.274 33.2849 59.2459 33.9137 59.2571 34.5425C59.2683 34.565 59.274 34.5875 59.2796 34.6099C59.2796 34.6155 59.2796 34.6211 59.2852 34.6268C59.3863 34.9973 59.3582 35.3791 59.375 35.7609C59.521 36.0136 59.5322 36.2943 59.5322 36.5694C59.5266 37.3723 58.8809 37.9169 58.0275 37.8102C57.6064 37.7541 57.1741 37.6699 56.8092 37.4172C56.7979 37.4116 56.7867 37.406 56.7755 37.3947C56.68 37.3947 56.6127 37.3554 56.5621 37.2768H56.5565C56.4948 37.2824 56.4498 37.2656 56.433 37.1982C56.3937 37.1758 56.36 37.1589 56.3263 37.1365C56.2702 37.1421 56.2365 37.1084 56.2196 37.0579H56.214C56.1467 37.0579 56.1073 37.0242 56.0849 36.9568C55.9726 36.9175 55.8884 36.8445 55.8435 36.7378C55.6133 36.5189 55.4841 36.2494 55.4392 35.935C55.4111 35.9125 55.4055 35.8844 55.4224 35.8507C55.3213 35.7497 55.3213 35.6205 55.3382 35.4914C55.3325 35.4184 55.3269 35.351 55.3157 35.2781C55.3045 35.2612 55.2932 35.2444 55.2876 35.2275C55.209 35.0647 55.209 34.885 55.2202 34.7054C55.1697 34.4471 55.0799 34.1888 55.1136 33.9137C55.1023 33.7733 55.0911 33.6386 55.0855 33.4982C54.9564 33.0435 54.9901 32.5831 55.0013 32.1227C54.9283 30.5899 54.9283 29.0515 54.9957 27.5187C54.9564 27.2548 54.962 26.991 55.0013 26.7271C54.9676 25.7558 55.0237 24.7844 55.1136 23.8131C55.0743 23.6278 54.9395 23.6615 54.816 23.6896C54.4398 23.7738 54.058 23.8131 53.6706 23.858C53.2832 23.8973 52.9014 23.8917 52.5196 23.8019C52.3849 23.8187 52.2558 23.8187 52.1491 23.7177L52.1042 23.7233L52.0705 23.6952C51.7168 23.6559 51.4304 23.4819 51.1722 23.2517C50.796 23.0552 50.5209 22.7632 50.2907 22.4151C50.0998 22.1175 50.1054 21.8873 50.2738 21.6964C50.4591 21.4887 50.7511 21.4213 51.043 21.5392C51.4136 21.6852 51.6775 21.9884 51.9806 22.2298C52.6151 22.5498 53.3001 22.4937 53.9794 22.4769C54.0693 22.4544 54.1591 22.4263 54.2489 22.4039C55.3325 22.1793 55.0855 22.3421 55.2259 21.3371C55.2315 20.3602 55.3269 19.3889 55.4504 18.4231C55.4673 17.6315 55.5459 16.8455 55.6694 16.065C55.6806 15.3071 55.7873 14.5659 55.8996 13.8192C55.9108 13.2128 56.0063 12.6177 56.1242 12.0226C56.0961 11.7531 56.186 11.4948 56.2365 11.2365C56.2982 10.6638 56.3712 10.0968 56.5509 9.54653C56.6183 9.12544 56.6688 8.69873 56.753 8.27764C56.8709 7.66004 57.3369 7.34001 57.8816 7.23333C58.6788 7.07612 59.448 7.19403 60.0207 7.86778C60.1947 8.01937 60.3239 8.19342 60.3632 8.42362C60.5934 8.93454 60.4418 9.42301 60.2846 9.91148C60.2677 10.0125 60.2565 10.1192 60.2397 10.2203C60.2565 10.3438 60.2397 10.4673 60.1611 10.5684C60.1498 11.0288 60.0768 11.4836 59.9702 11.9327C59.9646 11.972 59.9533 12.0113 59.9421 12.0506C59.9309 12.191 59.9196 12.3257 59.9084 12.4661C59.9196 12.6682 59.9309 12.8703 59.8242 13.0556C59.8186 13.4093 59.8354 13.7631 59.7344 14.1056C59.7344 14.128 59.7287 14.1505 59.7119 14.1729C59.6782 15.1386 59.6221 16.1043 59.4817 17.0644C59.4761 17.6708 59.5042 18.2828 59.3694 18.8779C59.3582 19.445 59.3526 20.0121 59.3301 20.5791C59.3245 20.77 59.3526 20.9104 59.5828 20.8936C59.6445 20.8823 59.7063 20.8711 59.768 20.8599C59.914 20.7532 60.0825 20.7588 60.2565 20.77C61.4749 20.5623 62.682 20.4949 63.8554 20.989C64.4674 21.135 64.9896 21.4662 65.4837 21.8312C65.8205 22.067 65.8711 22.4207 65.6689 22.7183Z" fill="black"/>
<path d="M25.1933 2.76978C25.109 2.9719 24.9631 3.15157 24.8283 3.33123C23.9524 4.44291 22.7622 5.02121 21.409 5.30194C20.303 5.53214 19.1913 5.58267 18.0628 5.45915C17.3441 5.38055 16.6142 5.37493 15.9012 5.21211C15.0309 5.20088 14.1775 5.03244 13.3129 4.93138C12.7963 4.87524 12.2798 4.88085 11.7632 4.8247C10.5449 4.87524 9.35459 5.0942 8.19238 5.44792C6.29466 6.02061 4.65521 7.01438 3.3021 8.46855C3.27964 8.49101 3.25718 8.51347 3.24034 8.53593L3.22911 8.55277C2.79117 9.17599 2.35324 9.7992 2.05005 10.5066C1.59527 11.5622 1.52228 12.6682 1.57281 13.7968C1.58966 13.8417 1.6065 13.8866 1.61773 13.9371C1.67387 14.0887 1.69072 14.2403 1.6851 14.3975C1.9546 15.1667 2.20164 15.9359 2.70134 16.604C2.86978 16.8286 3.04944 17.0308 3.27402 17.1936C3.91408 17.4013 4.58222 17.4406 5.23912 17.5305C5.40194 17.5529 5.57599 17.5361 5.71636 17.654C5.98586 17.682 6.21044 17.7999 6.39572 17.9908C6.49678 18.0133 6.56977 18.0751 6.62592 18.1593L6.6596 18.1705L6.67083 18.2042C6.76066 18.2547 6.82243 18.3221 6.84488 18.4288C6.89541 18.4512 6.92349 18.4849 6.91787 18.5467C6.9291 18.586 6.94033 18.6253 6.95156 18.6646C7.02455 18.7264 7.04701 18.805 7.03578 18.8948C7.17614 19.5236 6.82804 20.0402 6.19359 20.1356C5.89602 20.1805 5.60407 20.1525 5.31211 20.0514C4.91347 19.9054 4.50361 19.7707 4.14428 19.5348C3.80741 19.4057 3.50984 19.2148 3.24595 18.9734C2.64519 18.5804 2.1455 18.0919 1.76371 17.4855C1.12365 16.7051 0.719399 15.8068 0.477973 14.8355C0.433056 14.74 0.416212 14.639 0.427442 14.5323C0.259005 14.2909 0.371296 13.9764 0.230932 13.7238C0.236547 13.7013 0.236547 13.6789 0.242161 13.6564C0.247776 13.6227 0.25339 13.5946 0.25339 13.561C0.259005 13.5329 0.259005 13.5104 0.264619 13.4824C0.264619 13.4767 0.264619 13.4711 0.270234 13.4599C0.259005 13.4711 0.247776 13.4824 0.236547 13.488C0.236547 13.488 0.236547 13.4824 0.230932 13.4824C0.118641 12.8142 0.25339 12.1573 0.354452 11.5004C0.472358 10.72 0.792388 10.0013 1.09557 9.28266C1.1068 9.27144 1.12365 9.26021 1.14049 9.24898C1.20787 9.17037 1.27524 9.09177 1.34261 9.01317C1.61773 8.45732 1.97706 7.95763 2.44307 7.54215V7.54777C2.7631 7.10422 3.18981 6.77296 3.6109 6.4417C5.17174 5.19527 6.94033 4.40923 8.87174 3.97129C8.96157 3.94883 9.05702 3.96006 9.14685 3.94883C9.18054 3.90392 9.23107 3.88146 9.28722 3.89269C9.61848 3.8197 9.94412 3.70179 10.2922 3.72987C10.3147 3.69056 10.3484 3.68495 10.3877 3.70179C10.5673 3.61196 10.7638 3.60635 10.9604 3.61196C10.966 3.60635 10.9716 3.60073 10.9716 3.59512C10.994 3.57266 11.0221 3.56143 11.0558 3.58389C11.6846 3.48283 12.3247 3.49405 12.9591 3.49405C13.0714 3.42668 13.1893 3.41545 13.3129 3.44352C13.7227 3.38176 14.1382 3.37615 14.5537 3.37615C14.986 3.22456 15.4408 3.28632 15.8843 3.23578C17.5687 3.04489 19.2587 2.87645 20.9487 2.7024C21.3024 2.57888 21.6786 2.55642 22.0435 2.48343C22.6667 2.3543 23.2843 2.22516 23.8795 1.98374C24.0872 1.89952 24.3005 1.83215 24.5307 1.82653C25.0922 1.82092 25.4066 2.25885 25.1933 2.76978Z" fill="black"/>
<path d="M19.2642 23.7345C19.1295 24.004 18.7758 24.1388 18.4445 24.0377C18.3378 24.004 18.2368 23.9479 18.1469 23.8861C17.4395 23.4033 16.6535 23.1506 15.8169 23.0327C15.3397 23.0383 14.8568 23.0496 14.3796 23.0552C14.3683 23.0608 14.3571 23.0664 14.3459 23.072C14.2111 23.1394 14.0652 23.1506 13.9136 23.1282C13.8069 23.1394 13.6946 23.1506 13.5879 23.1675C13.5205 23.2292 13.4476 23.2517 13.3577 23.2348C13.251 23.2517 13.1388 23.2685 13.0321 23.2798C13.0208 23.2854 13.0096 23.291 12.9984 23.2966C12.931 23.3359 12.8636 23.3752 12.7963 23.4089C12.785 24.4925 12.7738 25.5761 12.7513 26.6597C12.7457 26.8843 12.7794 27.1089 12.684 27.3222C12.684 27.3166 12.684 27.311 12.684 27.311C12.6727 28.4732 12.6671 29.6298 12.6615 30.7864C12.7008 32.0609 12.7345 33.3298 12.7738 34.5987C12.8187 35.0872 12.9142 35.57 12.8805 36.0641C12.8861 36.2045 12.8973 36.3505 12.9029 36.4908C12.9086 36.502 12.9142 36.5133 12.9198 36.5189C12.9928 36.6536 12.9928 36.8052 12.9872 36.9512C13.0208 37.0579 13.0658 37.1646 13.0826 37.2712C13.2791 38.5457 12.4369 38.9163 11.5779 38.8489C11.0501 38.8096 10.5224 38.6524 10.09 38.3043C9.8037 38.1976 9.57351 38.0236 9.40507 37.7766C8.96713 37.2937 8.86607 36.7042 8.84923 36.081C8.68079 35.424 8.59657 34.7615 8.61903 34.0878C8.59657 34.026 8.58534 33.9643 8.59096 33.9137C8.48428 33.1726 8.51797 32.4315 8.53481 31.6904C8.49551 31.3928 8.49551 31.0896 8.53481 30.792C8.49551 30.2306 8.49551 29.6691 8.54043 29.1133C8.54043 29.074 8.54043 29.0291 8.54043 28.9898C8.49551 27.8669 8.56288 26.7496 8.6471 25.6323C8.61342 25.52 8.61903 25.4021 8.65272 25.2898C8.6471 25.2336 8.64149 25.1831 8.63587 25.127C8.62464 24.7395 8.62464 24.7395 8.21478 24.7452C8.1081 24.835 7.97897 24.8406 7.84984 24.8238C7.74316 24.835 7.6421 24.8406 7.53542 24.8518C7.47366 24.8855 7.40629 24.8911 7.33891 24.8911C6.62586 25.0147 5.92404 24.9529 5.25591 24.616C5.16046 24.616 5.08747 24.5823 5.03694 24.5037C4.52602 24.2792 4.14423 23.9086 3.84104 23.4538C3.70068 23.2405 3.62769 23.0046 3.8242 22.7857C4.01509 22.5667 4.25652 22.4937 4.53163 22.5892C4.672 22.6341 4.82359 22.6902 4.92465 22.7913C5.35136 23.2068 5.8679 23.437 6.42935 23.5998C7.05818 23.5998 7.67578 23.4875 8.299 23.4089C8.46744 23.3134 8.72009 23.3303 8.75378 23.0608C8.75378 23.0215 8.75378 22.9822 8.75378 22.9429C8.77062 21.9267 8.84923 20.9216 8.98398 19.9166C8.98398 19.8773 8.98959 19.8437 8.98959 19.8043C8.97836 19.5405 8.9559 19.271 9.07381 19.0183C9.07942 18.906 9.08504 18.7937 9.09627 18.6814C9.07381 18.2996 9.1075 17.9235 9.20294 17.5529C9.18049 17.4406 9.1861 17.3283 9.21979 17.2217C9.23663 16.6827 9.27593 16.1437 9.39945 15.6215C9.40507 14.9478 9.48367 14.2852 9.62965 13.6283C9.6858 12.511 9.93845 11.4218 10.135 10.327C10.1743 10.108 10.2529 9.88904 10.2641 9.67007C10.3034 8.92895 10.7413 8.53593 11.3982 8.31696C12.3696 7.99132 13.5991 8.59769 13.9304 9.56901C14.082 9.90588 14.0708 10.2371 13.9416 10.5684C13.936 10.5852 13.9304 10.6077 13.9192 10.6245C13.8911 11.0119 13.835 11.3937 13.7002 11.7643C13.6777 12.3258 13.6048 12.876 13.47 13.4206C13.5149 13.9091 13.3521 14.3863 13.3802 14.8804C13.397 15.0937 13.47 15.3071 13.3353 15.5092C13.3072 15.5261 13.2791 15.5429 13.251 15.5654C13.2398 16.5479 13.1612 17.5248 13.0321 18.4962C13.0096 19.1306 13.0489 19.765 12.9366 20.3939C12.9479 20.4332 12.9366 20.4725 12.9142 20.5118V21.9435C13.2398 22.0165 13.5093 21.8256 13.8069 21.8537C14.2504 21.7526 14.694 21.6852 15.1544 21.7358C16.019 21.6684 16.85 21.7638 17.636 22.1625C18.1694 22.2972 18.6129 22.606 19.0509 22.9148C19.3316 23.1001 19.4046 23.4482 19.2642 23.7345Z" fill="black"/>
<path d="M44.4453 8.45169C44.4004 8.36185 44.3274 8.33378 44.232 8.32817C43.5189 7.97445 42.9687 8.08674 42.5251 8.70996C42.2219 9.13666 41.9581 9.58583 41.6717 10.0238C40.8295 10.9614 39.8189 11.5228 38.522 11.4611C38.477 11.4499 38.4377 11.4386 38.404 11.433H38.3984C37.9942 11.332 37.5787 11.2814 37.1576 11.2477C37.0566 11.1635 36.9386 11.1467 36.8095 11.1579C36.7477 11.1467 36.686 11.1354 36.6186 11.1242C35.9505 10.8996 35.2711 10.72 34.5805 10.574C34.5412 10.5066 34.4963 10.4449 34.457 10.3775C34.4626 10.3719 34.4682 10.3606 34.4739 10.355C34.5525 10.2203 34.5581 10.0687 34.5412 9.91709C34.5525 9.81041 34.5581 9.70373 34.5693 9.59144C34.6984 9.35001 34.6816 9.08052 34.6872 8.81663C34.8107 8.32816 34.9342 7.83408 34.7546 7.32877C34.6535 6.87961 34.384 6.55396 34.0022 6.30692C33.7383 5.98689 33.3229 5.95321 32.9748 5.77916C32.5481 5.61072 32.1438 5.66125 31.7508 5.88583C31.4251 6.12164 31.0546 6.31815 30.9872 6.77293C30.9423 6.86838 30.9255 6.96944 30.9479 7.0705C30.9423 7.08173 30.9367 7.09296 30.9311 7.10419C30.8637 7.24455 30.8581 7.39053 30.8693 7.54213C30.8581 7.61512 30.8525 7.69372 30.8412 7.76671C30.7458 7.90707 30.7402 8.06428 30.7514 8.2271C30.7009 8.47414 30.6391 8.7268 30.6054 8.97384C30.5774 9.17596 30.4763 9.26018 30.2798 9.25457C29.9261 9.11982 29.5611 9.01876 29.1737 9.00191C29.0726 8.91208 28.9491 8.89524 28.82 8.91208C28.747 8.90085 28.674 8.88962 28.6066 8.87839C27.6409 8.59766 26.6472 8.48537 25.6478 8.47976C25.0919 8.47414 24.5361 8.50222 24.0027 8.68188C23.868 8.66504 23.75 8.70996 23.6209 8.73803C22.8798 8.93454 22.2117 9.29387 21.566 9.6925C21.5042 9.70935 21.4537 9.74865 21.42 9.80479C21.1393 9.962 20.9484 10.209 20.7406 10.4449C20.4711 10.8547 20.0725 11.186 19.949 11.6857C19.8479 11.7811 19.8255 11.9046 19.8311 12.0338C19.6683 12.3987 19.6402 12.7524 19.9321 13.0781H19.9265C19.9434 13.1679 19.9827 13.2353 20.0669 13.2802C20.5161 13.7687 21.1112 13.836 21.6446 13.443C22.0432 13.1511 22.3239 12.7637 22.4587 12.2808C22.6159 11.9664 22.7563 11.6464 22.9247 11.3376C23.4637 10.355 24.2947 9.87217 25.4288 9.88901C26.1138 9.90024 26.7988 9.92831 27.4781 10.0013C27.5792 10.0125 27.6802 10.0294 27.7813 10.0406C27.888 10.1304 28.0115 10.1361 28.1406 10.1192C28.6628 10.2596 29.1849 10.3831 29.7183 10.4673C29.7689 10.4898 29.8194 10.5235 29.8699 10.5403C30.3135 10.6863 30.3135 10.6863 30.2742 11.1523C30.2517 11.4499 30.1394 11.7362 30.1843 12.0394C30.1226 12.337 30.044 12.6345 30.0777 12.9433C30.0215 13.3139 29.9204 13.6845 29.9597 14.0662C29.9934 14.1055 30.0215 14.1392 30.0552 14.1785C30.0552 14.2066 30.0552 14.2347 30.0552 14.2571C30.0496 14.2515 30.044 14.2403 30.0384 14.2291C30.0047 14.1785 29.9822 14.1224 29.9597 14.0662C29.825 14.959 29.7576 15.8517 29.7408 16.7556C29.7408 16.7949 29.7408 16.8342 29.7352 16.8735C29.6566 17.7719 29.5723 18.6646 29.6173 19.5685C29.4544 21.5448 29.505 23.5212 29.533 25.4975C29.533 25.5873 29.5723 25.6772 29.5892 25.767C29.6004 26.4407 29.5555 27.1145 29.7071 27.7826C29.5667 28.2598 29.4264 28.7427 29.286 29.2199C29.0277 29.8488 28.7863 30.4776 28.601 31.1289C28.3035 31.7521 28.034 32.3809 27.8038 33.0322C27.4613 33.6667 27.1244 34.3067 26.7763 34.9412C26.5798 35.3005 26.3384 35.6318 26.0576 35.935C25.6983 36.3224 25.6085 36.3111 25.4176 35.8395C25.2997 35.5475 25.2042 35.2444 25.1032 34.9468C25.0302 34.4976 24.9516 34.0485 24.8786 33.5993C24.901 33.2175 24.828 32.8526 24.7719 32.482C24.7438 31.4826 24.7158 30.4832 24.6821 29.4782C24.7831 28.7315 24.7719 27.9791 24.7887 27.2268C24.9123 26.8674 24.8898 26.4856 24.901 26.1151C25.0639 25.228 25.1593 24.3297 25.2379 23.4313C25.3558 23.2124 25.3502 22.9709 25.3446 22.7351C25.4344 22.6284 25.4344 22.5049 25.4232 22.3758C25.4849 22.1568 25.4906 21.9322 25.4232 21.7133C25.44 21.6571 25.4288 21.6122 25.3783 21.5841C25.3614 21.5505 25.3446 21.5168 25.3334 21.4831C25.2267 21.1911 25.0302 20.9722 24.7663 20.8093C24.7663 20.7813 24.7663 20.7588 24.7607 20.7307C25.4849 20.304 25.8948 19.6134 26.2485 18.9004C26.8212 17.7494 27.0851 16.4805 27.5736 15.3014C27.7701 15.0544 27.9666 14.8074 28.1631 14.5603C28.2417 14.5154 28.3203 14.4705 28.3989 14.4256C28.4382 14.3975 28.4719 14.375 28.5112 14.347C28.4663 14.3301 28.427 14.3189 28.3821 14.3021C28.2305 14.3021 28.0789 14.2964 27.9273 14.2908C27.8543 14.2908 27.7757 14.2852 27.7027 14.2796C27.13 14.1898 26.5629 14.2347 26.0071 14.4031C25.878 14.4143 25.7488 14.42 25.6478 14.5098C24.9852 14.6052 24.3957 14.8691 23.8736 15.2958C23.2728 15.5709 22.9752 16.0987 22.7282 16.6714C22.3352 17.5866 22.425 18.5242 22.6608 19.4618C22.6721 19.7033 22.7563 19.9222 22.8686 20.13C22.818 20.1524 22.7675 20.1805 22.7114 20.1917C21.6221 20.4332 21.3414 20.7363 21.2123 21.8256C21.201 21.9379 21.2067 22.0501 21.201 22.1624C21.0775 22.8306 20.9989 23.5043 20.9765 24.1837C20.9652 24.3577 20.954 24.5374 20.9428 24.7114C20.8249 25.009 20.8473 25.3234 20.8585 25.6378C20.8585 25.7165 20.8529 25.7951 20.8529 25.868C20.8473 26.0084 20.8361 26.1488 20.8305 26.2891C20.7406 26.48 20.7575 26.6878 20.7519 26.8899C20.7463 27.7995 20.7463 28.7034 20.7463 29.613C20.7463 29.8319 20.7238 30.0565 20.8249 30.2699C20.8305 30.6853 20.7912 31.1008 20.9372 31.5051C20.9428 31.5724 20.9484 31.6398 20.9596 31.7072C20.9484 31.9093 20.9372 32.1114 21.0494 32.2967C21.1 32.9536 21.2347 33.5937 21.4986 34.2001C21.5098 34.4415 21.5997 34.6548 21.7344 34.8513C21.9534 35.5756 22.3127 36.2157 22.8686 36.7378C24.1262 38.119 25.8274 38.1527 27.0289 36.7715C27.9104 35.7553 28.5449 34.5706 29.0558 33.3242C29.4264 32.6336 29.7183 31.9093 29.9485 31.1626C30.0159 31.2075 30.0777 31.2468 30.145 31.2917C30.1506 31.6454 30.2292 31.9823 30.3752 32.3079C30.4426 32.8806 30.6503 33.414 30.8468 33.953C31.1276 34.7166 31.4532 35.4577 31.9866 36.0865C32.0484 36.2325 32.1382 36.3617 32.2786 36.4459C32.5481 36.8277 32.8962 37.1252 33.3173 37.3217C33.7215 37.6474 34.2156 37.7709 34.7097 37.8439C35.5406 37.9674 36.3098 37.8102 36.9218 37.1814C37.2699 36.8221 37.6012 36.4459 37.8257 35.9855C38.8195 34.5706 39.4708 32.9929 40.021 31.3703C40.3748 30.3709 40.7397 29.3771 41.071 28.3721C41.245 27.8556 40.8351 27.4457 40.3074 27.5636C40.0603 27.6198 39.9312 27.7938 39.8526 28.0128C39.4259 29.2368 38.9992 30.4664 38.5725 31.696C38.0223 32.8638 37.4945 34.0428 36.8937 35.1882C36.6804 35.4802 36.4839 35.7946 36.2424 36.0697C35.6866 36.7041 35.4115 36.6592 34.8781 36.3224C34.5244 35.935 34.3447 35.4521 34.1258 34.9917C34.1258 34.9917 34.1258 34.9917 34.1258 34.9861C34.1201 34.9692 34.1145 34.958 34.1033 34.9412C33.7103 33.2905 33.5587 31.6061 33.4071 29.9218C33.4071 29.8825 33.4071 29.8488 33.4071 29.8095C33.3734 28.389 33.3453 26.9629 33.3116 25.5424C33.3397 25.5143 33.3453 25.4919 33.3229 25.4582C33.4295 24.7002 33.4071 23.9423 33.4071 23.1787C33.4183 22.8811 33.4295 22.5835 33.4352 22.286C33.5531 21.9154 33.5138 21.5336 33.5082 21.1574C33.5194 20.8599 33.5362 20.5623 33.5475 20.2647C33.671 19.7257 33.6429 19.1755 33.6541 18.6309C33.6878 18.5074 33.699 18.3838 33.7047 18.2603C33.8057 17.4125 33.8675 16.5647 33.8787 15.7113C34.0078 15.3014 33.9854 14.8747 33.991 14.4536C33.9966 14.448 34.0022 14.4368 34.0022 14.4312C34.1033 14.2347 34.064 14.0157 34.0921 13.808C34.1594 13.2409 34.2212 12.6738 34.283 12.1068C34.2998 11.9608 34.3391 11.8541 34.5132 11.8597C34.8444 12.0169 35.1981 12.0843 35.5575 12.1573C36.001 12.3033 36.4389 12.4549 36.905 12.4998C37.6068 12.6794 38.3198 12.8086 39.0385 12.8479C39.6449 12.8816 40.2568 12.9489 40.852 12.7524C41.9581 12.657 42.9294 12.2808 43.6649 11.4106C44.1309 11.0119 44.4565 10.5122 44.6699 9.95077C44.9001 9.40616 44.9506 8.86716 44.4453 8.45169ZM24.5866 17.7775C24.5361 17.7999 24.4968 17.8392 24.4687 17.8898C24.4238 17.9178 24.3845 17.9571 24.3564 18.0021C24.3115 18.0301 24.2722 18.0694 24.2441 18.1143C24.1936 18.148 24.1543 18.1929 24.1375 18.2547C23.8736 18.7712 23.7276 19.3102 23.7669 19.8942C23.7781 20.0233 23.7669 20.1524 23.6883 20.2647C23.6546 20.1973 23.6097 20.1412 23.5648 20.0963C23.5704 20.1468 23.5704 20.1917 23.576 20.2423C23.3795 20.203 23.1886 20.1637 22.9921 20.13C23.0258 20.0851 23.0538 20.0458 23.0763 20.0008C23.0651 20.0008 23.0482 20.0064 23.037 20.0121C23.0258 20.0177 23.0089 20.0233 22.9977 20.0345C22.9977 19.8829 22.9696 19.7313 22.9022 19.591C22.9079 19.591 22.9079 19.5854 22.9135 19.5854C22.9079 19.5797 22.9022 19.5797 22.8966 19.5741C22.8966 19.2036 22.8966 18.833 22.8966 18.4624C22.9359 18.4063 22.9584 18.3445 22.9696 18.2828C22.9977 18.1705 23.0033 18.047 23.037 17.9347C23.1774 17.4181 23.3402 16.9072 23.75 16.5254C23.8736 16.2559 24.0869 16.0931 24.3452 15.9752C24.4631 15.8404 24.6091 15.7562 24.7887 15.7394V15.745V15.7506C24.8112 15.7338 24.8337 15.7113 24.8617 15.6945C24.8786 15.6832 24.8898 15.672 24.9066 15.6552C24.9347 15.6383 24.9684 15.6271 25.0021 15.6215C25.0245 15.6215 25.0414 15.6159 25.0582 15.6046C25.0639 15.599 25.0639 15.599 25.0695 15.5934C25.0751 15.5766 25.0639 15.5597 25.0358 15.5316C25.2604 15.4867 25.4793 15.4362 25.7039 15.3913C25.8611 15.279 26.0408 15.2958 26.2878 15.3127C26.1138 15.4643 25.9678 15.4923 25.8162 15.526C25.5916 15.6439 25.367 15.7562 25.1425 15.8741V15.8629C25.1032 15.8966 25.0639 15.9303 25.0245 15.964L25.0133 15.9696C24.8561 16.1829 24.6764 16.3682 24.4631 16.5254C24.4294 16.5703 24.4013 16.6096 24.3676 16.6546C24.2385 16.9634 24.1038 17.2722 23.9129 17.5529H23.9241C24.0645 17.6764 24.1599 17.5473 24.2722 17.4911C24.6764 17.2834 25.0975 17.1823 25.6422 17.2385C25.2997 17.536 24.9235 17.609 24.6035 17.7831L24.5866 17.7775Z" fill="black"/>
</svg>
