<svg width="26" height="31" viewBox="0 0 26 31" fill="none" xmlns="http://www.w3.org/2000/svg">
<g clip-path="url(#clip0_914_101)">
<path d="M25.6102 24.4321C25.6102 23.4607 25.6188 22.4806 25.6102 21.5092C25.5845 19.5061 24.2348 17.7266 22.3091 17.1678C21.329 16.8841 20.306 16.8325 19.3002 16.6606C19.1369 16.6348 18.9993 16.5832 18.8618 16.4887C18.0623 15.9557 17.2542 15.4227 16.4547 14.8983C16.0248 14.6146 15.8099 14.6575 15.5176 15.0702C14.6751 16.2565 13.8327 17.4429 13.0074 18.6465C12.8268 18.9044 12.7666 18.8614 12.6119 18.6379C11.778 17.4429 10.9269 16.2651 10.0759 15.0788C9.78357 14.6747 9.57724 14.6404 9.156 14.9154C8.3565 15.4484 7.5484 15.9815 6.7575 16.523C6.52538 16.6864 6.27608 16.7895 6.00098 16.8325C5.33903 16.9443 4.66848 17.0646 4.00653 17.1764C1.65101 17.5719 0.0348137 19.3686 0.0176202 21.7327C0.000426608 23.7615 0.0434105 25.7818 0.0692009 27.8106C0.0777977 28.5585 0.542024 29.0915 1.28135 29.2635C4.12688 29.934 7.0068 30.424 9.90392 30.7937C11.6319 31.0172 13.3598 31.086 15.0964 30.8625C18.26 30.4412 21.3806 29.7879 24.4755 29.0228C25.2664 28.825 25.6876 28.2749 25.6876 27.4668C25.6876 26.4609 25.6876 25.4465 25.6876 24.4407H25.6102V24.4321ZM13.6005 19.5663C14.4086 18.4229 15.2167 17.2796 16.0248 16.1276C16.0678 16.0674 16.085 15.99 16.1882 15.9986C16.2312 16.0244 16.2741 16.0502 16.3257 16.076C16.9189 16.4543 17.5121 16.8411 18.1053 17.2194C18.2342 17.3054 18.2686 17.3741 18.1998 17.5203C17.5293 18.9731 16.8759 20.4346 16.214 21.896C16.1538 22.0336 16.1108 22.0766 15.9733 21.9562C15.1995 21.2513 14.4172 20.5463 13.6349 19.85C13.5232 19.7554 13.506 19.6953 13.6005 19.5663ZM7.98684 16.9701C8.41668 16.695 8.85511 16.4199 9.27636 16.1276C9.4225 16.033 9.49987 16.0244 9.60303 16.1792C10.4025 17.3054 11.202 18.4315 12.0101 19.5491C12.0789 19.6523 12.1477 19.7211 12.0101 19.8414C11.1934 20.5635 10.3767 21.2943 9.56865 22.025C9.55145 22.0422 9.52566 22.0422 9.49127 22.0508C8.8895 20.7269 8.27913 19.3944 7.67735 18.0619C7.35927 17.3741 7.35927 17.3741 7.98684 16.9701ZM11.2622 24.3805C11.1505 26.1257 11.0387 27.8622 10.9355 29.6074C10.9269 29.8137 10.8668 29.8739 10.6518 29.8481C7.67735 29.4956 4.72866 28.9884 1.80575 28.3264C1.70259 28.3006 1.59943 28.2749 1.49627 28.2577C1.22977 28.1975 1.09222 28.0255 1.09222 27.759C1.07502 25.6614 1.02344 23.5552 1.05783 21.4576C1.08362 19.8586 2.42472 18.4831 4.10109 18.1994C4.79743 18.0791 5.49377 17.9587 6.18151 17.8298C6.37924 17.7868 6.45661 17.847 6.53398 18.0275C7.2733 19.6695 8.02982 21.3115 8.77774 22.9534C9.05284 23.5552 9.36232 23.6154 9.85234 23.177C10.0931 22.962 10.3338 22.7471 10.5917 22.515C10.8668 23.0566 10.9269 23.6498 11.2622 24.1312C11.288 24.1914 11.2622 24.2945 11.2622 24.3805ZM13.42 29.9512C12.9988 29.934 12.5861 29.9512 12.1649 29.9598C12.0101 29.9598 11.9328 29.9512 11.95 29.7535C12.0703 27.9826 12.1821 26.2116 12.2852 24.4321C12.2938 24.2773 12.3368 24.243 12.4916 24.2344C13.3512 24.2 13.3426 24.2 13.3856 25.0683C13.42 25.756 13.463 26.4351 13.506 27.1229C13.5576 27.974 13.6005 28.8336 13.6693 29.6847C13.6951 29.9082 13.6263 29.9598 13.42 29.9512ZM14.1335 21.9476C14.0046 22.3001 13.8756 22.6526 13.7639 23.005C13.7123 23.1598 13.6349 23.2199 13.4716 23.2113C13.2567 23.1942 13.0417 23.2113 12.7752 23.2113C12.5259 23.1856 12.1563 23.3317 11.95 23.1598C11.7608 23.005 11.735 22.644 11.6405 22.3689C11.4256 21.7585 11.417 21.7585 11.907 21.3201C12.1649 21.0879 12.4228 20.8644 12.6721 20.6323C12.7838 20.5291 12.8526 20.5291 12.9644 20.6323C13.3254 20.9676 13.6951 21.3029 14.0648 21.6209C14.1851 21.7155 14.1851 21.8101 14.1335 21.9476ZM24.1316 28.0427C21.1227 28.8079 18.0795 29.3838 15.0104 29.8309C14.7697 29.8653 14.7009 29.8137 14.6837 29.5644C14.5892 27.845 14.486 26.1171 14.3571 24.3977C14.3399 24.157 14.4946 24.0366 14.5634 23.8475C14.7095 23.4091 14.8643 22.9792 15.0362 22.4978C15.3027 22.7385 15.552 22.962 15.8013 23.1856C16.2827 23.6154 16.6008 23.5466 16.8673 22.9706C17.6238 21.2943 18.3804 19.6265 19.1369 17.9501C19.2228 17.7524 19.3088 17.6836 19.5409 17.7266C20.2459 17.8555 20.9594 17.9415 21.6643 18.0619C23.3235 18.3542 24.5614 19.7984 24.5958 21.4834C24.6302 23.4521 24.6388 25.4293 24.6646 27.398C24.6474 27.8106 24.5528 27.931 24.1316 28.0427Z" fill="white"/>
<path d="M18.9818 6.09514C18.7668 6.07795 18.6379 6.02637 18.5777 5.78566C18.5089 5.51916 18.3886 5.26125 18.2596 5.02054C18.1565 4.84001 18.1737 4.71966 18.294 4.56491C18.6035 4.18666 18.6895 3.75682 18.5261 3.30119C18.294 2.65643 17.847 2.21799 17.1936 2.01167C16.9099 1.9257 16.5661 1.87412 16.3511 2.06325C15.8869 2.4673 15.4743 2.32115 15.0358 2.07185C14.9757 2.03746 14.8983 2.00307 14.8295 1.99448C14.5802 1.95149 14.477 1.83973 14.477 1.56464C14.4685 0.988652 14.2707 0.498636 13.7033 0.223539C12.4912 -0.36964 11.279 0.266522 11.1587 1.59902C11.1415 1.83973 11.0469 1.9257 10.8406 1.98588C10.5913 2.06325 10.3334 2.16641 10.1013 2.29536C9.91216 2.39852 9.77461 2.38993 9.61127 2.25238C9.27599 1.96869 8.87195 1.88272 8.4679 2.00307C7.72857 2.22659 7.24715 2.7252 7.04943 3.48172C6.98065 3.73103 6.96346 4.04051 7.1354 4.22964C7.52225 4.65948 7.41049 5.06353 7.15259 5.48477C7.1182 5.54495 7.08382 5.62232 7.07522 5.69109C7.02364 6.00058 6.8431 6.10374 6.54222 6.10374C6.02641 6.11233 5.61376 6.30146 5.33867 6.76569C4.77988 7.69414 5.14954 9.46508 6.5766 9.39631C6.83451 9.37911 6.99785 9.48227 7.06662 9.77456C7.1268 10.0325 7.24715 10.2732 7.37611 10.5053C7.46207 10.6686 7.45348 10.7718 7.34172 10.9007C7.14399 11.1501 7.00644 11.4251 7.01504 11.7518C7.01504 12.5169 7.71998 13.3336 8.51088 13.5056C8.78598 13.5657 9.08687 13.5915 9.28459 13.4196C9.72303 13.0327 10.1185 13.1617 10.5397 13.411C10.6257 13.4626 10.7203 13.4884 10.8148 13.5056C11.0555 13.5486 11.1243 13.6861 11.1415 13.9268C11.2275 14.9154 11.6917 15.3711 12.6545 15.4656C13.4884 15.543 14.3395 15.0874 14.3739 14.4168C14.4083 13.7377 14.735 13.4884 15.3109 13.2907C15.6376 13.1789 15.8869 13.0843 16.162 13.3594C16.2566 13.454 16.4027 13.4884 16.5403 13.5142C17.3226 13.6775 18.2854 13.0241 18.5347 12.1473C18.6207 11.8464 18.6723 11.5025 18.4746 11.279C18.0619 10.8234 18.2424 10.4193 18.466 9.98948C18.4832 9.96369 18.5003 9.92931 18.5089 9.90352C18.5519 9.48227 18.8184 9.38771 19.1881 9.37911C19.6523 9.37052 20.0048 9.1556 20.2541 8.76014C20.9934 7.59958 20.3401 6.22409 18.9818 6.09514ZM18.9646 8.37329C18.7239 8.40768 18.4746 8.44206 18.2338 8.46785C17.9845 8.49364 17.8212 8.63119 17.761 8.8805C17.6235 9.43069 17.4086 9.9551 17.1163 10.4451C16.9873 10.66 17.0045 10.875 17.1506 11.0727C17.228 11.1844 17.314 11.2962 17.3914 11.4166C17.6235 11.7518 17.5977 11.9925 17.3226 12.2676C17.0475 12.5341 16.824 12.5513 16.4973 12.3278C16.4113 12.2676 16.3168 12.2161 16.2308 12.1473C15.9643 11.9238 15.6978 11.9238 15.4055 12.1129C14.9843 12.3794 14.5286 12.5599 14.0472 12.6717C13.7119 12.7491 13.5314 12.9382 13.5142 13.2907C13.5056 13.5486 13.4454 13.7979 13.4196 14.0558C13.3767 14.434 13.0758 14.434 12.8179 14.4426C12.56 14.4512 12.2591 14.434 12.2075 14.073C12.1645 13.7893 12.1387 13.497 12.1043 13.2133C12.0785 12.9554 11.941 12.7748 11.6831 12.7061C11.1329 12.5685 10.6085 12.3622 10.1185 12.0613C9.90356 11.9324 9.69724 11.941 9.49091 12.0957C9.37916 12.1817 9.2674 12.2504 9.14704 12.3364C8.81177 12.5685 8.57106 12.5513 8.29596 12.2676C8.02946 11.9925 8.01227 11.769 8.23578 11.4423C8.31316 11.3306 8.39053 11.2102 8.47649 11.0985C8.63124 10.8836 8.64843 10.6686 8.51088 10.4365C8.21859 9.9551 8.01227 9.44789 7.87472 8.89769C7.80594 8.63979 7.6512 8.50224 7.37611 8.47645C7.09241 8.45066 6.80012 8.39048 6.51643 8.37329C6.3273 8.3561 6.23273 8.26153 6.18115 8.08959C5.99202 7.548 6.20694 7.21272 6.76573 7.12676C7.61682 6.98921 7.76296 7.24711 8.03806 6.11233C8.11543 5.77706 8.27877 5.46758 8.4679 5.18388C8.66562 4.88299 8.65703 4.6079 8.42491 4.3328C8.37333 4.26403 8.33035 4.19525 8.27877 4.12648C8.02946 3.76541 8.04665 3.5333 8.33035 3.24961C8.61404 2.97451 8.82037 2.95732 9.18143 3.20662C9.30179 3.29259 9.42214 3.37856 9.55109 3.46453C9.72303 3.57628 9.91216 3.59348 10.1013 3.49032C10.6085 3.19803 11.1501 2.95732 11.7261 2.81977C11.984 2.75959 12.1043 2.56186 12.1301 2.30396C12.1559 2.02886 12.1903 1.75377 12.2247 1.47007C12.2677 1.10041 12.56 1.09181 12.8265 1.09181C13.093 1.09181 13.3853 1.10041 13.4368 1.46148C13.4798 1.72798 13.5228 1.99448 13.54 2.26098C13.5658 2.57906 13.7119 2.76819 14.03 2.84556C14.5458 2.96591 15.0272 3.17224 15.4743 3.44733C15.7236 3.60207 15.9557 3.60207 16.1878 3.43014C16.291 3.35277 16.3941 3.28399 16.5059 3.20662C16.8498 2.97451 17.0733 2.9917 17.357 3.2754C17.6149 3.5419 17.6321 3.77401 17.4171 4.10069C17.3312 4.22104 17.2452 4.34999 17.1592 4.47035C17.0303 4.66808 17.0131 4.8658 17.1335 5.07212C17.4257 5.56214 17.6493 6.07795 17.7782 6.63674C17.847 6.90324 18.0189 7.03219 18.2768 7.06658C18.5089 7.10096 18.7411 7.12676 18.9818 7.15255C19.403 7.19553 19.532 7.34167 19.532 7.77151C19.5062 8.16697 19.3858 8.31311 18.9646 8.37329Z" fill="white"/>
<path d="M12.8006 4.35858C10.9351 4.36718 9.40482 5.906 9.42202 7.76291C9.43921 9.61981 10.9608 11.1328 12.8092 11.1242C14.7004 11.1157 16.2307 9.58543 16.2049 7.71133C16.1791 5.85442 14.6489 4.35858 12.8006 4.35858ZM12.8263 10.1012C11.511 10.1098 10.445 9.06102 10.445 7.75431C10.445 6.47339 11.5024 5.39879 12.7834 5.3902C14.0901 5.3902 15.1475 6.43041 15.1647 7.74571C15.1819 9.02663 14.1245 10.0926 12.8263 10.1012Z" fill="white"/>
</g>
<defs>
<clipPath id="clip0_914_101">
<rect width="25.6786" height="31" fill="white"/>
</clipPath>
</defs>
</svg>
