<svg width="31" height="27" viewBox="0 0 31 27" fill="none" xmlns="http://www.w3.org/2000/svg">
<g clip-path="url(#clip0_914_106)">
<path d="M30.9924 7.02372C30.9848 6.31831 30.6966 5.73427 30.1201 5.31709C29.6802 4.99852 29.1796 4.92267 28.6562 4.92267H17.4C12.3863 4.92267 7.37264 4.92267 2.35894 4.92267C1.73697 4.92267 1.16051 5.04403 0.682652 5.46879C0.303401 5.81012 0.144115 6.25005 0 6.72032V11.6278C0.0758503 11.7264 0 11.8402 0.0530952 11.9388C0.250306 12.8718 0.834353 13.4179 1.74456 13.6227C5.30193 14.4191 8.85931 15.208 12.4091 15.9968C12.6063 16.0423 12.6897 16.103 12.6822 16.3305C12.6594 16.9373 12.6746 17.5442 12.6746 18.1434C12.6822 18.7881 12.9097 19.0156 13.5469 19.0156C14.8515 19.0156 16.1485 19.0156 17.4531 19.0156C18.0751 19.0156 18.3027 18.7805 18.3103 18.1585C18.3178 17.5593 18.333 16.9677 18.3027 16.3761C18.2875 16.1106 18.3937 16.0423 18.6212 15.9892C22.1786 15.208 25.736 14.4115 29.2934 13.6227C30.2946 13.4027 30.9772 12.5835 30.9848 11.5747C31.0076 10.0501 31.0076 8.54073 30.9924 7.02372ZM16.6795 17.62C15.883 17.6048 15.0866 17.6124 14.2902 17.62C14.1309 17.62 14.0854 17.5745 14.0854 17.4152C14.093 16.6112 14.093 15.8072 14.0854 15.0032C14.0854 14.8591 14.1081 14.7832 14.2826 14.7908C15.0866 14.7984 15.8906 14.7984 16.7022 14.7908C16.8615 14.7908 16.907 14.8439 16.907 14.9956C16.8994 15.3976 16.907 15.7996 16.907 16.2016C16.907 16.596 16.8994 16.9904 16.907 17.3773C16.9146 17.5517 16.8767 17.62 16.6795 17.62ZM29.5892 11.5065C29.5816 11.9692 29.3768 12.1815 28.8989 12.2877C26.6386 12.7959 24.3783 13.2965 22.1255 13.8047C20.9726 14.0626 19.8273 14.3205 18.6743 14.5784C18.3178 14.6618 18.3178 14.6618 18.3178 14.3053C18.3178 14.2219 18.3178 14.1461 18.3103 14.0626C18.2572 13.6227 18.0448 13.3951 17.6048 13.3876C16.2016 13.38 14.7984 13.3724 13.3952 13.3876C12.9021 13.3951 12.6897 13.6682 12.6746 14.2371C12.667 14.6467 12.667 14.6467 12.265 14.5557C8.89723 13.8047 5.52948 13.0462 2.16173 12.2953C1.57769 12.1664 1.40323 11.9616 1.40323 11.3548C1.40323 9.98188 1.40323 8.60899 1.40323 7.2361C1.40323 6.56103 1.63078 6.33348 2.31343 6.33348C6.71275 6.33348 11.1121 6.33348 15.5114 6.33348H28.5576C28.6486 6.33348 28.7397 6.33348 28.8307 6.33348C29.3313 6.35624 29.5816 6.5762 29.5892 7.07682C29.5968 8.5559 29.5968 10.035 29.5892 11.5065Z" fill="white"/>
<path d="M0 11.6279C0.0910203 11.7189 0.0682652 11.8327 0.0530952 11.9389C0.0303401 11.9389 0.0151701 11.9389 0 11.9313C0 11.8327 0 11.7265 0 11.6279Z" fill="#484848"/>
<path d="M15.511 26.7676C11.3241 26.7676 7.13718 26.7676 2.95025 26.7676C2.03246 26.7676 1.33464 26.4187 0.909874 25.5767C0.750588 25.2582 0.705078 24.9092 0.705078 24.5527C0.705078 21.5794 0.705078 18.5985 0.705078 15.6252C0.705078 15.0032 1.06916 14.6998 1.61528 14.8363C1.85042 14.897 1.99453 15.0411 2.0628 15.2763C2.10831 15.4355 2.10831 15.5948 2.10831 15.7541C2.10831 18.6516 2.10831 21.5415 2.10831 24.439C2.10831 25.1444 2.32827 25.3643 3.0261 25.3643C11.3393 25.3643 19.6525 25.3643 27.9581 25.3643C28.6483 25.3643 28.8683 25.1368 28.8683 24.439C28.8683 21.5111 28.8683 18.5909 28.8683 15.6631C28.8683 15.1321 29.0579 14.8742 29.4827 14.8136C29.8923 14.7529 30.2108 15.0032 30.2563 15.4204C30.2639 15.5114 30.2715 15.6024 30.2715 15.6934C30.2715 18.6288 30.2715 21.5642 30.2715 24.4996C30.2715 25.425 29.9302 26.1456 29.0807 26.5704C28.7317 26.7448 28.3525 26.7752 27.9657 26.7752C23.8242 26.7676 19.6676 26.7676 15.511 26.7676Z" fill="white"/>
<path d="M21.1166 2.37411C21.1166 2.55615 21.1318 2.73819 21.1166 2.92023C21.0711 3.29949 20.7829 3.52704 20.4036 3.51945C20.0395 3.50428 19.774 3.26915 19.7437 2.90506C19.721 2.67751 19.7361 2.44238 19.7285 2.20724C19.7134 1.66871 19.4631 1.41081 18.9245 1.41081C16.649 1.40323 14.3659 1.40323 12.0904 1.41081C11.5291 1.41081 11.2864 1.66871 11.2712 2.22241C11.2637 2.46513 11.2788 2.70785 11.2485 2.95058C11.2106 3.28432 10.9527 3.50428 10.6038 3.51945C10.2776 3.54221 9.95903 3.36017 9.91352 3.05677C9.79974 2.29068 9.77699 1.52459 10.27 0.857108C10.7099 0.265476 11.3092 0 12.0297 0C13.4406 0 14.8514 0 16.2622 0C17.0965 0 17.9385 0 18.7728 0C20.3126 0 21.1318 0.826768 21.1166 2.37411Z" fill="white"/>
</g>
<defs>
<clipPath id="clip0_914_106">
<rect width="31" height="26.7676" fill="white"/>
</clipPath>
</defs>
</svg>
