<svg width="23" height="23" viewBox="0 0 23 23" fill="none" xmlns="http://www.w3.org/2000/svg">
<g clip-path="url(#clip0_896_3369)">
<path d="M5.68426 13.3161L4.91847 16.1749L2.11953 16.2341C1.28305 14.6826 0.808594 12.9075 0.808594 11.0212C0.808594 9.19713 1.2522 7.47701 2.03853 5.9624H2.03913L4.53098 6.41925L5.62255 8.89614C5.39409 9.5622 5.26957 10.2772 5.26957 11.0212C5.26965 11.8287 5.41592 12.6023 5.68426 13.3161Z" fill="#FBBB00"/>
<path d="M22.6168 8.96582C22.7431 9.63123 22.809 10.3184 22.809 11.0208C22.809 11.8083 22.7262 12.5765 22.5684 13.3175C22.0329 15.839 20.6337 18.0408 18.6955 19.599L18.6949 19.5984L15.5563 19.4382L15.112 16.6652C16.3982 15.9109 17.4033 14.7306 17.9328 13.3175H12.0508V8.96582H18.0186H22.6168Z" fill="#518EF8"/>
<path d="M18.6941 19.5986L18.6947 19.5992C16.8096 21.1144 14.4149 22.021 11.8082 22.021C7.61914 22.021 3.97707 19.6796 2.11914 16.2339L5.68387 13.3159C6.61281 15.7951 9.00441 17.56 11.8082 17.56C13.0134 17.56 14.1424 17.2342 15.1112 16.6655L18.6941 19.5986Z" fill="#28B446"/>
<path d="M18.8294 2.5534L15.2659 5.47081C14.2632 4.84407 13.078 4.48201 11.8081 4.48201C8.94089 4.48201 6.50456 6.32782 5.62215 8.89594L2.03869 5.9622H2.03809C3.86881 2.43253 7.55682 0.0209961 11.8081 0.0209961C14.4772 0.0209961 16.9244 0.971723 18.8294 2.5534Z" fill="#F14336"/>
</g>
<defs>
<clipPath id="clip0_896_3369">
<rect width="22" height="22" fill="white" transform="translate(0.808594 0.0209961)"/>
</clipPath>
</defs>
</svg>
