<svg width="26" height="25" viewBox="0 0 26 25" fill="none" xmlns="http://www.w3.org/2000/svg">
<path fill-rule="evenodd" clip-rule="evenodd" d="M23.4745 1.67654C22.6377 0.83971 21.2809 0.839677 20.4441 1.67654L2.26132 19.8593C1.42449 20.6961 1.42449 22.0529 2.26132 22.8897C3.09815 23.7266 4.45495 23.7266 5.29178 22.8897L23.4745 4.707C24.3114 3.87013 24.3114 2.51337 23.4745 1.67654Z" fill="white"/>
<path fill-rule="evenodd" clip-rule="evenodd" d="M23.8894 23.4748C24.7262 22.6379 24.7262 21.2812 23.8894 20.4443L5.70663 2.26157C4.8698 1.42474 3.51301 1.42474 2.67618 2.26157C1.83935 3.0984 1.83935 4.45519 2.67618 5.29202L20.8589 23.4748C21.6958 24.3116 23.0526 24.3116 23.8894 23.4748Z" fill="white"/>
</svg>
