<svg width="66" height="73" viewBox="0 0 66 73" fill="none" xmlns="http://www.w3.org/2000/svg">
<path d="M57.4893 14.5701C57.4459 14.1938 57.0991 14.0265 56.839 14.0265C56.5789 14.0265 50.8999 13.6084 50.8999 13.6084C50.8999 13.6084 46.955 9.80333 46.4781 9.42701C46.0446 9.00887 45.2209 9.13431 44.8741 9.21794C44.8308 9.21794 44.0071 9.46882 42.6632 9.88696C41.3194 6.16555 39.0218 2.77864 34.9034 2.77864H34.5133C33.3861 1.35698 31.9122 0.687958 30.6984 0.687958C21.1612 0.687958 16.566 12.1867 15.1354 18.0406C11.4072 19.1696 8.76283 19.9222 8.45937 20.0477C6.37853 20.6749 6.33518 20.7167 6.07507 22.5983C5.85832 24.02 0.439453 64.4538 0.439453 64.4538L42.6199 72.0638L65.5092 67.2971C65.5525 67.2135 57.5326 14.9464 57.4893 14.5701ZM40.3223 10.4723C39.2819 10.765 38.0247 11.1414 36.7675 11.5595V10.8069C36.7675 8.54892 36.4641 6.70912 35.9005 5.24564C38.068 5.49652 39.4119 7.79627 40.3223 10.4723ZM33.2561 5.7056C33.8197 7.12726 34.2098 9.13431 34.2098 11.894V12.3121C31.8689 13.023 29.3979 13.7338 26.8402 14.5283C28.2707 9.25974 31.0018 6.66731 33.2561 5.7056ZM30.4816 3.11314C30.9151 3.11314 31.3487 3.2804 31.6955 3.53128C28.6175 4.91113 25.3662 8.38166 24.0223 15.4064C21.9849 16.0336 20.0341 16.5771 18.17 17.1625C19.7306 11.8104 23.6322 3.11314 30.4816 3.11314Z" fill="#95BF47"/>
<path d="M56.8381 13.9428C56.578 13.9428 50.899 13.5247 50.899 13.5247C50.899 13.5247 46.9541 9.71965 46.4772 9.34333C46.3038 9.17608 46.087 9.09245 45.9136 9.09245L42.749 72.0638L65.6383 67.297C65.6383 67.297 57.6184 14.9464 57.575 14.57C57.4016 14.1937 57.0982 14.0265 56.8381 13.9428Z" fill="#5E8E3E"/>
<path d="M34.9036 26.1525L32.1292 34.2225C32.1292 34.2225 29.6148 32.9263 26.6236 32.9263C22.1585 32.9263 21.9417 35.6442 21.9417 36.3132C21.9417 39.9928 31.9124 41.4145 31.9124 50.0699C31.9124 56.8855 27.4473 61.276 21.4215 61.276C14.1385 61.276 10.4971 56.9273 10.4971 56.9273L12.4479 50.7389C12.4479 50.7389 16.2627 53.9167 19.4707 53.9167C21.5949 53.9167 22.4619 52.3278 22.4619 51.157C22.4619 46.3485 14.312 46.1394 14.312 38.1948C14.312 31.5464 19.254 25.1071 29.268 25.1071C32.9962 25.0653 34.9036 26.1525 34.9036 26.1525Z" fill="white"/>
</svg>
