<svg width="150" height="38" viewBox="0 0 150 38" fill="none" xmlns="http://www.w3.org/2000/svg">
<g opacity="0.5">
<path d="M143.625 37.4708C145.353 36.7697 145.85 35.7499 145.428 33.8504C145.129 32.5246 144.396 31.4666 143.513 30.485C142.444 29.2994 141.188 28.3178 139.932 27.349C138.08 25.9467 136.253 24.5317 134.462 23.0529C132.697 21.5997 131.802 19.7385 131.827 17.4184C131.852 15.5189 132.635 14.0147 134.164 12.9566C135.196 12.2427 136.364 11.8985 137.595 11.8093C137.707 11.7583 137.782 11.7965 137.819 11.924C137.856 12.0642 137.757 12.1407 137.657 12.2172C136.103 13.0586 135.681 14.1931 136.29 15.9014C136.601 16.781 137.16 17.4821 137.856 18.0812C140.554 20.4014 143.364 22.5685 146.111 24.8249C147.404 25.883 148.486 27.1195 149.195 28.6748C149.418 29.1719 149.418 29.7328 149.717 30.1918C149.717 30.3192 149.717 30.4467 149.717 30.5742C149.617 30.9949 149.617 31.4283 149.717 31.849C149.717 31.9765 149.717 32.104 149.717 32.2314C149.505 32.2569 149.555 32.4609 149.53 32.5756C148.784 35.4567 146.808 37.2286 143.898 37.5856C143.762 37.6493 143.625 37.713 143.625 37.4708Z" fill="black"/>
<path d="M149.717 31.8489C149.505 31.4283 149.53 30.9948 149.717 30.5742C149.717 31.0076 149.717 31.4283 149.717 31.8489Z" fill="#707070"/>
<path d="M1.71138 36.196C2.61893 34.9977 2.73082 33.5699 2.74325 32.1549C2.78055 26.1506 2.76811 20.1464 2.76811 14.1421C2.76811 11.618 2.76811 9.09393 2.76811 6.56984C2.76811 5.42253 2.68109 4.27521 2.28326 3.19164C2.00975 2.42676 1.61192 1.73838 0.853551 1.36869C0.953009 1.21571 1.11463 1.2667 1.25138 1.2667C4.48376 1.2667 7.71614 1.2667 10.9485 1.2667C11.0107 1.2667 11.0604 1.27945 11.2096 1.30495C9.56855 2.52875 9.44422 4.3262 9.40693 6.07267C9.34476 10.1902 9.38206 14.3078 9.36963 18.4382C9.36963 18.7823 9.44422 18.9098 9.80476 18.9098C14.3052 18.8971 18.7933 18.8971 23.2937 18.9098C23.6294 18.9098 23.7164 18.8078 23.7164 18.4764C23.6916 14.1676 23.6916 9.8588 23.6791 5.55C23.6791 4.9381 23.5548 4.3262 23.4056 3.72705C23.157 2.78371 22.7591 1.9296 21.8143 1.33044C25.2953 1.33044 28.6644 1.33044 32.1206 1.33044C30.4174 2.69447 30.3304 4.61941 30.3304 6.49335C30.3055 14.9452 30.3179 23.3971 30.3304 31.849C30.3304 32.5501 30.3925 33.2512 30.492 33.9396C30.7033 35.2654 31.2255 36.4 32.3568 37.3051C28.7763 37.3051 25.2829 37.3051 21.7024 37.3051C23.3808 35.8773 23.7164 33.9779 23.7164 31.9509C23.7164 27.8716 23.704 23.7923 23.7289 19.7129C23.7289 19.2285 23.6045 19.1138 23.1445 19.1138C18.756 19.1265 14.3674 19.1265 9.96638 19.1138C9.51882 19.1138 9.36963 19.203 9.36963 19.7002C9.39449 23.805 9.38206 27.8971 9.38206 32.0019C9.38206 32.6903 9.45666 33.3532 9.56855 34.0289C9.77989 35.3036 10.2896 36.4127 11.2966 37.2286C11.2593 37.3943 11.135 37.3433 11.048 37.3433C7.75344 37.3433 4.4589 37.3433 1.16436 37.3433C1.00274 37.3433 0.828687 37.4071 0.716797 37.2286C1.00274 36.8589 1.31354 36.4765 1.71138 36.196Z" fill="black"/>
<path d="M78.1198 17.3291C77.3241 15.9778 76.3544 14.7668 75.1609 13.7469C72.1523 11.1846 68.547 11.0061 65.3146 13.288C64.9168 13.5685 64.5314 13.8872 64.0589 14.2441V0.973511C62.1568 3.51035 59.6828 4.56842 56.5996 4.74689C57.9547 5.70299 58.4396 6.97778 58.6509 8.40555C58.7255 8.90272 58.7504 9.42538 58.7628 9.92255C58.7752 18.7314 58.7752 27.5529 58.7752 36.3617C58.7752 36.5784 58.7877 36.7824 58.7752 36.9991C58.7504 37.3561 58.8747 37.3816 59.1731 37.2413C60.3044 36.7187 61.4482 36.2215 62.5919 35.7243C62.9276 35.5841 63.0395 35.3291 63.1017 34.985C63.2633 34.0161 63.4373 33.06 63.6238 31.9764C63.8849 32.2824 64.0589 32.4991 64.233 32.7031C66.0357 34.883 68.2237 36.502 70.9091 37.3688C74.8128 38.6181 78.1571 37.1139 79.91 33.315C80.569 31.9 80.8798 30.3957 80.9916 28.8277C81.2776 24.6974 80.196 20.8858 78.1198 17.3291ZM75.4966 34.781C75.3723 35.0997 75.2355 35.4056 75.0739 35.6988C73.955 37.713 72.3761 38.07 70.5113 36.7314C69.4172 35.9411 68.6091 34.8957 67.9254 33.7484C65.0162 28.7895 63.686 23.4226 64.1957 17.635C64.3076 16.373 64.7179 15.1874 65.4141 14.1294C66.3713 12.6888 67.9378 12.2554 69.4421 13.0585C70.8594 13.8107 71.8788 15.0217 72.6745 16.4112C74.7009 19.9679 75.7577 23.8433 76.1182 27.9354C76.1804 28.6747 76.2177 29.4141 76.255 29.975C76.2177 31.747 76.0685 33.3022 75.4966 34.781Z" fill="black"/>
<path d="M101.243 14.958C97.7872 10.9297 93.4732 10.6365 89.3581 13.9382C89.2463 14.0274 89.1717 14.1804 88.9354 14.1294V0.986328C87.0333 3.54866 84.5344 4.58124 81.501 4.75971C82.8064 5.69031 83.3285 6.88861 83.5026 8.29089C83.602 9.05576 83.6518 9.80789 83.6518 10.5728C83.6642 19.2541 83.6642 27.9354 83.6766 36.6168V37.4071C84.9571 36.8462 86.1631 36.2981 87.3814 35.7754C87.742 35.6224 87.916 35.3802 87.9782 34.985C88.1149 34.0289 88.3014 33.0856 88.4755 32.0658C88.5873 32.1295 88.6122 32.1422 88.6246 32.155C88.7863 32.3462 88.9479 32.5374 89.1095 32.7414C91.0241 35.036 93.3365 36.7187 96.2083 37.5091C99.7391 38.478 102.723 37.1777 104.501 33.9015C105.445 32.155 105.818 30.2555 105.881 28.2796C106.042 23.2187 104.501 18.7314 101.243 14.958ZM100.025 35.5969C99.8261 35.9794 99.6023 36.3236 99.3288 36.6423C98.5829 37.4964 97.6877 37.7131 96.631 37.3689C95.6116 37.0374 94.8283 36.3491 94.1445 35.5459C92.4662 33.5573 91.3473 31.2626 90.5268 28.7895C89.5322 25.7555 88.8982 22.6578 88.9603 19.4453C88.9852 17.8263 89.209 16.2328 89.9549 14.7668C91.0987 12.5232 93.0629 12.0388 95.0645 13.5175C96.3699 14.4864 97.2775 15.7867 98.0234 17.2272C99.7639 20.5671 100.671 24.1493 101.007 27.9099C101.069 28.6748 101.144 29.4269 101.194 29.9878C101.069 32.0403 100.908 33.9015 100.025 35.5969Z" fill="black"/>
<path d="M56.5006 34.1309C54.6482 34.0289 53.6412 32.9071 53.119 31.1861C52.659 29.6691 52.5098 28.1138 52.398 26.5458C52.2363 24.2002 52.3234 21.8291 52.025 19.4835C51.5526 15.6591 49.3521 13.0203 45.7591 12.026C44.3916 11.6435 42.9868 11.516 41.5695 11.5925C41.7933 11.9622 42.1662 11.6308 42.4397 11.8093C45.1873 11.975 47.2635 16.526 45.0505 19.0118C44.3294 19.8277 43.5338 20.5161 42.6387 21.0897C40.7365 22.288 38.822 23.4736 36.9198 24.6719C35.7015 25.4495 34.595 26.3801 33.7123 27.5529C32.121 29.6563 32.0464 32.4609 33.501 34.5388C36.7085 39.1153 44.7521 39.0006 47.164 33.3405C47.2386 33.1748 47.2386 32.9198 47.4997 32.8688C47.6986 33.6209 47.9348 34.3348 48.2705 35.0232C49.1904 36.8717 51.1174 37.968 53.119 37.8023C55.2698 37.6238 56.6125 36.4 56.7741 34.5133C56.8114 34.2711 56.799 34.1564 56.5006 34.1309ZM46.4305 33.8504C45.9581 34.3731 45.4235 34.7937 44.8516 35.1889C41.8306 37.2668 38.2874 35.036 37.7031 31.951C37.3674 30.2045 37.6906 28.5855 38.5112 27.043C39.282 25.5898 40.3636 24.3914 41.5198 23.2569C42.5889 22.2243 43.6457 21.179 44.7148 20.1464C45.3116 19.5727 45.871 18.9608 46.3683 18.1322C46.6045 19.7385 46.5797 21.2172 46.617 22.6832C46.6916 25.526 46.8656 28.3688 47.251 31.1861C47.4126 32.2569 47.1143 33.0983 46.4305 33.8504Z" fill="black"/>
<path d="M116.387 11.669C118.475 11.2993 120.427 10.5982 122.093 9.27241C123.722 7.97212 125.338 6.62084 125.711 4.30072C125.723 4.47919 125.736 4.64491 125.736 4.82338C125.736 6.92679 125.748 9.0302 125.723 11.1336C125.723 11.516 125.81 11.6563 126.196 11.6308C126.942 11.5925 127.688 11.6308 128.434 11.618C128.732 11.6053 128.831 11.7073 128.819 12.0132C128.794 12.4976 128.819 12.9821 128.819 13.594C127.924 13.084 127.103 12.6379 126.295 12.1407C125.823 11.8475 125.736 11.9622 125.736 12.4849C125.785 17.2654 125.81 22.0331 125.848 26.8135C125.86 28.458 126.096 30.0643 126.594 31.6323C127.029 33.009 127.8 33.9906 129.242 34.2838C129.751 34.3858 129.789 34.628 129.59 35.0869C128.583 37.3561 126.096 38.5161 123.858 37.7258C122.615 37.2796 121.832 36.3745 121.36 35.1507C120.75 33.5954 120.489 31.9637 120.477 30.3065C120.44 24.3787 120.39 18.4637 120.39 12.5359C120.39 11.9622 120.253 11.822 119.706 11.8475C118.612 11.8985 117.518 11.8602 116.412 11.8602C116.412 11.7965 116.399 11.7328 116.387 11.669Z" fill="black"/>
<path d="M106.602 14.2441C109.399 14.0019 111.761 13.0586 113.912 11.5416C114.073 11.8093 113.999 12.0387 113.999 12.2682C114.011 18.8079 114.024 25.3476 114.011 31.8872C114.011 33.8887 114.235 35.7754 115.739 37.3561C112.78 37.3561 109.933 37.3561 107.086 37.3561C107.012 37.2414 107.099 37.1776 107.173 37.0884C108.23 35.8391 108.64 34.3476 108.653 32.7414C108.665 28.1394 108.653 23.5246 108.653 18.9226C108.653 18.0303 108.491 17.1506 108.243 16.2965C108.006 15.4297 107.534 14.7668 106.602 14.2441Z" fill="black"/>
<path d="M113.925 5.65203C113.937 7.65345 112.532 9.15771 110.68 9.15771C108.604 9.15771 106.739 7.20728 106.714 4.98914C106.689 2.93672 108.131 1.35598 110.009 1.36873C112.097 1.36873 113.912 3.37015 113.925 5.65203Z" fill="black"/>
<path d="M41.1963 11.822C38.0137 12.4084 36.7456 15.9268 38.772 18.5401C39.1201 18.9863 39.5428 19.3305 40.1271 19.3305C40.5498 19.3432 40.5125 19.509 40.3385 19.7894C40.1271 20.1209 39.8536 20.3758 39.518 20.5415C38.3493 21.1279 37.1434 21.2809 35.9126 20.8475C34.2218 20.2611 33.3764 18.4509 33.7991 16.424C34.0478 15.2257 34.6694 14.2823 35.5769 13.5302C36.9569 12.3956 38.5358 11.771 40.3012 11.6817C40.5996 11.6945 40.9352 11.4905 41.1963 11.822Z" fill="black"/>
<path d="M131.678 26.5076C132.25 31.645 135.01 35.0614 139.61 37.0246C140.455 37.3815 141.363 37.509 142.27 37.611C142.345 37.662 142.457 37.7002 142.395 37.8405C139.573 38.0572 136.887 37.3815 134.264 36.4509C131.778 35.5713 132.126 35.9028 131.952 33.264C131.827 31.3135 131.691 29.3758 131.566 27.4254C131.541 27.1067 131.355 26.7753 131.678 26.5076Z" fill="#010101"/>
<path d="M137.657 12.2172C137.719 12.0769 137.844 11.924 137.607 11.822C139.323 11.516 141.014 11.7582 142.692 12.1279C144.507 12.5231 146.26 13.1605 148.15 13.1605C148.175 13.1605 148.212 13.2115 148.237 13.237C148.349 13.8234 148.287 14.4225 148.287 15.0089C148.299 16.8956 148.299 18.7823 148.287 20.6818C148.287 20.873 148.448 21.1534 148.125 21.2682C147.802 16.8956 145.626 13.9636 141.623 12.4466C140.33 11.9622 139 11.873 137.657 12.2172Z" fill="#010101"/>
<path d="M148.114 21.2682C148.25 21.0387 148.188 20.771 148.188 20.5288C148.201 18.094 148.213 15.6719 148.226 13.237C148.362 13.3517 148.3 13.5175 148.3 13.6449C148.313 16.1818 148.313 18.7059 148.3 21.2427C148.3 21.3702 148.412 21.5869 148.188 21.5869C148.064 21.5869 148.101 21.3957 148.114 21.2682Z" fill="#393939"/>
<path d="M41.1959 11.8219C40.9224 11.5925 40.5867 11.8347 40.3008 11.6945C40.7235 11.567 41.1462 11.567 41.5813 11.6052C41.8424 11.8092 42.2029 11.567 42.4516 11.8219C42.0289 11.8219 41.6062 11.8219 41.1959 11.8219Z" fill="#333333"/>
<path d="M131.678 26.5076C131.467 26.7881 131.678 27.1323 131.554 27.4255C131.442 26.9666 131.404 26.4949 131.491 25.9722C131.74 26.138 131.678 26.3292 131.678 26.5076Z" fill="#373737"/>
<path d="M142.382 37.8277C142.345 37.7512 142.295 37.6748 142.258 37.5983C142.345 37.5983 142.432 37.5983 142.506 37.5983C142.705 37.7257 142.966 37.5473 143.153 37.7257C142.904 37.866 142.643 37.8532 142.382 37.8277Z" fill="#222222"/>
<path d="M143.152 37.7385C142.941 37.6493 142.692 37.8023 142.506 37.6111C142.742 37.5983 142.978 37.5856 143.215 37.5728C143.339 37.5473 143.488 37.4581 143.5 37.7003C143.376 37.7131 143.264 37.7258 143.152 37.7385Z" fill="#010101"/>
<path d="M143.501 37.7003C143.401 37.6621 143.314 37.6111 143.215 37.5729C143.339 37.4709 143.476 37.4581 143.625 37.4709C143.712 37.5091 143.812 37.5601 143.899 37.5984C143.787 37.7131 143.638 37.7131 143.501 37.7003Z" fill="#222222"/>
</g>
</svg>
