<svg width="167" height="41" viewBox="0 0 167 41" fill="none" xmlns="http://www.w3.org/2000/svg">
<path d="M135.413 2.92084C135.413 2.92084 135.413 2.95275 135.396 2.98466C135.38 2.9687 135.38 2.95275 135.364 2.93679C135.38 2.92084 135.396 2.92084 135.413 2.92084Z" fill="black"/>
<path d="M135.412 2.92097C135.428 2.87311 135.428 2.90502 135.412 2.92097V2.92097Z" fill="black"/>
<path d="M8.48046 39.1189C5.87445 39.1189 3.28434 39.1189 0.408203 39.1189C2.23558 37.7682 1.98134 35.9726 1.98134 34.2406C1.98134 24.3727 1.96545 14.5048 1.99723 4.63698C1.99723 3.41343 1.45696 2.58714 0.519435 1.72906C3.25256 1.72906 5.84267 1.72906 8.43279 1.72906C8.43279 1.74496 8.44868 1.80852 8.43279 1.82441C7.19335 2.74604 6.85965 3.96959 6.87554 5.49506C6.92321 15.3788 6.89143 25.2467 6.89143 35.1145C6.89143 36.6718 6.97088 38.1655 8.48046 39.1189Z" fill="black"/>
<path d="M165.937 38.8964C162.966 37.2279 160.678 34.7649 158.31 32.3655C154.401 28.3929 150.429 24.4521 146.504 20.4955C146.233 20.2253 145.82 20.0346 146.345 19.5103C151.175 14.7908 155.974 10.0555 160.773 5.32025C161.997 4.12848 163.204 2.92082 164.571 1.57015C162.616 1.57015 160.884 1.58604 159.152 1.55426C158.533 1.53836 158.278 1.6496 158.564 2.31699C159.057 3.4452 158.787 4.31916 157.897 5.20902C150.524 12.6139 143.198 20.0823 135.857 27.519C135.698 27.6779 135.571 27.9639 135.237 27.948C135.237 20.1935 135.253 12.455 135.222 4.73231C135.222 3.71533 135.555 2.93671 136.27 2.28521C136.461 2.11041 136.652 1.9674 136.969 1.72905H128.913C129.31 2.17398 129.628 2.52356 129.946 2.87315C130.2 3.34986 130.311 3.84245 130.311 4.39861C130.311 14.9815 130.296 25.5803 130.311 36.1633C130.311 37.0849 129.994 37.8635 129.39 38.5468C129.247 38.7216 128.977 38.8169 129.008 39.1188H136.858C135.428 38.2131 135.19 36.8465 135.237 35.3529C135.269 34.1611 135.269 32.9693 135.237 31.7775C135.222 31.1578 135.365 30.6334 135.778 30.1726C135.921 30.0614 136.064 29.9502 136.191 29.823C138.209 27.805 140.227 25.7869 142.245 23.753C142.547 23.4352 142.738 23.308 143.119 23.7053C147.997 28.7425 152.971 33.6844 157.754 38.8169C158.056 39.1347 158.342 39.2619 158.771 39.246C160.153 39.2142 161.52 39.246 162.902 39.246H166.223C166.033 39.0076 166.001 38.9282 165.937 38.8964ZM135.412 2.92082C135.428 2.87315 135.428 2.90493 135.412 2.92082C135.412 2.92082 135.412 2.9526 135.396 2.98438C135.38 2.96849 135.38 2.9526 135.365 2.93671C135.38 2.92082 135.396 2.92082 135.412 2.92082Z" fill="black"/>
<path d="M135.413 2.92084C135.413 2.92084 135.413 2.95275 135.396 2.98466C135.38 2.9687 135.38 2.95275 135.364 2.93679C135.38 2.92084 135.396 2.92084 135.413 2.92084Z" fill="black"/>
<path d="M135.412 2.92097C135.428 2.87311 135.428 2.90502 135.412 2.92097V2.92097Z" fill="black"/>
<path d="M103.822 38.8487H114.087C112.673 37.7682 111.592 36.5923 110.909 35.0986C109.161 31.2532 107.429 27.4077 105.681 23.5464C104.632 21.2264 103.552 18.8905 102.487 16.5706C102.471 16.4911 102.471 16.4117 102.44 16.3322C100.31 11.5651 98.1651 6.76627 96.0358 1.96741C95.8928 1.6496 95.7021 1.55426 95.3684 1.55426C93.9383 1.57015 92.5081 1.57015 91.078 1.55426C90.792 1.55426 90.5536 1.61782 90.4424 1.90385C89.7432 3.52465 89.0441 5.14546 88.3608 6.76627C88.2654 6.92517 88.1542 7.06818 88.0748 7.24298C83.9433 16.5388 79.7165 25.771 75.4579 35.0033C74.8223 36.354 74.2025 37.7205 73.5352 39.1347H79.0968C78.7472 38.2767 78.3976 37.4504 78.0798 36.6241C77.9209 36.195 77.8573 35.7819 78.0321 35.3211C79.1762 32.4449 80.368 29.6006 81.6074 26.7721C81.7981 26.3431 82.0206 26.2477 82.4337 26.2477C88.5674 26.2636 94.7169 26.2636 100.851 26.2477C101.359 26.2477 101.581 26.4225 101.788 26.8675C102.996 29.6006 104.219 32.3178 105.459 35.0192C105.713 35.5753 105.713 36.0679 105.347 36.5764C104.855 37.3074 104.362 38.0542 103.822 38.8487ZM82.5767 24.5316C83.4984 22.4182 84.3882 20.3683 85.2622 18.3026C86.6128 15.1404 87.9476 11.9942 89.2983 8.832V8.81611C90.0134 7.24298 90.7125 5.65395 91.4594 4.00136C91.9838 4.81177 92.2857 5.70162 92.667 6.54381C94.8281 11.3586 96.9733 16.1733 99.1344 21.004C99.2138 21.1787 99.3251 21.3376 99.4204 21.4965C99.4363 21.5124 99.4363 21.5283 99.4522 21.5442C99.8653 22.5294 100.278 23.5305 100.692 24.5316H82.5767Z" fill="black"/>
<path d="M55.9443 24.6269C58.4549 28.4883 57.4856 34.1293 53.8626 36.64C53.7514 36.8148 53.5925 36.926 53.4018 36.9737V36.9896C52.1147 38.0542 50.5575 38.5786 49.0002 39.0553C45.3772 40.1358 41.7066 40.5172 37.9724 39.7068C33.539 38.7375 29.7412 36.7671 26.9922 32.8899C28.7878 32.2066 30.5834 31.5074 32.4743 30.7924C32.2042 31.6663 31.9341 32.4608 31.9023 33.303C31.8705 33.9545 32.0453 34.4789 32.4743 34.9715C33.8568 36.5764 35.6683 37.4345 37.6704 37.9907C41.4841 39.0394 45.2342 38.9758 48.889 37.2915C49.9695 36.7989 50.8435 36.052 51.638 35.194C51.6221 34.9874 51.7651 34.8762 51.924 34.7649C52.0511 34.5584 52.1783 34.3518 52.2895 34.1452C52.8933 32.4291 53.084 30.697 52.512 28.9491C51.638 26.3113 49.5723 24.913 47.2046 23.8324C44.4079 22.5612 41.4047 21.862 38.4809 20.9722C36.2244 20.2889 33.9839 19.5738 31.9341 18.398C26.4519 15.2358 26.15 8.02161 31.2984 4.16027C33.8568 2.23755 36.7806 1.36359 39.8951 0.998111C44.1537 0.489622 48.2375 1.09345 52.0352 3.12741C54.2122 4.2874 56.0396 5.92409 58.0259 7.51312C56.1826 8.21229 54.6254 9.26105 52.7662 9.92844C52.8457 9.1816 52.8933 8.5301 52.9728 7.8786C53.0522 7.24299 52.8615 6.70272 52.4643 6.19423C51.0659 4.41452 49.2386 3.38165 47.1569 2.82549C43.7564 1.91975 40.3718 1.80851 37.0189 3.11152C35.5412 3.68357 34.2381 4.50986 33.253 5.78108C31.1395 8.5301 31.6004 12.1213 34.3971 14.187C36.3357 15.633 38.608 16.364 40.8962 17.0632C43.8518 17.9689 46.855 18.7316 49.6994 19.9393C52.1624 20.9881 54.4347 22.307 55.9443 24.6269Z" fill="black"/>
</svg>
