<svg width="14" height="15" viewBox="0 0 14 15" fill="none" xmlns="http://www.w3.org/2000/svg">
<path d="M13.3636 6.81818H7.63636V0.681818C7.63636 0.305287 7.35143 0 7 0C6.64857 0 6.36364 0.305287 6.36364 0.681818V6.81818H0.636364C0.284935 6.81818 0 7.12347 0 7.5C0 7.87653 0.284935 8.18182 0.636364 8.18182H6.36364V14.3182C6.36364 14.6947 6.64857 15 7 15C7.35143 15 7.63636 14.6947 7.63636 14.3182V8.18182H13.3636C13.7151 8.18182 14 7.87653 14 7.5C14 7.12347 13.7151 6.81818 13.3636 6.81818Z" fill="white"/>
</svg>
