<svg width="226" height="41" viewBox="0 0 226 41" fill="none" xmlns="http://www.w3.org/2000/svg">
<g clip-path="url(#clip0_896_3189)">
<path d="M0.59668 17.2348C1.22232 15.8272 1.43086 14.2631 1.79581 12.7511C2.0565 11.7605 2.47359 10.9264 3.25563 10.1965C3.56845 9.72722 3.88127 9.258 3.82913 8.63236C5.86244 5.08709 8.93848 2.94951 13.0051 2.68883C15.3512 2.53242 17.7495 2.27174 20.0435 3.31446C22.5982 4.40932 24.6315 6.07768 26.0392 8.47595C26.6127 9.46654 27.3947 10.3529 27.7597 11.4999C29.011 15.4622 29.8973 19.4767 28.6981 23.5433C27.5511 27.4536 25.8828 31.1552 22.3375 33.6578C22.0247 33.8663 21.764 34.1791 21.5033 34.4398C21.3991 34.7005 21.1384 34.8569 21.1384 35.1697C21.6076 36.7338 22.7025 37.2552 24.2144 36.5774C24.7358 36.3167 25.3093 36.0039 25.7264 35.5868C26.4041 34.9612 26.717 35.5347 27.134 35.8475C27.7075 36.2646 27.4469 36.6295 27.0298 36.9945C25.5178 38.35 23.9537 39.7056 21.8161 39.862C21.2948 40.1227 20.7213 39.7577 20.1999 40.0705C20.0435 40.0705 19.835 40.0705 19.6786 40.0705C18.2709 39.7577 17.3846 38.8193 16.7589 37.568C16.5504 37.0988 16.2897 36.6295 15.9247 36.2646C15.3512 35.639 15.2991 34.9612 15.6641 34.2313C16.0812 33.6578 16.1333 32.98 16.0812 32.3022C16.1854 31.833 16.4982 31.7287 16.9153 31.833C17.176 31.9373 17.2282 32.198 17.2803 32.4065C17.3846 32.6672 17.541 32.6151 17.6974 32.5108C18.0623 32.2501 17.9581 31.833 18.1145 31.4681C19.3136 29.8518 19.9914 27.9228 20.5127 26.0459C20.8777 24.6903 20.7734 23.1262 20.7734 21.6664C20.8256 18.8511 20.982 16.0357 20.617 13.2204C20.3563 11.2392 19.835 9.20586 18.7401 7.43323C18.1666 6.54691 17.6974 6.49477 16.9675 7.22468C16.394 7.85032 15.8726 8.52809 15.8205 9.36227C15.7683 11.0828 15.3512 12.8033 16.2897 14.4716C16.6547 15.1494 16.4982 15.8272 15.8726 16.3485C15.247 16.8699 14.5692 16.8178 13.9436 16.3485C13.3179 15.8272 13.3179 15.2015 13.6308 14.4716C14.3607 12.6469 13.9957 10.7178 13.8914 8.84091C13.8914 8.63236 13.735 8.42382 13.6829 8.21527C12.7966 6.49477 12.1709 6.54691 10.9197 8.00673C9.2513 9.88363 9.51198 12.1776 9.19917 14.3674C8.83421 16.8699 9.14703 19.3724 9.04276 21.875C8.93849 24.3254 9.51198 26.5672 9.8248 28.9134C9.87694 29.2262 9.98121 29.4869 10.2419 29.6954C11.4932 30.8424 12.3795 32.3022 14.0478 33.0321C15.0906 33.5014 14.7777 34.5962 14.6213 35.4825C14.4128 36.4731 13.5265 36.5774 12.7444 36.421C10.7633 36.1082 8.88635 35.4304 7.21799 34.2313C3.98554 32.0416 2.16077 28.8612 1.27445 25.0553C0.909497 23.5955 0.700952 22.1878 0.753089 20.728C0.700952 20.2588 0.909497 19.7895 0.59668 19.3724C0.59668 18.6425 0.59668 17.9648 0.59668 17.2348Z" fill="black"/>
<path d="M20.1484 40.1749C20.6177 39.7056 21.1912 39.9663 21.7647 39.9663C21.7647 40.0185 21.7125 40.1227 21.7125 40.1749C21.1912 40.1749 20.6698 40.1749 20.1484 40.1749Z" fill="#70B8B8"/>
<path d="M0.805089 20.6237C0.752987 20.6237 0.648782 20.6237 0.59668 20.6237C0.59668 20.2066 0.59668 19.7374 0.59668 19.3203C1.0656 19.6853 0.805089 20.2066 0.805089 20.6237Z" fill="#CAE4E4"/>
<path d="M198.454 23.9605C198.454 18.6426 198.663 13.3247 198.715 8.00675C198.715 7.22471 198.35 6.91189 197.62 6.85976C197.099 6.80762 196.682 6.75548 196.734 6.07771C196.786 5.3478 197.359 5.66062 197.724 5.55635C199.862 5.08712 201.999 5.86917 204.085 5.3478C204.815 5.19139 204.971 5.60848 204.971 6.23412C204.867 8.89307 204.815 11.6042 204.711 14.2631C204.606 16.8699 204.606 19.4767 204.658 22.0836C204.711 25.0032 204.919 27.8707 204.815 30.7903C204.763 31.5202 205.075 32.3023 205.18 33.0843C205.336 34.3356 205.336 35.5868 205.493 36.8381C205.649 37.9851 205.232 37.933 204.45 37.933C202.156 37.933 199.862 37.933 197.568 37.933C197.151 37.933 196.421 38.0894 196.629 37.3073C196.786 36.6296 195.899 35.4826 197.359 35.274C198.141 35.1698 198.558 34.8048 198.506 33.9185C198.402 30.5296 198.454 27.245 198.454 23.9605Z" fill="black"/>
<path d="M91.9911 13.7938C91.9911 11.9169 91.9911 9.98789 91.9911 8.11099C91.9911 7.22467 91.7826 6.39049 90.5834 6.28622C89.9578 6.23408 90.0099 5.76485 90.0099 5.29563C90.0099 4.77426 90.427 4.8264 90.7398 4.8264C92.9296 4.8264 95.0672 4.87854 97.2569 4.87854C97.674 4.87854 97.9868 4.98281 97.9868 5.55631C97.8825 8.16312 97.9868 10.8221 97.8304 13.4289C97.674 15.8793 97.6218 18.3297 97.9868 20.7801C98.0911 21.51 98.2475 22.3963 97.5176 23.0741C96.8919 23.6476 97.9347 23.5433 97.8825 23.6997C97.3612 25.4202 98.8731 26.9843 98.0911 28.7048C97.3612 30.4253 98.5603 32.1458 98.3517 33.8663C98.2996 34.3355 98.7688 34.4398 99.1859 34.4919C100.698 34.7005 100.02 35.8475 100.072 36.6295C100.124 37.6201 99.2902 37.203 98.821 37.203C96.162 37.2552 93.5552 37.0466 90.8963 37.203C90.4792 37.2552 89.8535 37.3073 90.0099 36.6295C90.1142 35.8996 89.3843 34.8048 90.5313 34.4919C91.7304 34.1791 91.8869 33.6056 91.8869 32.5629C91.8347 26.3587 91.8347 20.0502 91.8347 13.7938C91.8868 13.7938 91.939 13.7938 91.9911 13.7938Z" fill="black"/>
<path d="M190.894 31.1031C192.614 31.7809 192.093 32.7714 191.311 33.8142C190.477 34.9612 190.112 36.5253 188.548 37.0988C185.367 38.2458 182.083 36.3167 181.457 32.8236C180.936 29.7475 181.249 26.6715 181.196 23.5955C181.196 22.1878 181.144 20.728 181.249 19.3203C181.301 18.3818 181.092 17.9126 180.049 18.069C179.684 18.1211 178.955 18.3818 178.902 17.7041C178.85 17.0263 178.537 16.2964 179.32 15.7229C182.135 13.6374 184.377 11.0306 186.045 7.90243C186.202 7.64175 186.358 7.38107 186.514 7.17253C186.671 6.96398 186.931 6.85971 187.192 6.91185C187.557 7.01612 187.401 7.32894 187.401 7.58962C187.401 9.72721 187.453 11.8127 187.401 13.9502C187.401 14.6802 187.557 14.993 188.339 14.9408C188.913 14.8887 189.486 14.993 190.007 14.9408C191.207 14.7844 191.728 15.0972 191.624 16.4528C191.519 18.1733 191.572 18.1211 189.851 18.1211C189.017 18.1211 188.183 18.1733 187.401 18.1733C187.401 18.9032 187.453 19.6331 187.453 20.363C187.609 23.5433 187.14 26.7758 187.14 29.9561C187.14 30.5817 187.192 31.2595 187.296 31.8851C187.505 32.7714 187.818 33.7099 188.808 33.7099C189.851 33.7099 190.372 32.7714 190.789 31.8851C190.946 31.5723 190.894 31.2595 190.894 31.1031Z" fill="black"/>
<path d="M153.826 24.0126C153.982 21.3536 153.878 18.6947 153.513 16.0357C153.2 13.6896 153.878 13.0639 156.276 13.5332C158.518 13.9503 159.561 15.6186 159.978 17.5998C160.655 20.5194 160.29 23.5433 160.186 26.5151C160.186 26.9843 160.343 33.1886 160.499 33.6578C160.603 34.1791 160.916 34.492 161.385 34.7005C162.219 35.1697 162.584 36.2646 162.219 37.1509C162.063 37.568 161.75 37.4637 161.437 37.4637C158.883 37.4637 156.328 37.4637 153.773 37.4637C153.2 37.4637 153.096 37.203 153.043 36.6817C152.887 35.5347 153.617 34.5441 153.617 33.4492C153.669 31.3116 153.617 29.1219 153.617 26.9843C153.93 25.9937 153.565 25.0032 153.826 24.0126Z" fill="black"/>
<path d="M61.5959 15.1494C61.6481 15.1494 61.7002 15.1494 61.7002 15.1494C63.0558 15.1494 64.7763 14.5759 65.6104 15.3058C66.4446 16.0357 65.819 17.8084 65.8711 19.1639C65.9754 22.4485 65.9754 25.6809 65.9754 28.9655C65.9754 30.6339 65.8711 32.3023 65.8711 33.9706C65.8711 34.7527 66.2361 35.3783 67.0181 35.4304C67.9566 35.5347 67.8002 36.1082 67.8523 36.7338C67.9044 37.6202 67.2788 37.4637 66.8096 37.5159C65.5583 37.6202 64.307 37.7244 63.0558 37.568C61.4917 37.3073 59.9797 38.0372 58.4156 37.8808C57.9464 37.8287 57.2165 38.0894 57.3208 37.2552C57.425 36.5253 56.5909 35.3262 58.155 35.1176C59.0413 35.0133 59.3541 34.5441 59.4062 33.6578C59.5105 31.1553 59.5626 28.6527 59.5626 26.1502C59.5626 23.4391 59.5105 20.728 59.3541 18.0169C59.3019 17.287 59.0934 16.7656 58.2071 16.7656C57.4772 16.7656 57.2686 16.4007 57.3208 15.6708C57.3729 14.7845 57.9985 15.2016 58.3635 15.2016C59.5626 15.0973 60.6054 15.1494 61.5959 15.1494Z" fill="black"/>
<path d="M169.674 15.1494C170.821 15.1494 172.02 15.2015 173.167 15.1494C173.845 15.0972 174.054 15.3579 174.054 16.0357C174.001 19.3724 173.845 22.7613 174.001 26.098C174.106 28.5484 174.106 30.9988 173.949 33.4492C173.897 34.4919 174.158 35.3783 175.409 35.5347C176.295 35.6911 175.93 36.3688 175.983 36.8902C176.087 37.568 175.566 37.4637 175.148 37.5158C173.845 37.6722 172.594 37.7765 171.29 37.568C169.674 37.3073 168.11 38.0372 166.494 37.8808C165.868 37.8287 165.295 37.7765 165.451 36.9945C165.555 36.3167 164.878 35.2218 166.233 35.1176C167.224 35.0133 167.537 34.4919 167.537 33.5535C167.537 31.5202 167.589 29.4869 167.641 27.4535C167.745 24.3775 167.589 21.3015 167.537 18.1733C167.537 17.287 167.276 16.6613 166.233 16.6613C165.503 16.6613 165.608 16.14 165.555 15.6707C165.503 14.8887 166.025 15.1494 166.442 15.1494C167.537 15.0972 168.579 15.1494 169.674 15.1494Z" fill="black"/>
<path d="M143.659 33.0843C143.19 31.4159 143.502 29.6433 143.45 27.9749C143.659 24.6904 143.607 21.3536 143.45 18.069C142.825 17.5477 142.251 14.5759 142.668 13.8981C142.825 13.5853 143.19 13.5853 143.45 13.5332C145.64 13.0118 147.725 13.846 148.977 15.7229C149.185 15.9836 149.342 16.2964 149.55 16.6614C150.124 16.14 150.593 15.6708 151.271 15.0451C151.323 16.7135 151.792 18.1733 150.384 19.2682C149.394 20.0502 149.707 21.1451 149.759 22.1357C149.759 23.5434 149.55 24.951 149.133 26.2544C149.081 26.463 148.872 26.7237 148.977 26.8279C150.332 28.757 149.185 31.051 149.967 33.0322C150.176 33.5014 150.124 34.2313 150.593 34.3877C151.896 34.9091 151.375 35.9518 151.427 36.786C151.479 37.568 150.802 37.3595 150.384 37.3595C147.986 37.3595 145.64 37.3073 143.242 37.2552C142.877 37.2552 142.251 37.5159 142.199 36.8381C142.147 36.2125 141.938 35.5347 142.512 35.0133C142.773 34.8048 143.085 34.6484 143.398 34.492C143.763 34.0749 144.545 33.7099 143.659 33.0843Z" fill="black"/>
<path d="M212.374 37.7765C211.227 37.7765 210.132 37.7765 208.985 37.7765C208.516 37.7765 207.786 38.1415 207.63 37.4637C207.473 36.6817 207.213 35.6911 207.89 35.1697C208.568 34.6484 208.568 34.0227 208.62 33.3449C208.725 28.757 208.777 24.169 208.881 19.6331C208.881 18.6425 208.62 18.0169 207.525 18.069C207.317 18.069 207.108 18.069 206.952 17.8083C206.483 16.922 207.369 14.7844 208.307 14.4195C211.696 13.1682 215.294 16.0878 214.72 19.6852C214.564 20.728 214.616 21.8228 214.772 22.7613C214.981 23.9604 214.877 25.2117 214.929 26.4108C215.033 28.6527 215.137 30.8945 214.929 33.1364C214.824 33.9184 215.294 34.7526 216.336 34.9612C217.848 35.2219 216.962 36.421 217.066 37.1509C217.223 38.0372 216.389 37.7244 215.971 37.7765C214.772 37.8287 213.521 37.7765 212.322 37.7765C212.374 37.8287 212.374 37.8287 212.374 37.7765Z" fill="black"/>
<path d="M50.3863 28.8091C50.3863 30.1125 50.3342 31.4159 50.3863 32.7193C50.4385 33.6578 50.5427 34.4398 51.6897 34.8048C52.6282 35.1176 52.2111 36.1603 52.2111 36.9424C52.2111 37.7765 51.6376 37.5159 51.2205 37.5159C49.0308 37.5159 46.7889 37.5159 44.5992 37.5159C43.8693 37.5159 43.5565 37.3073 43.6086 36.5774C44.0778 30.5296 43.4522 24.4818 44.0778 18.434C44.1821 17.5998 44.2864 16.7656 43.5043 16.0357C42.983 15.5665 43.0351 14.9408 44.0778 14.8887C45.8505 14.8366 47.6231 15.0973 49.3957 14.8366C50.1256 14.7323 50.1256 15.2537 50.1256 15.7229C50.1256 18.069 49.9692 20.4152 50.1256 22.7613C50.2299 24.7946 50.4385 26.7758 50.3863 28.8091Z" fill="black"/>
<path d="M75.9851 37.203C74.4731 37.203 72.9612 37.1509 71.4492 37.203C70.6672 37.2551 70.6672 36.7338 70.7715 36.3167C70.9279 35.7953 70.198 34.8569 71.345 34.8569C72.5962 34.8569 72.9091 34.0748 72.8569 33.0842C72.6484 28.9655 73.2219 24.8988 72.909 20.7801C72.8569 19.8937 73.0133 18.9553 72.9612 18.069C72.909 17.0262 72.7526 16.0357 71.3971 15.9835C70.7715 15.9835 70.8236 15.4622 70.7193 15.0451C70.6151 14.6801 70.7715 14.4194 71.1885 14.4194C73.4304 14.5237 75.6723 14.3673 77.862 14.628C78.4355 14.6801 78.3834 14.9408 78.3834 15.41C78.4876 17.704 78.3312 19.9459 78.6962 22.2399C78.8526 23.1262 78.9569 24.0646 78.5398 24.951C78.4355 25.1595 78.4876 25.4723 78.5398 25.733C79.3218 28.2356 78.9569 30.7902 79.009 33.2928C79.009 34.1791 79.1133 34.8047 80.3124 34.5962C81.2508 34.4398 81.4073 35.1175 81.303 35.8996C81.2509 36.5774 81.5637 37.4115 80.3124 37.3073C78.8526 37.203 77.3406 37.3073 75.8808 37.3073C75.9851 37.2551 75.9851 37.203 75.9851 37.203Z" fill="black"/>
<path d="M115.765 19.8417C114.775 19.3203 115.713 18.7468 115.818 18.3297C116.339 16.3485 117.225 14.628 119.311 13.846C120.979 13.2203 122.126 13.9503 122.022 15.775C122.022 16.1921 121.813 16.3485 121.5 16.5571C119.988 17.4434 119.832 18.6425 121.135 19.7895C122.282 20.8322 123.534 21.7186 124.629 22.9177C125.359 23.6476 126.297 24.3775 127.079 25.1596C127.653 25.7331 127.913 26.5672 128.226 27.3493C128.33 27.61 128.382 27.8706 128.174 28.1835C127.705 28.8091 127.705 28.8612 128.435 29.2262C128.643 29.3305 128.591 29.4869 128.591 29.6433C128.956 32.4065 127.183 35.9518 124.733 37.2552C124.42 37.4116 124.107 37.5159 123.742 37.6201C123.221 37.7765 123.065 37.568 123.117 37.0466C123.273 35.7954 122.96 34.5441 123.325 33.2928C123.638 32.3544 123.169 31.5202 122.439 30.8424C121.083 29.5911 119.676 28.3399 118.32 27.0365C117.33 26.098 116.6 25.0031 115.974 23.804C115.609 23.0741 115.4 22.2399 115.505 21.4057C115.244 20.8322 115.974 20.4152 115.765 19.8417Z" fill="black"/>
<path d="M132.241 35.0133C132.762 34.8569 133.232 34.5963 133.232 33.9706C133.284 31.5724 133.336 29.1219 133.336 26.7237C133.336 24.3775 132.919 21.9793 133.023 19.6331C133.023 19.1639 133.179 18.6947 133.179 18.2255C133.232 17.1827 133.127 16.14 131.772 16.0357C131.198 15.9836 131.198 15.7229 131.198 15.3058C131.198 14.7845 131.407 14.6281 131.876 14.5759C134.17 14.4195 136.464 14.5759 138.758 14.5759C139.54 14.5759 139.019 15.358 139.384 15.6186C139.853 15.6186 139.957 15.0452 140.583 15.1494C140.27 16.7656 140.843 18.434 139.436 19.946C138.497 20.9366 139.071 22.4485 139.019 23.6998C138.967 25.0032 139.071 26.3587 139.019 27.7143C138.967 29.7476 139.019 31.7288 139.436 33.7099C139.54 34.0749 139.592 34.492 140.009 34.7005C141.104 35.274 140.531 36.2646 140.478 37.0467C140.478 37.7766 139.592 37.4116 139.175 37.4116C136.777 37.3595 134.326 37.2552 131.928 37.0988C130.833 36.9945 131.667 36.0561 131.407 35.5347C131.563 35.0655 131.928 35.1176 132.241 35.0133Z" fill="black"/>
<path d="M33.9122 23.6476C33.9122 21.7186 33.9122 19.8417 33.9122 17.9126C33.9122 17.0263 33.7036 16.2443 32.6088 16.14C32.1395 16.0879 32.0353 15.9836 32.0874 15.5144C32.1395 15.0451 32.1917 14.7845 32.7652 14.7845C34.9028 14.7323 37.0925 14.6802 39.2301 14.6281C39.8036 14.6281 39.96 14.8366 39.96 15.358C39.9078 18.4861 39.8036 21.6143 39.9078 24.6904C40.0121 27.3493 39.5429 30.1125 40.4813 32.7715C40.742 33.5014 41.3677 33.8663 41.6805 34.5441C42.4625 36.0561 41.9412 36.9945 40.4292 37.5159C38.813 38.0894 37.4053 37.4116 36.2062 36.2646C34.225 34.2834 33.9122 31.6766 33.7558 29.0698C33.6515 27.245 33.7558 25.4203 33.7558 23.5955C33.8079 23.6476 33.86 23.6476 33.9122 23.6476Z" fill="black"/>
<path d="M109.561 14.8887C109.614 15.3579 109.457 15.6186 108.988 15.8793C106.538 17.1827 105.078 19.4246 103.461 21.5621C102.836 22.3963 103.67 22.7613 103.983 23.2826C105.182 25.2638 106.173 27.4014 107.32 29.4347C108.362 31.3638 109.249 33.4492 111.438 34.5962C112.168 34.9612 111.699 36.2124 111.699 37.0466C111.699 37.5158 110.969 37.2552 110.552 37.2552C107.841 37.2552 105.078 37.2552 102.367 37.2552C101.897 37.2552 101.167 37.4637 101.324 36.5774C101.428 36.0039 100.803 35.0654 102.054 35.0133C102.836 34.9612 102.992 34.5441 102.679 33.8663C102.367 33.2407 102.21 32.5108 101.741 32.0415C99.8641 29.8518 100.073 27.1929 99.9683 24.5339C99.8641 21.9271 101.272 20.3109 102.836 18.5904C104.139 17.1306 103.931 16.2442 102.054 15.9314C101.167 15.775 101.167 15.3579 101.272 14.7844C101.376 14.1067 101.845 14.4716 102.262 14.5237C104.348 14.6802 106.433 14.7323 108.467 14.8366C108.832 14.7323 109.196 14.6802 109.561 14.8887Z" fill="black"/>
<path d="M80.1045 21.0929C80.1045 19.6331 80.1045 18.3297 80.1045 17.0263C80.1045 16.14 80.7823 15.6707 81.2515 15.0972C81.9814 14.3152 82.972 13.8981 83.9104 13.5331C85.2138 13.0639 86.5694 13.846 86.8301 15.2536C87.0386 16.2964 87.2472 17.3912 87.2472 18.434C87.2472 19.4767 86.6215 20.2587 85.7352 20.6758C84.7968 21.145 83.754 20.9886 82.9198 20.3109C81.2515 19.0596 81.3036 19.0596 80.1045 21.0929Z" fill="black"/>
<path d="M121.031 35.8475C120.979 37.7244 120.927 37.7765 119.258 37.0466C118.268 36.6295 117.59 36.5774 117.434 37.8286C117.329 38.5064 116.808 38.2457 116.443 38.2979C115.922 38.35 115.765 38.1415 115.765 37.6201C115.713 35.0133 115.661 32.3543 115.557 29.7475C115.557 29.3826 115.609 29.174 116.026 29.174C116.391 29.2261 116.808 29.0697 116.964 29.5911C117.173 30.1646 117.538 30.7381 117.799 31.3116C118.32 32.4065 118.946 33.4492 120.04 34.0748C120.822 34.544 121.344 35.0654 121.031 35.8475Z" fill="black"/>
<path d="M64.0984 8.16317C64.8805 9.46657 65.6625 10.8221 66.5488 12.2819C63.2121 12.2819 60.0318 12.2819 56.5908 12.2819C57.425 10.8743 58.207 9.51871 59.0412 8.16317C59.1455 8.11103 59.2498 8.11103 59.4062 8.16317C60.3968 9.04948 60.6574 10.405 61.5959 11.3956C62.4822 10.3529 62.8472 9.04948 63.7856 8.16317C63.8899 8.05889 63.9942 8.05889 64.0984 8.16317Z" fill="black"/>
<path d="M127.183 14.2631C127.183 16.8177 127.183 19.216 127.183 21.6664C127.183 21.9271 127.444 22.2921 126.923 22.3442C126.558 22.3963 126.141 22.5006 125.984 21.9271C125.984 21.8228 125.932 21.7707 125.932 21.6664C126.245 19.7895 124.837 18.7468 123.951 17.4955C123.325 16.5571 123.794 15.5665 123.638 14.628C123.586 14.4195 123.899 14.3152 124.003 14.4195C124.785 15.2537 125.515 14.6802 126.245 14.3673C126.453 14.3152 126.662 14.3152 127.183 14.2631Z" fill="black"/>
<path d="M215.034 7.58959C213.678 7.58959 212.688 7.58959 211.384 7.58959C212.219 7.27678 212.427 6.85969 212.427 6.18191C212.375 4.98278 212.427 3.73151 212.375 2.53237C212.375 2.16742 212.636 1.59392 212.062 1.38538C211.541 1.22897 211.019 1.38538 210.707 1.90674C210.602 2.06315 210.498 2.21956 210.29 2.48024C210.133 0.864014 210.133 0.864014 211.645 0.864014C212.636 0.864014 213.626 0.864014 214.617 0.864014C216.181 0.864014 216.181 0.864014 215.972 2.58451C215.764 2.27169 215.66 2.01101 215.451 1.80247C215.138 1.43751 214.721 1.33324 214.252 1.43751C213.678 1.54179 213.887 2.06315 213.887 2.37597C213.835 3.62724 213.887 4.87851 213.887 6.12978C213.939 6.75541 214.043 7.27678 215.034 7.58959Z" fill="black"/>
<path d="M166.651 8.16316C166.756 7.95462 166.808 7.74607 166.912 7.58967C167.642 6.39053 168.32 5.13926 169.206 3.67944C170.144 5.3478 170.979 6.91189 171.865 8.42385C171.709 8.73666 171.5 8.84094 171.187 8.73666C169.832 8.26744 168.424 8.73666 167.068 8.42385C166.86 8.31957 166.756 8.26744 166.651 8.16316Z" fill="black"/>
<path d="M222.645 1.85466C223.01 -0.0222424 224.47 1.22903 225.357 0.811938C224.366 1.69826 224.366 6.70334 225.409 7.58966C224.366 7.58966 223.375 7.58966 222.385 7.58966C223.219 6.91188 223.48 4.25293 222.958 2.16748C222.698 2.21962 222.541 2.16748 222.645 1.85466Z" fill="black"/>
<path d="M59.2496 8.16312H59.1453H59.041C59.8231 6.75544 60.6572 5.29562 61.5436 3.62726C62.482 5.24348 63.2641 6.7033 64.0982 8.16312C64.0461 8.16312 63.9418 8.16312 63.8897 8.16312C62.3777 8.73661 60.8136 8.73661 59.2496 8.16312Z" fill="black"/>
<path d="M171.291 8.63232C171.447 8.52805 171.656 8.47592 171.812 8.37164C172.542 9.62291 173.324 10.8742 174.158 12.2297C172.282 12.2297 170.613 12.2297 168.945 12.2297C168.893 12.1255 168.841 12.0212 168.893 11.8648C169.414 11.0306 169.935 10.1964 170.457 9.3101C170.665 9.04941 170.77 8.58019 171.291 8.63232Z" fill="black"/>
<path d="M168.996 11.969C168.996 12.0733 168.996 12.1255 168.996 12.2297C167.484 12.2297 165.972 12.2297 164.252 12.2297C165.086 10.822 165.92 9.46651 166.702 8.11096C166.755 8.11096 166.859 8.11096 166.911 8.11096C167.901 9.25796 168.84 10.405 168.996 11.969Z" fill="black"/>
<path d="M221.342 5.55633C221.237 6.33837 220.872 6.96401 220.351 7.74605C219.569 5.97342 218.891 4.30506 218.213 2.68883C217.588 2.48029 217.64 1.85465 217.431 1.38542C217.223 1.28115 217.014 1.12474 216.806 1.02047C218.943 0.551244 218.995 0.60338 219.83 2.58456C220.195 3.47088 220.507 4.35719 220.82 5.24351C220.924 5.45206 221.237 5.34778 221.342 5.55633Z" fill="black"/>
<path d="M217.431 1.38544C217.692 1.80253 217.952 2.27175 218.213 2.68884C217.639 4.14866 218.108 5.66061 217.952 7.12043C217.744 7.27684 217.587 7.27684 217.379 7.12043C217.431 5.19139 217.431 3.26234 217.431 1.38544Z" fill="black"/>
<path d="M143.659 33.0843C144.18 32.5629 144.493 32.8757 144.388 33.3971C144.336 33.8663 144.128 34.492 143.398 34.492C143.659 34.0227 143.711 33.5535 143.659 33.0843Z" fill="#EFF7F7"/>
<path d="M3.77665 8.68451C4.61029 9.57083 3.98506 9.93578 3.20352 10.2486C3.20352 9.62296 3.04721 8.99733 3.77665 8.68451Z" fill="black"/>
<path d="M217.431 7.0683C217.64 7.0683 217.796 7.0683 218.005 7.0683C218.213 7.17257 218.422 7.32898 218.787 7.53752C218.057 7.53752 217.431 7.53752 216.701 7.53752C216.962 7.38112 217.223 7.22471 217.431 7.0683Z" fill="black"/>
<path d="M115.766 19.8417C116.391 20.5194 115.661 20.9365 115.505 21.4058C115.088 20.8323 115.349 20.3109 115.766 19.8417Z" fill="black"/>
<path d="M21.0863 35.2219C20.6174 34.8569 20.6174 34.8048 21.451 34.4919C21.7115 34.909 21.7636 35.2219 21.0863 35.2219Z" fill="#C2E0E0"/>
<path d="M222.645 1.85461C222.749 1.95889 222.853 2.06316 222.906 2.1153C222.749 2.48025 222.593 2.8452 222.385 3.21016C222.228 3.15802 222.176 3.00161 222.124 2.89734C222.332 2.58452 222.489 2.21957 222.645 1.85461Z" fill="black"/>
<path d="M222.175 3.73152C222.123 4.20075 221.967 4.66998 221.602 5.03493C221.498 4.98279 221.394 4.87852 221.394 4.77425C221.55 4.4093 221.706 4.04434 221.862 3.67939C221.967 3.62725 222.123 3.62725 222.175 3.73152Z" fill="#61B0B0"/>
<path d="M109.561 14.8887C109.196 14.8887 108.831 14.8366 108.414 14.8366C108.779 14.5238 109.3 14.5238 109.717 14.628C110.082 14.6802 109.77 14.8887 109.561 14.8887Z" fill="black"/>
<path d="M132.24 35.0133C131.979 35.1698 131.719 35.3262 131.406 35.4826C131.302 34.6484 131.927 35.1176 132.24 35.0133Z" fill="#8BC5C5"/>
<path d="M221.392 4.77429C221.445 4.87856 221.549 4.9307 221.601 5.03497C221.549 5.24352 221.549 5.45206 221.34 5.5042C221.132 5.5042 220.924 5.45206 220.819 5.19138C221.236 5.34779 221.288 5.03497 221.392 4.77429Z" fill="black"/>
<path d="M222.175 3.73152C222.071 3.73152 221.967 3.73152 221.862 3.67938C221.967 3.4187 222.071 3.15802 222.175 2.89734C222.279 3.00161 222.331 3.10588 222.435 3.21016C222.331 3.4187 222.279 3.57511 222.175 3.73152Z" fill="black"/>
<path d="M15.6639 32.4065C15.8203 32.4586 16.0288 32.5108 16.1852 32.615C16.6023 33.3449 16.2895 33.8663 15.8203 34.3877C15.5075 33.8663 14.9861 33.5014 14.8818 32.8757C15.0904 32.615 15.2989 32.4065 15.6639 32.4065Z" fill="black"/>
<path d="M5.49707 23.4391C5.70548 22.8656 5.86179 22.2921 5.65338 21.6664C5.60128 21.4579 5.54917 21.2493 5.86179 21.1451C6.1223 21.0929 6.27861 21.1972 6.38281 21.4057C6.85173 22.2399 6.48702 22.8656 5.86179 23.4391C5.70548 23.5955 5.60128 23.5955 5.49707 23.4391Z" fill="#E5F2F2"/>
<path d="M2.4209 17.1827C2.89012 17.2348 3.51576 16.4006 3.72431 17.4434C3.77644 17.704 4.1414 18.069 3.77644 18.2254C2.9944 18.5382 2.9944 17.4434 2.4209 17.1827Z" fill="#DEEEEE"/>
<path d="M4.50645 12.334C4.2979 13.064 4.08936 13.6375 3.30731 13.6375C3.1509 13.6375 2.94236 13.481 2.99449 13.3246C3.25517 12.699 3.7244 12.4383 4.50645 12.334Z" fill="#DDEDED"/>
<path d="M7.58301 9.15375C7.84352 8.68452 7.89562 8.2153 8.41665 8.11102C8.46875 8.11102 8.62506 8.3717 8.62506 8.52811C8.57295 8.99734 8.26034 9.20588 7.58301 9.15375Z" fill="#D4E9E9"/>
<path d="M7.0094 24.2733C6.74889 23.7519 6.69678 23.3348 7.32201 22.7092C7.32201 23.3869 7.58253 23.804 7.0094 24.2733Z" fill="#87C3C3"/>
<path d="M6.2797 19.6852C6.01919 18.9032 5.91499 18.5383 6.43601 18.3818C6.54022 18.3297 6.74863 18.3818 6.74863 18.4861C6.90493 18.9032 6.48811 19.0596 6.2797 19.6852Z" fill="#DFEEEE"/>
<path d="M24.0056 21.875C24.5788 22.0314 24.5788 22.0314 24.4745 23.022C24.0577 23.022 23.9535 22.7092 23.7451 22.4485C23.8493 22.2921 24.0577 22.1357 24.0056 21.875Z" fill="#7CBEBE"/>
<path d="M17.8016 31.833C17.9579 31.833 18.1142 31.833 18.2705 31.7808C18.2184 32.1979 18.4789 32.7193 17.7495 32.8235C17.5932 32.7193 17.4369 32.6671 17.3848 32.5107C17.4369 32.2501 17.5932 32.0415 17.8016 31.833Z" fill="black"/>
<path d="M17.8011 31.833C17.6969 32.0937 17.5927 32.3544 17.4885 32.6151C17.3842 32.8236 17.28 32.98 17.0195 32.8758C17.0195 32.563 17.0195 32.2501 17.0195 31.9895C17.28 31.6766 17.5406 31.833 17.8011 31.833Z" fill="#C4E1E1"/>
<path d="M24.4746 8.21527C24.8393 8.47595 25.1519 8.73663 24.8914 9.31013C24.3704 9.04945 24.5267 8.58023 24.4746 8.21527Z" fill="#F0F7F7"/>
<path d="M20.6689 38.4022C20.8253 37.7766 20.8253 37.4116 21.2942 37.4116C21.3984 37.4116 21.4505 37.568 21.5547 37.6723C21.3463 37.8287 21.0858 38.0373 20.6689 38.4022Z" fill="black"/>
<path d="M3.2033 12.0734C3.2033 12.2819 3.15119 12.4905 2.89068 12.4383C2.83858 12.4383 2.73438 12.2298 2.73438 12.1777C2.73438 11.9691 2.83858 11.7084 3.04699 11.7084C3.2554 11.7084 3.15119 11.917 3.2033 12.0734Z" fill="#7EBEBE"/>
<path d="M4.45548 18.6425C4.66389 18.6425 4.76809 18.7989 4.71599 18.9553C4.71599 19.0596 4.61179 19.1117 4.50758 19.216C4.40338 19.1639 4.29917 19.1117 4.24707 19.0075C4.24707 18.9032 4.24707 18.7468 4.45548 18.6425Z" fill="#83C1C1"/>
<path d="M5.49734 23.439C5.60155 23.439 5.75786 23.4912 5.86206 23.4912C5.86206 23.8561 5.75786 24.2211 5.44524 24.3775C5.28893 24.4296 5.28893 24.0647 5.23683 23.8561C5.13263 23.6997 5.18473 23.5433 5.34104 23.3869C5.39314 23.3869 5.44524 23.439 5.49734 23.439Z" fill="#F0F7F7"/>
<path d="M2.57703 16.2443C2.52493 16.2964 2.47283 16.4007 2.36862 16.4007C2.21232 16.4528 2.05601 16.4007 2.00391 16.1921C2.00391 16.14 2.10811 15.9836 2.16021 15.9315C2.36862 15.9315 2.52493 15.9836 2.57703 16.2443Z" fill="#78BCBC"/>
<path d="M1.89954 22.7613C1.84744 22.7613 1.69113 22.7092 1.69113 22.6571C1.58693 22.4485 1.79534 22.3442 1.95165 22.2921C2.10795 22.24 2.31636 22.1357 2.31636 22.4485C2.31636 22.6571 2.16006 22.7092 1.89954 22.7613Z" fill="#C0DFDF"/>
<path d="M2.9429 25.1596C2.36978 24.951 2.73449 24.5861 2.73449 24.2733C2.73449 24.2733 2.78659 24.2211 2.8387 24.2211C2.8908 24.2211 2.8908 24.2733 2.9429 24.2733C3.15131 24.5339 3.15131 24.8468 2.9429 25.1596Z" fill="#B4D9D9"/>
<path d="M2.94238 25.1596C2.94238 24.8468 2.94238 24.5861 2.94238 24.2733C3.4113 24.5339 3.56761 24.8468 2.94238 25.1596Z" fill="#F9FCFC"/>
<path d="M9.92814 7.95459C9.77183 8.00673 9.71973 7.85032 9.71973 7.74604C9.71973 7.64177 9.82393 7.5375 9.82393 7.43323C9.92814 7.48536 10.0844 7.48536 10.1365 7.58964C10.2408 7.69391 10.0844 7.85032 9.92814 7.95459Z" fill="#89C4C4"/>
<path d="M4.81951 11.1349C4.7153 11.2913 4.6632 11.4477 4.6111 11.4477C4.40269 11.4998 4.35059 11.2913 4.35059 11.1349C4.35059 11.0306 4.45479 10.8742 4.559 10.8742C4.87161 10.7699 4.6111 11.1349 4.81951 11.1349Z" fill="#F0F7F7"/>
<path d="M17.0713 32.8757C17.2276 32.7715 17.3839 32.7193 17.5402 32.6151C17.6444 32.7193 17.6965 32.7715 17.8007 32.8757C17.5402 33.2407 17.2797 33.7099 17.0713 32.8757Z" fill="#D5EAEA"/>
<path d="M24.0051 21.875C24.6303 22.3964 24.1093 22.3964 23.7446 22.5006C23.5362 22.1357 23.7967 22.0314 24.0051 21.875Z" fill="#E8F3F3"/>
<path d="M24.006 11.6563C23.9539 11.7606 23.9018 11.8648 23.7976 11.917C23.6413 11.9691 23.5371 11.8648 23.5371 11.7084C23.5371 11.6041 23.6413 11.4477 23.7455 11.3956C23.9539 11.3435 23.9539 11.4999 24.006 11.6563Z" fill="black"/>
<path d="M3.8815 26.0459C3.67309 25.9937 3.62099 25.8373 3.67309 25.6809C3.72519 25.5766 3.77729 25.5245 3.8294 25.4202C3.9336 25.5245 4.14201 25.6288 4.14201 25.7852C4.24622 25.9416 4.08991 26.098 3.8815 26.0459Z" fill="#E5F2F2"/>
<path d="M5.34042 23.3869C5.28832 23.5433 5.28832 23.6997 5.23621 23.8561C5.07991 23.5955 4.55888 23.5433 4.8715 23.1262C5.13201 22.8655 5.28832 23.1262 5.34042 23.3869Z" fill="#DCEDED"/>
<path d="M16.5506 20.0502C15.9772 20.6237 15.6122 21.51 14.9344 21.4579C14.3088 21.4058 13.4746 20.6237 13.4746 19.9981C13.4746 19.4246 14.2567 18.5904 14.9344 18.5904C15.6122 18.6425 16.0814 19.4767 16.5506 20.0502Z" fill="black"/>
<path d="M15.6631 32.4065C15.4026 32.5629 15.1421 32.7193 14.8815 32.8758C14.8294 32.4587 14.8294 32.0937 14.7773 31.4681C15.1942 31.8852 15.4547 32.1458 15.6631 32.4065Z" fill="black"/>
<path d="M95.954 27.245C95.5893 26.8801 95.0162 26.6194 95.2767 25.9416C95.3288 25.8374 95.6414 25.6288 95.6935 25.681C96.2145 26.098 95.7977 26.7237 95.954 27.245Z" fill="#D0E7E7"/>
<path d="M92.6689 29.539C93.1379 29.8518 93.5547 30.0082 93.3463 30.686C92.9816 30.4253 92.721 30.1646 92.6689 29.539Z" fill="#DFEFEF"/>
<path d="M97.7787 32.2501C97.3618 32.5108 97.0492 32.4065 96.8408 31.9373C97.2055 31.7288 97.5702 31.7809 97.7787 32.2501Z" fill="#EAF4F4"/>
<path d="M94.4419 29.3826C94.3898 29.4869 94.3377 29.6433 94.1814 29.539C94.0772 29.4347 94.0251 29.2783 93.9209 29.1219C94.0251 29.0698 94.1293 28.9655 94.2335 28.9655C94.4419 29.0177 94.4419 29.1741 94.4419 29.3826Z" fill="#D4E9E9"/>
<path d="M157.423 33.6056C157.371 33.8663 157.162 33.762 157.058 33.6577C156.954 33.6056 156.85 33.5013 156.85 33.3971C156.902 33.2407 157.006 33.0843 157.214 33.1364C157.423 33.2407 157.475 33.4492 157.423 33.6056Z" fill="#B1D8D8"/>
<path d="M146.369 26.098C145.848 25.2117 146.577 25.1596 146.89 24.7946C147.15 25.4203 146.629 25.6288 146.369 26.098Z" fill="#CBE5E5"/>
<path d="M209.924 24.0647C210.654 23.9604 210.498 23.4912 210.185 23.022C211.436 23.5433 211.436 23.7519 210.393 24.7946C209.507 25.0032 209.716 24.5339 209.924 24.0647Z" fill="#EAF4F4"/>
<path d="M209.923 24.0647C209.923 24.4297 209.871 24.7946 210.392 24.7946C210.236 25.1074 209.923 25.316 209.715 25.0553C209.559 24.7946 209.454 24.3254 209.923 24.0647Z" fill="#A5D2D2"/>
<path d="M213.104 29.1741C212.739 29.8518 212.374 29.6954 212.062 29.6433C212.322 29.539 212.583 29.3826 213.104 29.1741Z" fill="black"/>
<path d="M212.373 23.7519C212.321 23.804 212.269 23.9083 212.165 23.9604C211.956 24.0647 211.8 23.9604 211.748 23.804C211.644 23.5955 211.748 23.4912 211.956 23.4912C212.165 23.4391 212.321 23.4912 212.373 23.7519Z" fill="#AED6D6"/>
<path d="M213.208 26.4108C213.417 26.4108 213.521 26.5672 213.521 26.7236C213.521 26.8801 213.521 27.0886 213.261 27.0365C213.156 26.9843 213.052 26.8801 213.052 26.7758C212.948 26.5672 213 26.4108 213.208 26.4108Z" fill="#B3D9D9"/>
<path d="M210.601 26.3587C210.497 26.5151 210.444 26.6194 210.34 26.6715C210.184 26.7758 210.132 26.6194 210.132 26.463C210.132 26.3587 210.236 26.2544 210.288 26.1501C210.392 26.2544 210.497 26.3066 210.601 26.3587Z" fill="#82C0C0"/>
<path d="M214.094 25.9938C214.303 26.2023 214.355 26.3066 214.459 26.3587C214.407 26.4109 214.303 26.5673 214.251 26.5673C214.147 26.5673 214.042 26.4109 213.99 26.3587C213.99 26.2023 214.042 26.098 214.094 25.9938Z" fill="black"/>
<path d="M45.4341 26.8279C45.6425 27.4536 46.1114 27.7143 45.7467 28.1835C45.6425 28.2878 45.3299 28.3399 45.3299 28.3399C45.0694 27.9749 45.1215 27.5578 45.4341 26.8279Z" fill="#F3F8F8"/>
<path d="M49.4477 25.4724C49.4998 25.5245 49.604 25.6809 49.604 25.7852C49.6561 25.9938 49.4998 26.098 49.3435 25.9416C49.2393 25.8373 49.1351 25.6809 49.1351 25.5767C49.083 25.4724 49.1872 25.3681 49.4477 25.4724Z" fill="#DAECEC"/>
<path d="M119.519 20.0502C119.78 19.6853 119.624 19.2682 119.519 18.8511C120.614 19.581 120.614 19.581 119.415 20.8844C119.207 20.7801 118.998 20.5716 119.05 20.3109C119.154 20.0502 119.311 19.9459 119.519 20.0502Z" fill="#DCEDED"/>
<path d="M126.401 26.098C126.245 26.098 126.141 26.098 126.037 26.0459C125.88 25.8895 125.568 25.8374 125.516 25.5245C126.141 25.4203 126.141 25.4203 126.401 26.098Z" fill="#D3E9E9"/>
<path d="M119.519 20.0502C119.051 20.2587 119.259 20.5716 119.415 20.8844C119.155 20.9886 118.842 21.3015 118.946 20.6758C118.998 20.3109 118.686 19.6331 119.519 20.0502Z" fill="#C9E3E3"/>
<path d="M117.59 19.998C117.642 20.0502 117.798 20.1545 117.798 20.2066C117.798 20.4673 117.59 20.5194 117.382 20.5715C117.225 20.6237 117.121 20.5194 117.121 20.4151C117.173 20.2066 117.33 20.0502 117.59 19.998Z" fill="#B8DBDB"/>
<path d="M135.577 24.6903C135.577 24.3254 135.577 23.9604 135.577 23.5433C136.671 24.2732 136.671 24.2732 135.629 25.316C135.421 25.1074 135.421 24.8989 135.577 24.6903Z" fill="#DFEFEF"/>
<path d="M136.828 27.61C136.62 27.4014 136.516 27.2971 136.464 27.1929C136.359 26.9843 136.359 26.7236 136.203 26.2023C136.724 26.7236 136.933 26.9843 136.828 27.61Z" fill="#64B2B2"/>
<path d="M135.316 25.5766C135.056 25.8894 134.743 25.9416 134.483 25.6288C134.274 25.316 134.743 25.316 134.795 25.0553C135.212 25.0031 135.421 25.1595 135.316 25.5766Z" fill="#73B9B9"/>
<path d="M136.934 24.2733C136.986 24.0126 137.246 24.0126 137.403 23.9604C137.715 23.8562 137.611 24.169 137.611 24.2733C137.611 24.4818 137.455 24.5339 137.298 24.5339C137.142 24.4818 136.986 24.4818 136.934 24.2733Z" fill="#BDDEDE"/>
<path d="M137.298 30.3732C137.611 30.0604 137.871 29.7997 138.549 30.1125C137.976 30.2168 137.611 30.3211 137.298 30.3732Z" fill="#6FB6B6"/>
<path d="M135.317 25.5767C135.161 25.4203 135.004 25.2117 134.796 25.0553C134.9 24.6382 135.317 24.8989 135.525 24.7425C135.525 24.951 135.525 25.1596 135.577 25.3681C135.525 25.4203 135.421 25.4724 135.317 25.5767Z" fill="#F3F8F8"/>
<path d="M138.55 26.9843C138.654 26.9843 138.706 27.1407 138.706 27.2971C138.706 27.4014 138.602 27.5057 138.55 27.6099C138.446 27.5057 138.289 27.4535 138.237 27.2971C138.185 27.1929 138.237 26.9843 138.55 26.9843Z" fill="#ADD6D6"/>
<path d="M135.473 26.6715C135.578 26.8279 135.682 26.8801 135.734 26.9843C135.734 27.0886 135.63 27.1407 135.578 27.245C135.525 27.1407 135.369 27.0886 135.369 26.9843C135.369 26.9843 135.421 26.8279 135.473 26.6715Z" fill="#84C2C2"/>
<path d="M137.298 31.1552C137.506 31.1031 137.61 31.2074 137.558 31.3638C137.558 31.468 137.454 31.5723 137.402 31.6245C137.245 31.7287 137.193 31.5723 137.193 31.468C137.193 31.3638 137.298 31.2595 137.298 31.1552Z" fill="black"/>
<path d="M37.6137 23.2305C37.5095 23.0741 37.4053 22.9699 37.4053 22.8656C37.4053 22.657 37.5095 22.5006 37.7179 22.5528C37.77 22.5528 37.8742 22.7613 37.8221 22.8656C37.8221 22.9699 37.7179 23.0741 37.6137 23.2305Z" fill="black"/>
<path d="M103.983 28.2356C104.295 28.5484 103.618 29.3305 104.556 29.3305C104.765 29.3305 104.66 29.7997 104.556 30.0082C104.348 30.321 104.139 30.2168 103.93 29.9561C103.357 29.3826 102.836 28.8091 103.983 28.2356Z" fill="#E6F2F2"/>
<path d="M102.471 28.9655C102.471 29.1741 102.367 29.2783 102.158 29.2783C102.106 29.2783 102.002 29.1219 102.002 29.0177C102.002 28.8613 102.002 28.6527 102.21 28.6527C102.367 28.6527 102.471 28.8091 102.471 28.9655Z" fill="black"/>
<path d="M106.589 29.8519C106.485 29.9561 106.381 30.0604 106.225 30.1125C106.121 29.9561 105.964 29.7997 105.912 29.5912C105.912 29.539 106.068 29.3826 106.173 29.3826C106.433 29.3826 106.433 29.6433 106.589 29.8519Z" fill="#BBDDDD"/>
</g>
<defs>
<clipPath id="clip0_896_3189">
<rect width="224.812" height="39.415" fill="white" transform="translate(0.59668 0.759766)"/>
</clipPath>
</defs>
</svg>
