<svg width="31" height="31" viewBox="0 0 31 31" fill="none" xmlns="http://www.w3.org/2000/svg">
<mask id="mask0_914_89" style="mask-type:alpha" maskUnits="userSpaceOnUse" x="0" y="0" width="31" height="31">
<g clip-path="url(#clip0_914_89)">
<path d="M20.7959 4.28613C20.8154 4.30396 20.8405 4.32748 20.8711 4.35645C20.9325 4.41456 21.0119 4.49 21.1025 4.57812C21.2836 4.75415 21.507 4.97508 21.7256 5.19141C21.9439 5.40748 22.1567 5.61821 22.3145 5.77539L22.7324 6.19336L22.9531 6.20996H22.96C22.9645 6.21031 22.9717 6.21125 22.9805 6.21191C22.9979 6.21324 23.0233 6.21531 23.0557 6.21777C23.121 6.22274 23.2148 6.22977 23.3271 6.23828C23.5519 6.25531 23.8529 6.27807 24.1572 6.30078C24.531 6.32868 24.9375 6.35501 25.2031 6.37305C25.381 7.59286 26.124 12.6233 26.8594 17.6143C27.2793 20.4643 27.6981 23.3107 28.0107 25.4463C28.167 26.5138 28.2967 27.4035 28.3867 28.0273C28.4102 28.1902 28.4304 28.3352 28.4482 28.46L19.5205 30.3877L2.52734 27.209C2.53511 27.1489 2.54386 27.0843 2.55273 27.0156C2.61497 26.5343 2.70445 25.8462 2.81152 25.0186C3.02576 23.3626 3.31214 21.1478 3.60156 18.9141C4.18109 14.4415 4.76986 9.90694 4.81445 9.60352L4.81641 9.5957C4.84498 9.38143 4.86147 9.26391 4.88184 9.18359C4.8841 9.17467 4.88683 9.16735 4.88867 9.16113C4.90071 9.15489 4.91802 9.14538 4.94336 9.13477C5.0379 9.09516 5.17309 9.05217 5.39941 8.98145L5.42871 8.97168L5.45605 8.95996C5.45614 8.96016 5.51343 8.94016 5.6709 8.89062C5.81468 8.8454 6.01234 8.78502 6.25684 8.70996C6.74443 8.56028 7.41345 8.35515 8.19629 8.10938L8.41504 8.04004L8.40625 8.07324L9.47363 7.72559C10.2723 7.46556 11.0272 7.24939 11.9219 6.96387L12.2646 6.85449V6.85254L13.1045 6.58203C14.1773 6.23657 15.1915 5.93464 16.1875 5.62109L16.4785 5.52832V5.56348L17.2744 5.28906C17.7902 5.11122 18.3077 4.9502 18.7363 4.8252L19.1592 4.70215L19.1748 4.74609L19.7324 4.56641C20.0133 4.4758 20.2389 4.40373 20.3955 4.35449C20.4741 4.3298 20.5337 4.31161 20.5732 4.2998C20.5845 4.29643 20.5933 4.29379 20.5996 4.29199L20.6201 4.28711C20.6375 4.28276 20.6641 4.27648 20.6943 4.27246C20.7249 4.2684 20.753 4.26681 20.7754 4.26758C20.7801 4.27172 20.7869 4.27789 20.7959 4.28613Z" stroke="black" stroke-width="1.2"/>
<path d="M21.7246 5.15497C21.943 5.37112 22.1557 5.58273 22.3135 5.73993C22.3922 5.81837 22.4575 5.88307 22.5029 5.92841L22.5693 5.99481C22.5708 5.9963 22.5715 5.99794 22.5723 5.99872L22.5732 5.99969H22.5742L22.7314 6.15692L22.9521 6.17352H22.9541C22.9552 6.17361 22.9569 6.17434 22.959 6.1745C22.9635 6.17484 22.9708 6.17481 22.9795 6.17548C22.9969 6.1768 23.0223 6.17887 23.0547 6.18134C23.12 6.1863 23.2138 6.19333 23.3262 6.20184C23.5509 6.21887 23.8519 6.24163 24.1562 6.26434C24.545 6.29336 24.9691 6.32084 25.2334 6.33856C25.4017 7.49596 26.1527 12.584 26.8975 17.6286C27.3186 20.4809 27.7385 23.3285 28.0537 25.4626C28.2113 26.5293 28.3427 27.4178 28.4346 28.0397C28.4579 28.1979 28.478 28.3394 28.4961 28.4616L20.2148 30.2497L21.2695 4.7077C21.4123 4.8476 21.57 5.00201 21.7246 5.15497Z" stroke="black" stroke-width="1.2"/>
<path d="M15.2986 10.5463L14.8709 13.8369C14.8709 13.8369 13.8456 13.5199 12.74 13.7336C11.0897 14.0527 11.2109 15.1097 11.2605 15.366C11.5331 16.776 15.3236 16.6083 15.9648 19.9251C16.4697 22.5368 15.1446 24.5382 12.9175 24.9688C10.2256 25.4892 8.55757 24.083 8.55757 24.083L8.82015 21.5723C8.82015 21.5723 10.4656 22.5174 11.6513 22.2882C12.4364 22.1364 12.6391 21.4656 12.5524 21.0169C12.1962 19.1743 9.16839 19.6766 8.57984 16.6322C8.08732 14.0846 9.43689 11.264 13.1382 10.5484C14.513 10.266 15.2986 10.5463 15.2986 10.5463Z" stroke="black" stroke-width="1.2"/>
</g>
</mask>
<g mask="url(#mask0_914_89)">
<rect width="31" height="31" fill="white"/>
</g>
<defs>
<clipPath id="clip0_914_89">
<rect width="31" height="31" fill="white"/>
</clipPath>
</defs>
</svg>
