<svg width="95" height="20" viewBox="0 0 95 20" fill="none" xmlns="http://www.w3.org/2000/svg">
<path d="M9.02447 1.48452C9.17415 1.02386 9.82585 1.02387 9.97553 1.48452L11.5206 6.23984C11.5876 6.44586 11.7795 6.58533 11.9962 6.58533H16.9962C17.4806 6.58533 17.6819 7.20514 17.2901 7.48984L13.245 10.4288C13.0697 10.5561 12.9964 10.7818 13.0633 10.9878L14.6084 15.7431C14.7581 16.2038 14.2309 16.5868 13.839 16.3021L9.79389 13.3632C9.61865 13.2359 9.38135 13.2359 9.20611 13.3632L5.16099 16.3022C4.76913 16.5869 4.24189 16.2038 4.39157 15.7431L5.93667 10.9878C6.0036 10.7818 5.93027 10.5561 5.75503 10.4288L1.70991 7.48984C1.31805 7.20514 1.51944 6.58533 2.0038 6.58533H7.00385C7.22046 6.58533 7.41244 6.44585 7.47937 6.23984L9.02447 1.48452Z" fill="#FACC15"/>
<path d="M28.0245 1.48452C28.1741 1.02386 28.8259 1.02387 28.9755 1.48452L30.5206 6.23984C30.5876 6.44586 30.7795 6.58533 30.9962 6.58533H35.9962C36.4806 6.58533 36.6819 7.20514 36.2901 7.48984L32.245 10.4288C32.0697 10.5561 31.9964 10.7818 32.0633 10.9878L33.6084 15.7431C33.7581 16.2038 33.2309 16.5868 32.839 16.3021L28.7939 13.3632C28.6186 13.2359 28.3814 13.2359 28.2061 13.3632L24.161 16.3022C23.7691 16.5869 23.2419 16.2038 23.3916 15.7431L24.9367 10.9878C25.0036 10.7818 24.9303 10.5561 24.755 10.4288L20.7099 7.48984C20.3181 7.20514 20.5194 6.58533 21.0038 6.58533H26.0038C26.2205 6.58533 26.4124 6.44585 26.4794 6.23984L28.0245 1.48452Z" fill="#FACC15"/>
<path d="M47.0245 1.48452C47.1741 1.02386 47.8259 1.02387 47.9755 1.48452L49.5206 6.23984C49.5876 6.44586 49.7795 6.58533 49.9962 6.58533H54.9962C55.4806 6.58533 55.6819 7.20514 55.2901 7.48984L51.245 10.4288C51.0697 10.5561 50.9964 10.7818 51.0633 10.9878L52.6084 15.7431C52.7581 16.2038 52.2309 16.5868 51.839 16.3021L47.7939 13.3632C47.6186 13.2359 47.3814 13.2359 47.2061 13.3632L43.161 16.3022C42.7691 16.5869 42.2419 16.2038 42.3916 15.7431L43.9367 10.9878C44.0036 10.7818 43.9303 10.5561 43.755 10.4288L39.7099 7.48984C39.3181 7.20514 39.5194 6.58533 40.0038 6.58533H45.0038C45.2205 6.58533 45.4124 6.44585 45.4794 6.23984L47.0245 1.48452Z" fill="#FACC15"/>
<path d="M66.0245 1.48452C66.1741 1.02386 66.8259 1.02387 66.9755 1.48452L68.5206 6.23984C68.5876 6.44586 68.7795 6.58533 68.9962 6.58533H73.9962C74.4806 6.58533 74.6819 7.20514 74.2901 7.48984L70.245 10.4288C70.0697 10.5561 69.9964 10.7818 70.0633 10.9878L71.6084 15.7431C71.7581 16.2038 71.2309 16.5868 70.839 16.3021L66.7939 13.3632C66.6186 13.2359 66.3814 13.2359 66.2061 13.3632L62.161 16.3022C61.7691 16.5869 61.2419 16.2038 61.3916 15.7431L62.9367 10.9878C63.0036 10.7818 62.9303 10.5561 62.755 10.4288L58.7099 7.48984C58.3181 7.20514 58.5194 6.58533 59.0038 6.58533H64.0038C64.2205 6.58533 64.4124 6.44585 64.4794 6.23984L66.0245 1.48452Z" fill="#FACC15"/>
<path d="M85.0245 1.48452C85.1741 1.02386 85.8259 1.02387 85.9755 1.48452L87.5206 6.23984C87.5876 6.44586 87.7795 6.58533 87.9962 6.58533H92.9962C93.4806 6.58533 93.6819 7.20514 93.2901 7.48984L89.245 10.4288C89.0697 10.5561 88.9964 10.7818 89.0633 10.9878L90.6084 15.7431C90.7581 16.2038 90.2309 16.5868 89.839 16.3021L85.7939 13.3632C85.6186 13.2359 85.3814 13.2359 85.2061 13.3632L81.161 16.3022C80.7691 16.5869 80.2419 16.2038 80.3916 15.7431L81.9367 10.9878C82.0036 10.7818 81.9303 10.5561 81.755 10.4288L77.7099 7.48984C77.3181 7.20514 77.5194 6.58533 78.0038 6.58533H83.0038C83.2205 6.58533 83.4124 6.44585 83.4794 6.23984L85.0245 1.48452Z" fill="#FACC15"/>
</svg>
