<svg width="128" height="49" viewBox="0 0 128 49" fill="none" xmlns="http://www.w3.org/2000/svg">
<g opacity="0.5">
<path d="M42.1648 9.65934L40.911 14.4593C40.911 14.4593 35.0779 8.86288 30.2648 21.054V33.277H22.3174V9.45757H30.2648V19.2169C31.5717 15.4894 35.6942 5.83633 42.1648 9.65934Z" fill="black"/>
<path d="M52.1642 34.2859V34.2965C52.1001 34.2965 52.0466 34.2965 51.9824 34.2965C52.0466 34.2859 52.1107 34.2859 52.1642 34.2859Z" fill="black"/>
<path d="M68.0679 9.45758V33.2664H60.1204V26.4912C57.5598 32.831 54.2129 34.1372 52.1729 34.2753C52.1092 34.2753 52.0561 34.2859 51.9923 34.2859H51.9817C51.4079 34.2753 50.8554 34.2009 50.3136 34.0735C46.818 33.2346 44.2148 30.0912 44.2148 26.3425V9.45758H52.1623V31.3655C55.4029 34.4133 59.2279 26.8417 60.1098 24.9726V9.45758H68.0679Z" fill="black"/>
<path d="M103.099 4.55139H98.9023V34.2859H103.099V4.55139Z" fill="black"/>
<path d="M127.717 9.45758V31.6098C123.913 48.1124 107.253 42.3248 107.253 42.3248L108.262 39.4788C124.465 48.6116 123.52 31.6098 123.52 31.6098V27.6275C120.63 34.2965 115.912 34.0098 115.912 34.0098C108.114 33.9355 107.593 24.5691 107.593 24.5691V9.45758H111.79V24.3461C111.79 29.093 114.265 31.3974 114.265 31.3974C118.653 35.3903 122.245 28.647 123.52 25.7691V9.45758H127.717Z" fill="black"/>
<path d="M51.9826 34.2859C50.9945 34.3177 50.357 34.0841 50.3145 34.0735C50.8457 34.2009 51.4088 34.2753 51.9826 34.2859Z" fill="black"/>
<path d="M83.0922 33.5426C82.9965 33.5426 82.9009 33.5319 82.7947 33.5213C80.0747 33.1603 77.9178 27.9142 77.9178 21.5001C77.9178 21.4576 77.9178 21.4045 77.9178 21.362H96.5115C96.4477 14.3638 90.5934 8.70361 83.3684 8.70361C76.1009 8.70361 70.2041 14.4381 70.2041 21.5001C70.2041 28.3815 75.7928 33.9992 82.8053 34.2859C82.9859 34.2965 83.1772 34.2965 83.3578 34.2965C90.5827 34.2965 93.2602 31.408 94.5459 30.2293L92.8352 25.7797C91.114 30.9726 85.929 33.5426 83.0922 33.5426ZM83.1028 9.4576C85.8547 9.4576 88.1071 14.4594 88.2665 20.778H77.9391C78.0984 14.4594 80.3509 9.4576 83.1028 9.4576Z" fill="black"/>
<path d="M37.0439 47.9212V39.6062C37.0439 39.2982 37.2883 39.054 37.5964 39.054H37.7346C38.0427 39.054 38.2871 39.2982 38.2871 39.6062V42.3672C38.2871 42.6752 38.5314 42.9194 38.8396 42.9194H42.6327C42.9408 42.9194 43.1852 42.6752 43.1852 42.3672V39.6062C43.1852 39.2982 43.4295 39.054 43.7377 39.054H43.8758C44.1839 39.054 44.4283 39.2982 44.4283 39.6062V47.9212C44.4283 48.2292 44.1839 48.4734 43.8758 48.4734H43.7483C43.4402 48.4734 43.1958 48.2292 43.1958 47.9212V44.5867C43.1958 44.2787 42.9514 44.0345 42.6433 44.0345H38.8502C38.5421 44.0345 38.2977 44.2787 38.2977 44.5867V47.9212C38.2977 48.2292 38.0533 48.4734 37.7452 48.4734H37.6071C37.2989 48.4734 37.0439 48.2186 37.0439 47.9212Z" fill="black"/>
<path d="M47.998 47.9213V39.6062C47.998 39.2983 48.2424 39.054 48.5505 39.054H54.2668C54.5749 39.054 54.8193 39.2983 54.8193 39.6062V39.6168C54.8193 39.9248 54.5749 40.1691 54.2668 40.1691H49.8043C49.4962 40.1691 49.2518 40.4133 49.2518 40.7213V42.5053C49.2518 42.8133 49.4962 43.0576 49.8043 43.0576H53.9161C54.2243 43.0576 54.4686 43.3018 54.4686 43.6098C54.4686 43.9177 54.2243 44.162 53.9161 44.162H49.8043C49.4962 44.162 49.2518 44.4062 49.2518 44.7142V46.8168C49.2518 47.1248 49.4962 47.3691 49.8043 47.3691H54.4793C54.7874 47.3691 55.0318 47.6133 55.0318 47.9213V47.9319C55.0318 48.2399 54.7874 48.4841 54.4793 48.4841H48.5505C48.2424 48.4735 47.998 48.2186 47.998 47.9213Z" fill="black"/>
<path d="M57.4647 47.7195L60.6628 39.4045C60.7478 39.1921 60.9497 39.054 61.1834 39.054H61.7784C62.0016 39.054 62.2034 39.1921 62.2884 39.3938L65.699 47.7089C65.8478 48.0699 65.5822 48.4735 65.189 48.4735H64.9765C64.7428 48.4735 64.5409 48.3354 64.4559 48.123L63.6272 45.9779C63.5422 45.7655 63.3403 45.6275 63.1065 45.6275H59.9297C59.6959 45.6275 59.4941 45.7761 59.4091 45.9885L58.6334 48.1124C58.5591 48.3354 58.3466 48.4735 58.1128 48.4735H57.9853C57.5922 48.4735 57.3266 48.0806 57.4647 47.7195ZM60.6947 44.5974H62.299C62.6815 44.5974 62.9578 44.2151 62.8197 43.854L62.1184 41.9956C62.0866 41.9 62.0547 41.8151 62.0228 41.7301C61.8422 41.2416 61.1622 41.2522 60.9816 41.7407C60.9709 41.7726 60.9603 41.8151 60.9391 41.8469L60.1847 43.8646C60.0359 44.2151 60.3016 44.5974 60.6947 44.5974Z" fill="black"/>
<path d="M68.3984 47.9213V39.6062C68.3984 39.2983 68.6428 39.054 68.9509 39.054H69.0891C69.3972 39.054 69.6416 39.2983 69.6416 39.6062V46.8168C69.6416 47.1248 69.8859 47.3691 70.1941 47.3691H73.7322C74.0403 47.3691 74.2847 47.6133 74.2847 47.9213V47.9319C74.2847 48.2399 74.0403 48.4841 73.7322 48.4841H68.9509C68.6428 48.4735 68.3984 48.2186 68.3984 47.9213Z" fill="black"/>
<path d="M78.6406 47.9213V40.7107C78.6406 40.4027 78.3962 40.1584 78.0881 40.1584H76.0906C75.7825 40.1584 75.5381 39.9142 75.5381 39.6062V39.5956C75.5381 39.2876 75.7825 39.0434 76.0906 39.0434H82.4549C82.763 39.0434 83.0074 39.2876 83.0074 39.5956V39.6062C83.0074 39.9142 82.763 40.1584 82.4549 40.1584H80.4362C80.1281 40.1584 79.8837 40.4027 79.8837 40.7107V47.9213C79.8837 48.2292 79.6393 48.4735 79.3312 48.4735H79.1931C78.8956 48.4735 78.6406 48.2186 78.6406 47.9213Z" fill="black"/>
<path d="M85.7803 47.9213V39.6062C85.7803 39.2983 86.0246 39.054 86.3328 39.054H86.4709C86.779 39.054 87.0234 39.2983 87.0234 39.6062V42.3673C87.0234 42.6753 87.2678 42.9195 87.5759 42.9195H91.369C91.6771 42.9195 91.9215 42.6753 91.9215 42.3673V39.6062C91.9215 39.2983 92.1659 39.054 92.474 39.054H92.6121C92.9202 39.054 93.1646 39.2983 93.1646 39.6062V47.9213C93.1646 48.2292 92.9202 48.4735 92.6121 48.4735H92.474C92.1659 48.4735 91.9215 48.2292 91.9215 47.9213V44.5868C91.9215 44.2788 91.6771 44.0345 91.369 44.0345H87.5759C87.2678 44.0345 87.0234 44.2788 87.0234 44.5868V47.9213C87.0234 48.2292 86.779 48.4735 86.4709 48.4735H86.3328C86.0246 48.4735 85.7803 48.2186 85.7803 47.9213Z" fill="black"/>
<path d="M21.5311 30.7815C21.5311 30.7815 20.033 33.0859 16.4417 33.9567C14.7949 34.3602 13.0736 34.339 11.4267 33.9567C10.1518 33.6594 8.46238 33.1284 6.93239 32.162C6.15677 31.7054 5.46615 31.1213 4.8924 30.431C4.87115 30.3992 4.83928 30.3779 4.81803 30.3461C4.02116 29.4009 3.41553 28.2328 3.16053 26.7992C3.16053 26.7886 3.16053 26.7779 3.16053 26.7673C3.07554 26.3001 3.03304 25.8116 3.03304 25.3125V10.3815H0.716797V9.45758H4.26553C7.41051 8.74608 9.76925 5.93192 9.76925 2.56555C9.76925 1.84342 9.663 1.14254 9.4505 0.473511H10.9592V9.45758H16.8348V10.3815H10.9699V30.9726C10.9699 30.9726 11.0336 32.9054 13.0524 33.2664C13.0524 33.2664 16.123 34.1903 19.693 25.716L21.5311 30.7815Z" fill="black"/>
</g>
</svg>
