<svg width="164" height="20" viewBox="0 0 164 20" fill="none" xmlns="http://www.w3.org/2000/svg">
<g opacity="0.5" clip-path="url(#clip0_896_3570)">
<path d="M13.1077 17.437C12.6535 18.2027 11.9973 18.801 11.0888 19.2796C10.1803 19.7581 9.06995 19.9974 7.73243 19.9974C6.44539 19.9974 5.28453 19.7821 4.27509 19.3274C3.26564 18.8728 2.45809 18.2745 1.85242 17.4848C1.24676 16.6952 0.89345 15.8098 0.817741 14.8047H3.49277C3.54324 15.3312 3.74513 15.8576 4.0732 16.3362C4.40127 16.8387 4.85552 17.2456 5.46118 17.5806C6.06685 17.9156 6.7987 18.0592 7.63149 18.0592C8.74188 18.0592 9.59991 17.772 10.1803 17.2216C10.7608 16.6712 11.0636 15.9294 11.0636 15.068C11.0636 14.3022 10.8617 13.704 10.4327 13.2254C10.0037 12.7468 9.49896 12.3879 8.8933 12.1007C8.28763 11.8375 7.45484 11.5264 6.39492 11.2153C5.15835 10.8325 4.14891 10.4735 3.41706 10.1146C2.65998 9.77956 2.02907 9.25311 1.49912 8.58308C0.969158 7.88913 0.716797 6.97981 0.716797 5.85512C0.716797 4.89794 0.969158 4.03648 1.44864 3.29467C1.92813 2.55286 2.63474 1.97855 3.56848 1.57175C4.47698 1.16495 5.56213 0.973511 6.7987 0.973511C8.71664 0.973511 10.256 1.42817 11.3917 2.31356C12.5273 3.19895 13.1834 4.32364 13.3601 5.71155H10.6346C10.4832 4.96973 10.0794 4.32364 9.44849 3.74933C8.79235 3.17502 7.90909 2.88787 6.7987 2.88787C5.78925 2.88787 4.95646 3.12716 4.3508 3.62968C3.74513 4.1322 3.4423 4.85008 3.4423 5.7594C3.4423 6.47729 3.64419 7.07553 4.04796 7.50626C4.45174 7.96092 4.93123 8.29593 5.53689 8.55915C6.14256 8.82238 6.95011 9.10953 7.9848 9.42061C9.2466 9.80348 10.256 10.1864 11.0384 10.5214C11.7954 10.8803 12.4516 11.4068 13.0068 12.1246C13.5367 12.8425 13.8143 13.7758 13.8143 14.9483C13.7891 15.8576 13.562 16.6712 13.1077 17.437Z" fill="black"/>
<path d="M43.3651 1.21283V3.17505H37.8384V19.806H35.3148V3.15112H29.7881V1.21283H43.3651Z" fill="black"/>
<path d="M70.4441 19.806L65.3212 12.2204H62.5705V19.806H60.0469V1.21283H66.5073C68.7281 1.21283 70.3937 1.71535 71.5041 2.72039C72.6145 3.72542 73.1697 5.06547 73.1697 6.74054C73.1697 8.24809 72.7154 9.4685 71.8321 10.4017C70.9489 11.335 69.6618 11.9093 67.971 12.1247L73.3211 19.806H70.4441ZM62.5705 10.4735H66.2802C69.1571 10.4735 71.1003 9.73172 71.1003 6.88411C71.1003 4.06044 69.1571 3.29469 66.2802 3.29469H62.5705V10.4735Z" fill="black"/>
<path d="M92.8283 1.21283V12.364C92.8283 14.1826 93.2573 15.5466 94.1153 16.408C94.9734 17.2695 96.1342 17.7242 97.6484 17.7242C99.1373 17.7242 100.298 17.2934 101.131 16.408C101.964 15.5227 102.393 14.1826 102.393 12.364V1.21283H104.916V12.364C104.916 14.9005 104.26 16.7909 102.923 18.0831C101.585 19.3514 99.8187 19.9975 97.5979 19.9975C95.4024 19.9975 93.6359 19.3514 92.2983 18.0831C90.9608 16.8148 90.3047 14.9005 90.3047 12.364V1.21283H92.8283Z" fill="black"/>
<path d="M135.023 1.21283V3.17505H129.497V19.806H126.973V3.15112H121.446V1.21283H135.023Z" fill="black"/>
<path d="M163.717 1.21283V3.17505H158.19V19.806H155.666V3.15112H150.114V1.21283H163.717Z" fill="black"/>
</g>
<defs>
<clipPath id="clip0_896_3570">
<rect width="163" height="19" fill="white" transform="translate(0.716797 0.973511)"/>
</clipPath>
</defs>
</svg>
