<svg width="14" height="15" viewBox="0 0 14 15" fill="none" xmlns="http://www.w3.org/2000/svg">
<g clip-path="url(#clip0_896_3365)">
<path d="M4.49512 7.17775L6.06048 8.7431C7.40536 7.39822 8.15938 6.6442 9.50426 5.29932" stroke="#007BFF" stroke-linecap="round"/>
<path d="M6.99971 13.2826C7.77382 13.2826 8.43853 12.8144 8.72612 12.1457C8.82774 11.9094 9.16354 11.7703 9.40254 11.8655C10.0788 12.135 10.8799 11.9961 11.4272 11.4487C11.9745 10.9013 12.1135 10.1003 11.8441 9.42409C11.7488 9.18502 11.8879 8.84922 12.1243 8.7476C12.7929 8.46001 13.2611 7.7953 13.2611 7.0212C13.2611 6.2471 12.7929 5.58241 12.1243 5.29481C11.8879 5.19315 11.7488 4.85737 11.8441 4.61835C12.1136 3.94216 11.9746 3.14106 11.4272 2.5937C10.8799 2.04635 10.0788 1.9074 9.4026 2.17686C9.16354 2.27211 8.82774 2.13302 8.72612 1.89665C8.43853 1.22798 7.77382 0.759766 6.99971 0.759766C6.22561 0.759766 5.56092 1.22798 5.27332 1.89665C5.17166 2.13301 4.83588 2.2721 4.59686 2.17685C3.92068 1.90739 3.11957 2.04633 2.57222 2.59368C2.02486 3.14104 1.88591 3.94215 2.15537 4.61833C2.25063 4.85735 2.11154 5.19315 1.87517 5.29481C1.2065 5.5824 0.738281 6.2471 0.738281 7.0212C0.738281 7.7953 1.20649 8.46001 1.87516 8.7476C2.11153 8.84922 2.25061 9.18502 2.15536 9.42402C1.8859 10.1003 2.02484 10.9013 2.5722 11.4487C3.11955 11.996 3.92066 12.135 4.59685 11.8655C4.83586 11.7703 5.17166 11.9094 5.27332 12.1457C5.56092 12.8144 6.22561 13.2826 6.99971 13.2826Z" stroke="#007BFF" stroke-linecap="square"/>
</g>
<defs>
<clipPath id="clip0_896_3365">
<rect width="14" height="14" fill="white" transform="translate(0 0.0209961)"/>
</clipPath>
</defs>
</svg>
