<svg width="42" height="42" viewBox="0 0 42 42" fill="none" xmlns="http://www.w3.org/2000/svg">
<g clip-path="url(#clip0_896_3131)">
<path fill-rule="evenodd" clip-rule="evenodd" d="M41.1924 20.4807C41.1924 31.3436 32.3167 40.152 21.3679 40.152C17.8909 40.152 14.6242 39.2641 11.7844 37.7042L0.807617 41.1924L4.38566 30.6386C2.58006 27.6736 1.5419 24.1966 1.5419 20.4807C1.5419 9.61554 10.4175 0.80777 21.3679 0.80777C32.3166 0.80777 41.1924 9.61554 41.1924 20.4807ZM21.3679 3.94101C12.1749 3.94101 4.69912 11.3595 4.69912 20.4809C4.69912 24.0981 5.87751 27.4506 7.87384 30.1782L5.7923 36.3194L12.1966 34.2845C14.8278 36.0109 17.9806 37.0189 21.3678 37.0189C30.557 37.0189 38.0349 29.5998 38.0349 20.4809C38.035 11.3593 30.5571 3.94101 21.3679 3.94101ZM31.3789 25.0117C31.256 24.8104 30.9318 24.6898 30.4478 24.4485C29.9615 24.2079 27.5709 23.0401 27.1261 22.8802C26.6813 22.7198 26.3549 22.639 26.0329 23.1209C25.7087 23.6032 24.7771 24.6898 24.4927 25.0117C24.21 25.3342 23.9273 25.3734 23.441 25.1323C22.9541 24.8917 21.3875 24.3807 19.5321 22.7401C18.0884 21.4602 17.113 19.8828 16.828 19.4005C16.5459 18.9188 16.8 18.6579 17.0406 18.4172C17.26 18.2001 17.5275 17.8541 17.7704 17.5736C18.0139 17.2909 18.0946 17.089 18.2567 16.7671C18.4188 16.4452 18.3381 16.1647 18.2152 15.9235C18.0946 15.6828 17.122 13.3097 16.7164 12.3433C16.3137 11.3797 15.9082 11.4156 15.6233 11.4156C15.3406 11.4156 14.816 11.4997 14.816 11.4997C14.816 11.4997 13.8418 11.6203 13.3971 12.1027C12.9523 12.5844 11.6971 13.7522 11.6971 16.1231C11.6971 18.4957 13.4369 20.7898 13.6798 21.1095C13.9232 21.432 17.0408 26.46 21.9817 28.3906C26.9227 30.3206 26.9227 29.6767 27.814 29.5953C28.7036 29.5169 30.6886 28.4298 31.0941 27.3034C31.4995 26.1773 31.4995 25.2113 31.3789 25.0117Z" fill="#379956"/>
</g>
<defs>
<clipPath id="clip0_896_3131">
<rect width="42" height="42" fill="white"/>
</clipPath>
</defs>
</svg>
