<svg width="103" height="51" viewBox="0 0 103 51" fill="none" xmlns="http://www.w3.org/2000/svg">
<g clip-path="url(#clip0_896_3345)">
<path d="M77.6345 43.0815L102.72 17.7675C102.72 17.7675 94.3569 6.52516 78.745 12.1823C78.745 12.1823 72.2336 15.3853 69.8644 21.8617C69.8644 21.8617 68.4592 19.2567 66.6095 17.1711C66.6095 17.1711 64.4918 18.7525 61.9628 18.7441C63.6386 20.2251 64.9835 22.0467 65.9087 24.0887C66.8339 26.1308 67.3185 28.347 67.3304 30.5912C67.3837 39.3642 60.2462 46.5994 51.5288 46.6061C47.419 46.6237 43.4651 45.0249 40.5103 42.1507C37.5555 39.2765 35.8337 35.3545 35.7122 31.221C35.4225 22.2017 42.5949 14.5042 51.5055 14.5042C51.9284 14.5042 52.4378 14.5326 52.8524 14.5661C52.8524 14.5661 51.2241 13.4488 50.7063 9.94928C50.7063 9.94928 35.3975 11.1504 32.1642 25.9308C31.7939 27.6884 31.6518 29.4869 31.7414 31.2814C31.8263 33.233 31.5249 37.1446 28.3166 40.2705C27.9404 40.6374 27.5874 41.0277 27.2395 41.4231C25.2982 43.6226 18.0675 50.2732 6.53131 43.0815L31.8379 17.6184C31.8379 17.6184 16.7422 1.0154 0.316236 17.7675L3.5711 20.8197C3.5711 20.8197 12.5982 9.05639 25.5479 17.7675L0.30957 42.9324C0.30957 42.9324 17.3282 62.5876 33.7542 39.7311C33.7542 39.7311 39.0087 50.6853 51.8101 50.7875C51.8101 50.7875 63.0566 51.2666 69.3466 40.098C69.3466 40.098 76.0063 51.8026 88.1418 50.7891C88.1418 50.7891 97.0207 50.6702 102.72 43.4484L99.6846 40.1733C99.6846 40.1733 90.1397 52.6118 77.6345 43.0815ZM75.8348 19.7023C75.8348 19.7023 84.5156 9.92415 96.7011 17.9651L74.6011 40.0527C74.6011 40.0527 66.8126 30.5242 75.8348 19.7023Z" fill="black"/>
<path d="M72.4551 2.05737C72.4551 2.05737 73.9352 17.6184 59.2091 17.2465C59.2091 17.2465 58.7796 19.6588 61.2236 23.9741C62.3978 26.0307 63.0615 28.342 63.1583 30.7118C63.3098 34.8395 61.7364 40.0929 53.4385 41.8167C53.4385 41.8167 46.1596 43.1921 42.0805 37.3992C41.04 35.9127 40.3494 34.2075 40.0609 32.4126C39.7724 30.6178 39.8937 28.7804 40.4156 27.0397C41.368 23.8568 43.852 20.3305 50.1553 20.0709C51.7939 19.9841 53.4224 20.3768 54.8437 21.2016C56.5353 22.2068 58.2468 24.0713 57.9405 27.4334C57.5642 31.5561 53.2537 34.1728 49.7508 32C49.6705 31.9404 49.5937 31.8761 49.521 31.8074C49.3026 31.6159 49.107 31.3994 48.9383 31.1624C48.2224 30.1405 46.8738 27.5574 49.2946 25.0647C49.2946 25.0647 51.2176 23.4263 51.9584 25.6594C51.9584 25.6594 52.2548 27.0749 50.848 27.9678C50.848 27.9678 50.4783 30.3834 52.7726 30.4035C52.7726 30.4035 56.5453 30.0517 54.9919 25.6594C54.9919 25.6594 53.2904 20.5232 47.2218 23.5754C47.2218 23.5754 40.1193 27.745 45.0757 35.1896C45.0757 35.1896 46.058 37.1664 48.905 38.1514C55.5014 40.4414 62.0578 34.6334 60.874 27.7098C60.6745 26.5775 60.3667 25.4673 59.955 24.3946C59.955 24.3946 56.477 16.2782 59.4372 10.4719C59.4372 10.4719 61.8413 5.92878 67.3355 5.11128C67.3305 5.11128 71.7296 4.4126 72.4551 2.05737Z" fill="black"/>
<path d="M60.0977 7.12151C60.0977 7.12151 56.7679 9.13175 57.2856 15.6081C57.2856 15.6081 49.4423 10.0246 54.0291 0.122498C54.0291 0.122498 55.3444 2.73667 57.582 3.9939C57.582 3.9939 59.7514 5.20507 60.0977 7.12151Z" fill="black"/>
</g>
<defs>
<clipPath id="clip0_896_3345">
<rect width="102.41" height="50.7353" fill="white" transform="translate(0.30957 0.122498)"/>
</clipPath>
</defs>
</svg>
